<?xml version="1.0" standalone="no"?>
<!DOCTYPE svg PUBLIC "-//W3C//DTD SVG 20010904//EN"
 "http://www.w3.org/TR/2001/REC-SVG-20010904/DTD/svg10.dtd">
<svg version="1.0" xmlns="http://www.w3.org/2000/svg"
 width="752.000000pt" height="752.000000pt" viewBox="0 0 752.000000 752.000000"
 preserveAspectRatio="xMidYMid meet">
<metadata>
Created by potrace 1.11, written by Peter Selinger 2001-2013
</metadata>
<g transform="translate(0.000000,752.000000) scale(0.100000,-0.100000)"
fill="#000000" stroke="none">
<path d="M3706 7151 c-5 -7 -55 -40 -161 -104 -11 -7 -51 -33 -90 -58 -38 -25
-110 -70 -158 -100 -48 -30 -100 -62 -115 -71 -15 -10 -34 -21 -42 -25 -8 -3
-17 -9 -20 -13 -3 -3 -34 -24 -70 -46 -36 -21 -67 -41 -70 -45 -3 -3 -30 -20
-60 -37 -30 -18 -129 -80 -220 -137 -209 -133 -513 -325 -548 -346 -23 -14
-204 -127 -502 -315 -47 -30 -107 -68 -135 -85 -27 -16 -95 -59 -150 -94 -55
-35 -124 -79 -154 -97 -29 -18 -65 -41 -80 -51 -14 -9 -34 -20 -43 -23 -10 -4
-18 -10 -18 -14 0 -4 -13 -13 -30 -20 -16 -7 -30 -16 -30 -21 0 -5 -5 -9 -11
-9 -6 0 -29 -12 -52 -27 -23 -16 -51 -33 -62 -40 -38 -23 -180 -113 -195 -123
-8 -5 -37 -24 -65 -41 -27 -17 -69 -44 -93 -60 -23 -16 -47 -29 -52 -29 -6 0
-10 -5 -10 -11 0 -5 -5 -7 -10 -4 -6 3 -13 -1 -16 -9 -3 -9 -10 -16 -15 -16
-5 0 -104 -60 -219 -133 l-210 -132 0 -1072 0 -1072 135 -83 c74 -46 144 -87
155 -93 11 -5 20 -13 20 -17 0 -5 5 -8 11 -8 6 0 29 -12 52 -27 23 -16 51 -33
62 -40 124 -74 211 -129 213 -135 2 -5 8 -8 14 -8 5 0 24 -10 41 -22 18 -13
34 -23 37 -23 3 0 16 -8 30 -17 61 -40 302 -188 306 -188 3 0 10 -5 17 -10 7
-6 57 -38 112 -71 55 -34 112 -70 127 -80 15 -10 30 -19 33 -19 4 0 25 -13 48
-29 23 -15 89 -57 147 -92 58 -35 107 -66 110 -70 3 -3 10 -8 15 -10 17 -7
160 -93 165 -100 3 -3 10 -8 15 -10 6 -2 43 -24 83 -49 41 -25 86 -52 100 -61
15 -9 101 -63 192 -119 91 -56 177 -110 191 -119 15 -9 52 -32 84 -51 31 -19
64 -39 73 -45 10 -5 68 -41 130 -80 165 -102 171 -106 253 -155 41 -24 92 -57
113 -72 21 -15 43 -28 48 -28 5 0 14 -5 21 -10 15 -13 93 -62 467 -292 l106
-65 89 59 c50 32 97 61 105 65 8 4 20 11 25 15 6 5 54 37 107 71 54 34 139 89
190 122 51 33 145 92 208 132 63 40 122 77 130 83 8 6 116 75 240 155 124 79
230 148 237 154 7 6 15 11 18 11 4 0 25 13 48 29 23 15 80 53 127 83 47 30
176 112 287 183 112 72 252 162 312 200 61 39 208 133 326 210 119 77 224 145
233 150 49 29 208 130 212 136 3 3 16 12 29 19 31 16 232 146 248 159 7 6 14
11 17 11 4 0 83 50 291 184 28 18 85 56 128 84 43 29 82 52 86 52 5 0 11 3 13
8 2 4 14 14 28 23 l24 16 1 1034 c0 1023 0 1034 -20 1050 -11 9 -36 26 -55 36
-19 11 -84 51 -145 88 -60 37 -122 75 -136 84 -53 32 -265 161 -294 178 -16
10 -31 21 -33 26 -2 4 -8 7 -12 7 -5 0 -52 27 -105 60 -53 33 -100 60 -106 60
-5 0 -9 5 -9 10 0 6 -4 10 -9 10 -6 0 -53 27 -105 60 -53 33 -100 60 -106 60
-5 0 -10 3 -10 8 0 4 -26 22 -57 40 -32 18 -96 56 -143 85 -47 29 -137 84
-200 122 -63 39 -116 73 -118 78 -2 4 -8 7 -13 7 -5 0 -53 27 -107 60 -53 33
-104 65 -112 70 -152 93 -208 128 -229 140 -14 8 -77 47 -139 85 -62 39 -126
78 -142 88 -51 30 -85 50 -182 109 -51 32 -106 66 -123 75 -16 10 -32 21 -35
24 -3 3 -10 8 -15 10 -9 3 -135 80 -373 227 -20 13 -45 25 -54 29 -10 3 -18 9
-18 14 0 5 -7 9 -15 9 -8 0 -15 5 -15 10 0 6 -5 10 -10 10 -10 0 -28 11 -147
87 -28 18 -56 33 -62 33 -6 0 -11 3 -11 8 0 4 -21 18 -47 32 -27 13 -50 27
-53 30 -8 9 -195 120 -202 120 -4 0 -9 -4 -12 -9z"/>
</g>
</svg>
