<?xml version="1.0" encoding="UTF-8"?>
<svg width="12px" height="13px" viewBox="0 0 12 13" version="1.1" xmlns="http://www.w3.org/2000/svg" xmlns:xlink="http://www.w3.org/1999/xlink">
    <!-- Generator: Sketch 60 (88103) - https://sketch.com -->
    <title>search</title>
    <desc>Created with Sketch.</desc>
    <g id="Page-1" stroke="none" stroke-width="1" fill="none" fill-rule="evenodd">
        <g id="3.1.1-Designer" transform="translate(-20.000000, -79.000000)" fill="#D0D7E4" fill-rule="nonzero">
            <g id="controller" transform="translate(0.000000, 60.000000)">
                <g id="search">
                    <g id="txt" transform="translate(20.000000, 19.000000)">
                        <path d="M11.9341186,12.0639984 L8.43795198,8.42806982 C9.32969918,7.53373444 9.88215892,6.30081747 9.88215892,4.94107946 C9.88215892,2.21642707 7.66573185,6.30606678e-14 4.94107946,6.30606678e-14 C2.21642707,6.30606678e-14 -1.77635684e-15,2.21642707 -1.77635684e-15,4.94107946 C-1.77635684e-15,7.66573185 2.21642707,9.88215892 4.94107946,9.88215892 C6.13705598,9.88215892 7.23468149,9.4546379 8.0901941,8.74524006 L11.5948312,12.3901097 C11.6409479,12.438344 11.7025938,12.4623436 11.7644749,12.4623436 C11.8232973,12.4623436 11.8818844,12.4404616 11.9275305,12.3966978 C12.0211757,12.3065819 12.0239992,12.1576437 11.9341186,12.0639984 Z M4.94107946,9.41157992 C2.47595139,9.41157992 0.470578996,7.40620753 0.470578996,4.94107946 C0.470578996,2.47595139 2.47595139,0.470578996 4.94107946,0.470578996 C7.40620753,0.470578996 9.41157992,2.47595139 9.41157992,4.94107946 C9.41157992,7.40620753 7.40597224,9.41157992 4.94107946,9.41157992 Z" id="search"></path>
                    </g>
                </g>
            </g>
        </g>
    </g>
</svg>