<?xml version="1.0" encoding="UTF-8"?>
<svg width="15px" height="15px" viewBox="0 0 15 15" version="1.1" xmlns="http://www.w3.org/2000/svg" xmlns:xlink="http://www.w3.org/1999/xlink">
    <!-- Generator: Sketch 60 (88103) - https://sketch.com -->
    <title>source-page</title>
    <desc>Created with Sketch.</desc>
    <g id="Page-1" stroke="none" stroke-width="1" fill="none" fill-rule="evenodd">
        <g id="3.1.1-Designer" transform="translate(-823.000000, -73.000000)" fill="#1B3E6F" fill-rule="nonzero">
            <g id="edit-actions" transform="translate(543.000000, 61.000000)">
                <g id="elements" transform="translate(10.000000, 6.000000)">
                    <g id="view-options" transform="translate(192.000000, 0.000000)">
                        <g id="source" transform="translate(66.000000, 0.000000)">
                            <g id="txt" transform="translate(12.000000, 6.000000)">
                                <g id="source-page">
                                    <g id="Group" transform="translate(2.944785, 5.521472)">
                                        <path d="M3.01527607,4.48886503 C3.00915644,4.44657975 2.9865184,4.4084816 2.95233129,4.38289877 L1.21766871,3.08567485 L2.95233129,1.78845092 C2.9865184,1.7628681 3.00915644,1.72476994 3.01527607,1.68248466 C3.02134969,1.64019939 3.01044479,1.59726994 2.98481595,1.5629908 L2.70924847,1.19452454 C2.65592025,1.12329755 2.55506135,1.10871166 2.48383436,1.16203988 L0.0839723926,2.95670245 C0.0433435583,2.98707055 0.0193711656,3.0348773 0.0193711656,3.08567485 C0.0193711656,3.13647239 0.0433435583,3.18427914 0.0839723926,3.21464724 L2.48383436,5.00930982 C2.51273006,5.0309816 2.54659509,5.04138037 2.58013804,5.04138037 C2.62918712,5.04138037 2.67763804,5.01911043 2.70924847,4.97682515 L2.98481595,4.6083589 C3.01039877,4.57407975 3.02134969,4.53115031 3.01527607,4.48886503 Z" id="Path"></path>
                                        <path d="M9.00763804,2.95670245 L6.6078681,1.16203988 C6.5366411,1.10875767 6.43578221,1.12334356 6.3825,1.19452454 L6.10693252,1.5629908 C6.08134969,1.59722393 6.07039877,1.64019939 6.07647239,1.68248466 C6.08259202,1.72472393 6.10518405,1.7628681 6.13941718,1.78845092 L7.87403374,3.08567485 L6.13941718,4.38289877 C6.10518405,4.4084816 6.08259202,4.44662577 6.07647239,4.48886503 C6.07039877,4.53115031 6.08130368,4.57412577 6.10693252,4.6083589 L6.3825,4.97682515 C6.41415644,5.01911043 6.46256135,5.04138037 6.51161043,5.04138037 C6.54515337,5.04138037 6.57897239,5.03093558 6.60791411,5.00930982 L9.00768405,3.21464724 C9.04831288,3.18427914 9.07228528,3.13647239 9.07228528,3.08567485 C9.07228528,3.0348773 9.04826687,2.98707055 9.00763804,2.95670245 Z" id="Path"></path>
                                        <path d="M6.08576687,0.204110429 L5.66194785,0.024892638 C5.62265337,0.00823619632 5.57829755,0.0079601227 5.53868098,0.0239723926 C5.49911043,0.0400306748 5.4675,0.0711349693 5.45088957,0.11047546 L2.92021472,6.09593558 C2.88556748,6.17783742 2.92389571,6.27234663 3.00584356,6.30699387 L3.42966258,6.48621166 C3.44967791,6.49472393 3.47102761,6.49891104 3.4923773,6.49891104 C3.51294479,6.49891104 3.53351227,6.49495399 3.55292945,6.48708589 C3.5925,6.47102761 3.62406442,6.43992331 3.64072086,6.40058282 L6.17139571,0.415122699 C6.20599693,0.333220859 6.16766871,0.238757669 6.08576687,0.204110429 Z" id="Path"></path>
                                    </g>
                                    <path d="M14.1760123,0.021303681 L0.805214724,0.021303681 C0.361242331,0.021303681 0,0.382546012 0,0.826518405 L0,13.4185123 C0,13.8624847 0.361242331,14.223727 0.805214724,14.223727 L14.1760123,14.223727 C14.6199847,14.223727 14.981227,13.8624847 14.981227,13.4185123 L14.981227,0.826518405 C14.981227,0.3825 14.6199847,0.021303681 14.1760123,0.021303681 Z M12.5827454,1.25595092 C12.9506135,1.25595092 13.2499233,1.55526074 13.2499233,1.92312883 C13.2499233,2.29099693 12.9506135,2.59030675 12.5827454,2.59030675 C12.2148773,2.59030675 11.9155675,2.29099693 11.9155675,1.92312883 C11.9155675,1.55526074 12.2148773,1.25595092 12.5827454,1.25595092 Z M10.3202761,1.25595092 C10.6881442,1.25595092 10.987454,1.55526074 10.987454,1.92312883 C10.987454,2.29099693 10.6881442,2.59030675 10.3202761,2.59030675 C9.95240798,2.59030675 9.65309816,2.29099693 9.65309816,1.92312883 C9.65309816,1.55526074 9.95240798,1.25595092 10.3202761,1.25595092 Z M2.04289877,1.57803681 L4.73461656,1.57803681 C4.92519939,1.57803681 5.07970859,1.7325 5.07970859,1.92312883 C5.07970859,2.11375767 4.92519939,2.26822086 4.73461656,2.26822086 L2.04289877,2.26822086 C1.85231595,2.26822086 1.69780675,2.11375767 1.69780675,1.92312883 C1.69780675,1.7325 1.85231595,1.57803681 2.04289877,1.57803681 Z M13.7022699,12.8284969 C13.7022699,12.8863804 13.6551534,12.9335429 13.5971779,12.9335429 L1.38404908,12.9335429 C1.32611963,12.9335429 1.27895706,12.8863804 1.27895706,12.8284969 L1.27895706,4.15656442 L13.7022699,4.15656442 L13.7022699,12.8284969 Z" id="Shape"></path>
                                </g>
                            </g>
                        </g>
                    </g>
                </g>
            </g>
        </g>
    </g>
</svg>