<?xml version="1.0" encoding="UTF-8"?>
<svg width="10px" height="10px" viewBox="0 0 10 10" version="1.1" xmlns="http://www.w3.org/2000/svg" xmlns:xlink="http://www.w3.org/1999/xlink">
    <!-- Generator: Sketch 60 (88103) - https://sketch.com -->
    <title>Path</title>
    <desc>Created with Sketch.</desc>
    <g id="Page-1" stroke="none" stroke-width="1" fill="none" fill-rule="evenodd">
        <g id="3.1.1-Designer" transform="translate(-1057.000000, -73.000000)" fill="#1B3E6F" fill-rule="nonzero">
            <g id="action-attributes" transform="translate(1044.000000, 60.000000)">
                <g id="close">
                    <path d="M18.8808333,17.996875 L22.8108333,14.066875 C23.055,13.8229167 23.055,13.4270833 22.8108333,13.183125 C22.5666667,12.9389583 22.17125,12.9389583 21.9270833,13.183125 L17.9970833,17.113125 L14.066875,13.183125 C13.8227083,12.9389583 13.4272917,12.9389583 13.183125,13.183125 C12.9389583,13.4270833 12.9389583,13.8229167 13.183125,14.066875 L17.1133333,17.996875 L13.183125,21.926875 C12.9389583,22.1708333 12.9389583,22.5666667 13.183125,22.810625 C13.3052083,22.9325 13.4652083,22.9935417 13.625,22.9935417 C13.7847917,22.9935417 13.9447917,22.9325 14.066875,22.8104167 L17.9970833,18.8804167 L21.9270833,22.8104167 C22.0491667,22.9325 22.2091667,22.9935417 22.3689583,22.9935417 C22.52875,22.9935417 22.68875,22.9325 22.8108333,22.8104167 C23.055,22.5664583 23.055,22.170625 22.8108333,21.9266667 L18.8808333,17.996875 Z" id="Path"></path>
                </g>
            </g>
        </g>
    </g>
</svg>