<?xml version="1.0" encoding="UTF-8"?>
<svg width="12px" height="12px" viewBox="0 0 12 12" version="1.1" xmlns="http://www.w3.org/2000/svg" xmlns:xlink="http://www.w3.org/1999/xlink">
    <!-- Generator: Sketch 60 (88103) - https://sketch.com -->
    <title>Shape</title>
    <desc>Created with Sketch.</desc>
    <g id="Page-1" stroke="none" stroke-width="1" fill="none" fill-rule="evenodd">
        <g id="3.1.1-Designer" transform="translate(-703.000000, -74.000000)" fill="#D9E3EE" fill-rule="nonzero">
            <g id="edit-actions" transform="translate(543.000000, 61.000000)">
                <g id="elements" transform="translate(10.000000, 6.000000)">
                    <g id="zoom" transform="translate(81.000000, 0.000000)">
                        <g id="icons" transform="translate(10.000000, 7.000000)">
                            <path d="M65,0 C61.6916923,0 59,2.69146154 59,6 C59,9.30853846 61.6916923,12 65,12 C68.3083077,12 71,9.30853846 71,6 C71,2.69146154 68.3083077,0 65,0 Z M67.8846154,6.46153846 L65.4615385,6.46153846 L65.4615385,9 C65.4615385,9.25476923 65.2547692,9.46153846 65,9.46153846 C64.7452308,9.46153846 64.5384615,9.25476923 64.5384615,9 L64.5384615,6.46153846 L62.1153846,6.46153846 C61.8606154,6.46153846 61.6538462,6.25476923 61.6538462,6 C61.6538462,5.74523077 61.8606154,5.53846154 62.1153846,5.53846154 L64.5384615,5.53846154 L64.5384615,3.23076923 C64.5384615,2.976 64.7452308,2.76923077 65,2.76923077 C65.2547692,2.76923077 65.4615385,2.976 65.4615385,3.23076923 L65.4615385,5.53846154 L67.8846154,5.53846154 C68.1393846,5.53846154 68.3461538,5.74523077 68.3461538,6 C68.3461538,6.25476923 68.1393846,6.46153846 67.8846154,6.46153846 Z" id="Shape"></path>
                        </g>
                    </g>
                </g>
            </g>
        </g>
    </g>
</svg>