<?xml version="1.0" encoding="UTF-8"?>
<svg width="12px" height="12px" viewBox="0 0 12 12" version="1.1" xmlns="http://www.w3.org/2000/svg" xmlns:xlink="http://www.w3.org/1999/xlink">
    <!-- Generator: Sketch 59.1 (86144) - https://sketch.com -->
    <title>icon-btn-card-config</title>
    <desc>Created with Sketch.</desc>
    <g id="Page-1" stroke="none" stroke-width="1" fill="none" fill-rule="evenodd">
        <g id="icon-btn-card-config" fill="#C3CDDB" fill-rule="nonzero">
            <path d="M11.3822222,4.66666667 L10.2595556,4.66666667 C10.0791111,4.66666667 9.93044444,4.56733333 9.86133333,4.40066667 C9.79222222,4.234 9.82733333,4.05844444 9.95466667,3.93088889 L10.7484444,3.13733333 C10.8651111,3.02066667 10.9293333,2.86533333 10.9293333,2.70044444 C10.9293333,2.53533333 10.8651111,2.38022222 10.7484444,2.26333333 L9.73666667,1.25155556 C9.50333333,1.01822222 9.09644444,1.01777778 8.86266667,1.25155556 L8.06911111,2.04511111 C7.94155556,2.17244444 7.76555556,2.208 7.59933333,2.13866667 C7.43266667,2.06955556 7.33333333,1.92088889 7.33333333,1.74044444 L7.33333333,0.617777778 C7.33333333,0.277111111 7.05622222,0 6.71555556,0 L5.28444444,0 C4.94377778,0 4.66666667,0.277111111 4.66666667,0.617777778 L4.66666667,1.74044444 C4.66666667,1.92088889 4.56733333,2.06955556 4.40066667,2.13866667 C4.23444444,2.20822222 4.05844444,2.17244444 3.93088889,2.04511111 L3.13733333,1.25155556 C2.90355556,1.01777778 2.49666667,1.01822222 2.26333333,1.25155556 L1.25155556,2.26333333 C1.13488889,2.38 1.07066667,2.53533333 1.07066667,2.70044444 C1.07066667,2.86533333 1.13488889,3.02044444 1.25155556,3.13733333 L2.04533333,3.93088889 C2.17266667,4.05844444 2.20755556,4.234 2.13866667,4.40066667 C2.06977778,4.56733333 1.92088889,4.66666667 1.74044444,4.66666667 L0.617777778,4.66666667 C0.277111111,4.66666667 0,4.94377778 0,5.28444444 L0,6.71533333 C0,7.05622222 0.277111111,7.33333333 0.617777778,7.33333333 L1.74044444,7.33333333 C1.92088889,7.33333333 2.06955556,7.43266667 2.13866667,7.59933333 C2.20777778,7.766 2.17266667,7.94155556 2.04533333,8.06911111 L1.25155556,8.86266667 C1.13488889,8.97933333 1.07066667,9.13466667 1.07066667,9.29955556 C1.07066667,9.46466667 1.13488889,9.61977778 1.25155556,9.73666667 L2.26333333,10.7484444 C2.49688889,10.982 2.90355556,10.9824444 3.13733333,10.7484444 L3.93088889,9.95466667 C4.05844444,9.82733333 4.23377778,9.79222222 4.40066667,9.86133333 C4.56733333,9.93044444 4.66666667,10.0791111 4.66666667,10.2595556 L4.66666667,11.3822222 C4.66666667,11.7228889 4.94377778,12 5.28444444,12 L6.71533333,12 C7.056,12 7.33311111,11.7228889 7.33311111,11.3822222 L7.33311111,10.2595556 C7.33311111,10.0791111 7.43244444,9.93044444 7.59911111,9.86133333 C7.766,9.792 7.94133333,9.82733333 8.06888889,9.95466667 L8.86244444,10.7484444 C9.09622222,10.9822222 9.50311111,10.9817778 9.73644444,10.7484444 L10.7482222,9.73666667 C10.8648889,9.62 10.9291111,9.46466667 10.9291111,9.29955556 C10.9291111,9.13466667 10.8648889,8.97955556 10.7482222,8.86266667 L9.95444444,8.06911111 C9.82711111,7.94155556 9.79222222,7.766 9.86111111,7.59933333 C9.93,7.43266667 10.0791111,7.33333333 10.2595556,7.33333333 L11.3822222,7.33333333 C11.7228889,7.33333333 12,7.05622222 12,6.71555556 L12,5.28444444 C12,4.94377778 11.7228889,4.66666667 11.3822222,4.66666667 Z M11.5555556,6.71555556 C11.5555556,6.81111111 11.4777778,6.88888889 11.3822222,6.88888889 L10.2595556,6.88888889 C9.89866667,6.88888889 9.58866667,7.096 9.45066667,7.42933333 C9.31244444,7.76266667 9.38511111,8.12844444 9.64044444,8.38355556 L10.4342222,9.17711111 C10.502,9.24488889 10.502,9.35488889 10.4342222,9.42244444 L9.42244444,10.4342222 C9.35488889,10.5017778 9.24488889,10.5022222 9.17711111,10.4342222 L8.38355556,9.64044444 C8.12822222,9.38511111 7.76266667,9.31288889 7.42933333,9.45066667 C7.096,9.58866667 6.88888889,9.89866667 6.88888889,10.2595556 L6.88888889,11.3822222 C6.88888889,11.4777778 6.81111111,11.5555556 6.71555556,11.5555556 L5.28444444,11.5555556 C5.18888889,11.5555556 5.11111111,11.4777778 5.11111111,11.3822222 L5.11111111,10.2595556 C5.11111111,9.89866667 4.904,9.58866667 4.57066667,9.45066667 C4.45888889,9.40422222 4.34377778,9.38155556 4.23,9.38155556 C4.00466667,9.38155556 3.78622222,9.47044444 3.61644444,9.64022222 L2.82288889,10.434 C2.75488889,10.502 2.64488889,10.5015556 2.57755556,10.434 L1.56577778,9.42222222 C1.498,9.35444444 1.498,9.24444444 1.56577778,9.17688889 L2.35955556,8.38333333 C2.61466667,8.12822222 2.68755556,7.76244444 2.54933333,7.42911111 C2.41133333,7.096 2.10133333,6.88888889 1.74044444,6.88888889 L0.617777778,6.88888889 C0.522222222,6.88888889 0.444444444,6.81111111 0.444444444,6.71555556 L0.444444444,5.28444444 C0.444444444,5.18888889 0.522222222,5.11111111 0.617777778,5.11111111 L1.74044444,5.11111111 C2.10133333,5.11111111 2.41133333,4.904 2.54933333,4.57066667 C2.68755556,4.23733333 2.61488889,3.87155556 2.35955556,3.61644444 L1.56577778,2.82288889 C1.498,2.75511111 1.498,2.64511111 1.56577778,2.57755556 L2.57755556,1.56577778 C2.64511111,1.498 2.75511111,1.498 2.82288889,1.56577778 L3.61644444,2.35933333 C3.87133333,2.61422222 4.23688889,2.68733333 4.57066667,2.54911111 C4.904,2.41133333 5.11111111,2.10133333 5.11111111,1.74044444 L5.11111111,0.617777778 C5.11111111,0.522222222 5.18888889,0.444444444 5.28444444,0.444444444 L6.71533333,0.444444444 C6.81111111,0.444444444 6.88888889,0.522222222 6.88888889,0.617777778 L6.88888889,1.74044444 C6.88888889,2.10133333 7.096,2.41133333 7.42933333,2.54933333 C7.76311111,2.68755556 8.12844444,2.61466667 8.38355556,2.35955556 L9.17711111,1.566 C9.24511111,1.49822222 9.35511111,1.49822222 9.42244444,1.566 L10.4342222,2.57777778 C10.502,2.64555556 10.502,2.75555556 10.4342222,2.82311111 L9.64044444,3.61666667 C9.38533333,3.87177778 9.31244444,4.23755556 9.45066667,4.57088889 C9.58866667,4.90422222 9.89866667,5.11133333 10.2595556,5.11133333 L11.3822222,5.11133333 C11.4777778,5.11111111 11.5555556,5.18888889 11.5555556,5.28444444 L11.5555556,6.71555556 Z" id="Shape"></path>
            <path d="M6,4 C4.89711111,4 4,4.89711111 4,6 C4,7.10288889 4.89711111,8 6,8 C7.10288889,8 8,7.10288889 8,6 C8,4.89711111 7.10288889,4 6,4 Z M6,7.55555556 C5.14244444,7.55555556 4.44444444,6.85755556 4.44444444,6 C4.44444444,5.14244444 5.14244444,4.44444444 6,4.44444444 C6.85755556,4.44444444 7.55555556,5.14244444 7.55555556,6 C7.55555556,6.85755556 6.85755556,7.55555556 6,7.55555556 Z" id="Shape"></path>
        </g>
    </g>
</svg>