<?xml version="1.0" encoding="UTF-8"?>
<svg width="36px" height="35px" viewBox="0 0 36 35" version="1.1" xmlns="http://www.w3.org/2000/svg" xmlns:xlink="http://www.w3.org/1999/xlink">
    <!-- Generator: Sketch 60 (88103) - https://sketch.com -->
    <title>server</title>
    <desc>Created with Sketch.</desc>
    <g id="Page-1" stroke="none" stroke-width="1" fill="none" fill-rule="evenodd">
        <g id="3.1.1-Designer" transform="translate(-685.000000, -402.000000)" fill="#FFFFFF" fill-rule="nonzero">
            <g id="workflow-container" transform="translate(401.000000, 137.000000)">
                <g id="component" transform="translate(30.000000, 70.000000)">
                    <g id="dg-generic" transform="translate(150.000000, 170.000000)">
                        <g id="Group-4" transform="translate(87.000000, 25.000000)">
                            <g id="server" transform="translate(17.000000, 0.000000)">
                                <path d="M6.3,3.6414 C4.8114,3.6414 3.6,4.8528 3.6,6.3414 C3.6,7.83 4.8114,9.0414 6.3,9.0414 C7.7886,9.0414 9,7.83 9,6.3414 C9,4.8528 7.7886,3.6414 6.3,3.6414 Z M6.3,7.8414 C5.4732,7.8414 4.8,7.1688 4.8,6.3414 C4.8,5.514 5.4732,4.8414 6.3,4.8414 C7.1268,4.8414 7.8,5.514 7.8,6.3414 C7.8,7.1688 7.1268,7.8414 6.3,7.8414 Z" id="Shape"></path>
                                <circle id="Oval" cx="30" cy="5.4414" r="1"></circle>
                                <circle id="Oval" cx="27.6" cy="5.4414" r="1"></circle>
                                <circle id="Oval" cx="31.2" cy="7.2414" r="1"></circle>
                                <circle id="Oval" cx="28.8" cy="7.2414" r="1"></circle>
                                <circle id="Oval" cx="25.2" cy="5.4414" r="1"></circle>
                                <circle id="Oval" cx="26.4" cy="7.2414" r="1"></circle>
                                <circle id="Oval" cx="22.8" cy="5.4414" r="1"></circle>
                                <circle id="Oval" cx="24" cy="7.2414" r="1"></circle>
                                <circle id="Oval" cx="20.4" cy="5.4414" r="1"></circle>
                                <circle id="Oval" cx="21.6" cy="7.2414" r="1"></circle>
                                <path d="M36,9.876 L36,2.8062 C36,1.2816 34.7598,0.0414 33.2352,0.0414 L2.7648,0.0414 C1.2402,0.0414 0,1.2816 0,2.8062 L0,9.876 C0,10.7574 0.4218,11.5344 1.0662,12.0408 C0.4218,12.5478 0,13.3248 0,14.2062 L0,21.276 C0,22.8006 1.2402,24.0408 2.7648,24.0408 L18,24.0408 L33.2352,24.0408 C34.7598,24.0408 36,22.8006 36,21.276 L36,14.2062 C36,13.3248 35.5782,12.5478 34.9338,12.0414 C35.5782,11.5344 36,10.7574 36,9.876 Z M34.8,14.2062 L34.8,21.276 C34.8,22.1388 34.098,22.8408004 33.2352,22.8408004 L2.7648,22.8408004 C1.902,22.8414 1.2,22.1394 1.2,21.276 L1.2,14.2062 C1.2,13.3434 1.902,12.6414 2.7648,12.6414 L33.2346,12.6414 C34.098,12.6414 34.8,13.3434 34.8,14.2062 Z M2.7648,11.4414 C1.902,11.4414 1.2,10.7394 1.2,9.876 L1.2,2.8062 C1.2,1.9434 1.902,1.2414 2.7648,1.2414 L33.2346,1.2414 C34.098,1.2414 34.8,1.9434 34.8,2.8062 L34.8,9.876 C34.8,10.7388 34.098,11.4408 33.2352,11.4408 L2.7648,11.4408 L2.7648,11.4414 Z" id="Shape"></path>
                                <path d="M6.3,20.4414 C7.7886,20.4414 9,19.23 9,17.7414 C9,16.2528 7.7886,15.0414 6.3,15.0414 C4.8114,15.0414 3.6,16.2522 3.6,17.7414 C3.6,19.2306 4.8114,20.4414 6.3,20.4414 Z M6.3,16.2414 C7.1268,16.2414 7.8,16.914 7.8,17.7414 C7.8,18.5688 7.1268,19.2414 6.3,19.2414 C5.4732,19.2414 4.8,18.5688 4.8,17.7414 C4.8,16.914 5.4732,16.2414 6.3,16.2414 Z" id="Shape"></path>
                                <path d="M18.8838,30.273 C19.0212,30.3504 19.1472,30.4458 19.2594,30.5556 C19.3764,30.6702 19.5282,30.7272 19.6794,30.7272 C19.8348,30.7272 19.9902,30.6666 20.1078,30.5472 C20.34,30.3102 20.3358,29.931 20.0994,29.6988 C19.9128,29.5158 19.7034,29.3586 19.476,29.229 C19.1862,29.0664 18.8214,29.166 18.6582,29.4552 C18.495,29.7432 18.5958,30.1092 18.8838,30.273 Z" id="Path"></path>
                                <path d="M18.9024,33.3996 C18.7674,33.4788 18.6222,33.5388 18.471,33.5796 C18.1512,33.666 17.9616,33.9948 18.0474,34.3152 C18.12,34.5828 18.3618,34.7592 18.6264,34.7592 C18.678,34.7592 18.7302,34.7526 18.783,34.7388 C19.0362,34.6704 19.2798,34.569 19.506,34.437 C19.7922,34.2702 19.8894,33.9024 19.7226,33.6162 C19.5558,33.3294 19.1886,33.2334 18.9024,33.3996 Z" id="Path"></path>
                                <path d="M20.4,31.227 C20.0688,31.227 19.8,31.5096 19.8,31.8408 C19.8,31.9992 19.7796,32.1552 19.7394,32.3058 C19.6536,32.6256 19.8444,32.9544 20.1642,33.0402 C20.2158,33.054 20.268,33.0606 20.319,33.0606 C20.5842,33.0606 20.8266,32.8836 20.8986,32.6154 C20.9658,32.3646 21,32.1036 21,31.8414 L21,31.8132 C21,31.4814 20.7312,31.227 20.4,31.227 Z" id="Path"></path>
                                <path d="M17.106,33.4032 C16.9698,33.3252 16.8444,33.2298 16.7334,33.1194 C16.4982,32.8854 16.119,32.8878 15.885,33.1218 C15.651,33.357 15.6522,33.7368 15.8874,33.9702 C16.0734,34.155 16.2828,34.3146 16.5102,34.4448 C16.6044,34.4988 16.7064,34.524 16.8078,34.524 C17.016,34.524 17.2182,34.4154 17.3292,34.2222 C17.493,33.9348 17.3934,33.5682 17.106,33.4032 Z" id="Path"></path>
                                <path d="M17.2002,28.95 C16.9482,29.019 16.7058,29.1222 16.4802,29.2548 C16.1946,29.4228 16.0992,29.7906 16.2672,30.0762 C16.3794,30.2658 16.5798,30.372 16.785,30.372 C16.8882,30.372 16.9932,30.3456 17.0886,30.2892 C17.2242,30.2094 17.3688,30.1482 17.52,30.1062 C17.8392,30.0186 18.027,29.688 17.9388,29.3688 C17.85,29.0496 17.52,28.863 17.2002,28.95 Z" id="Path"></path>
                                <path d="M16.2,31.8414 C16.2,31.6866 16.2198,31.5336 16.2582,31.386 C16.3416,31.0656 16.1496,30.738 15.8286,30.654 C15.5076,30.5712 15.18,30.7626 15.0966,31.0836 C15.0324,31.3296 15,31.5846 15,31.854 L15.6,31.8552 L15,31.8552 C15,32.187 15.2682,32.448001 15.6,32.448001 C15.9318,32.4486 16.2,32.1732 16.2,31.8414 Z" id="Path"></path>
                                <circle id="Oval" cx="30" cy="16.8414" r="1"></circle>
                                <circle id="Oval" cx="27.6" cy="16.8414" r="1"></circle>
                                <circle id="Oval" cx="31.2" cy="18.6414" r="1"></circle>
                                <circle id="Oval" cx="28.8" cy="18.6414" r="1"></circle>
                                <circle id="Oval" cx="25.2" cy="16.8414" r="1"></circle>
                                <circle id="Oval" cx="26.4" cy="18.6414" r="1"></circle>
                                <circle id="Oval" cx="22.8" cy="16.8414" r="1"></circle>
                                <circle id="Oval" cx="24" cy="18.6414" r="1"></circle>
                                <circle id="Oval" cx="20.4" cy="16.8414" r="1"></circle>
                                <circle id="Oval" cx="21.6" cy="18.6414" r="1"></circle>
                                <path d="M13.2,31.2414 L12.6,31.2414 C12.2688,31.2414 12,31.5096 12,31.8414 C12,32.1732 12.2688,32.4414 12.6,32.4414 L13.2,32.4414 C13.5312,32.4414 13.8,32.1732 13.8,31.8414 C13.8,31.5096 13.5312,31.2414 13.2,31.2414 Z" id="Path"></path>
                                <path d="M8.4,31.2414 L7.8,31.2414 C7.4688,31.2414 7.2,31.5096 7.2,31.8414 C7.2,32.1732 7.4688,32.4414 7.8,32.4414 L8.4,32.4414 C8.7312,32.4414 9,32.1732 9,31.8414 C9,31.5096 8.7312,31.2414 8.4,31.2414 Z" id="Path"></path>
                                <path d="M10.8,31.2414 L10.2,31.2414 C9.8688,31.2414 9.6,31.5096 9.6,31.8414 C9.6,32.1732 9.8688,32.4414 10.2,32.4414 L10.8,32.4414 C11.1312,32.4414 11.4,32.1732 11.4,31.8414 C11.4,31.5096 11.1312,31.2414 10.8,31.2414 Z" id="Path"></path>
                                <path d="M1.2,31.2414 L0.6,31.2414 C0.2688,31.2414 0,31.5096 0,31.8414 C0,32.1732 0.2688,32.4414 0.6,32.4414 L1.2,32.4414 C1.5312,32.4414 1.8,32.1732 1.8,31.8414 C1.8,31.5096 1.5312,31.2414 1.2,31.2414 Z" id="Path"></path>
                                <path d="M3.6,31.2414 L3,31.2414 C2.6688,31.2414 2.4,31.5096 2.4,31.8414 C2.4,32.1732 2.6688,32.4414 3,32.4414 L3.6,32.4414 C3.9312,32.4414 4.2,32.1732 4.2,31.8414 C4.2,31.5096 3.9312,31.2414 3.6,31.2414 Z" id="Path"></path>
                                <path d="M6,31.2414 L5.4,31.2414 C5.0688,31.2414 4.8,31.5096 4.8,31.8414 C4.8,32.1732 5.0688,32.4414 5.4,32.4414 L6,32.4414 C6.3312,32.4414 6.6,32.1732 6.6,31.8414 C6.6,31.5096 6.3312,31.2414 6,31.2414 Z" id="Path"></path>
                                <path d="M23.4,31.2414 L22.8,31.2414 C22.4688,31.2414 22.2,31.5096 22.2,31.8414 C22.2,32.1732 22.4688,32.4414 22.8,32.4414 L23.4,32.4414 C23.7312,32.4414 24,32.1732 24,31.8414 C24,31.5096 23.7312,31.2414 23.4,31.2414 Z" id="Path"></path>
                                <path d="M28.2,31.2414 L27.6,31.2414 C27.2688,31.2414 27,31.5096 27,31.8414 C27,32.1732 27.2688,32.4414 27.6,32.4414 L28.2,32.4414 C28.5312,32.4414 28.8,32.1732 28.8,31.8414 C28.8,31.5096 28.5312,31.2414 28.2,31.2414 Z" id="Path"></path>
                                <path d="M25.8,31.2414 L25.2,31.2414 C24.8688,31.2414 24.6,31.5096 24.6,31.8414 C24.6,32.1732 24.8688,32.4414 25.2,32.4414 L25.8,32.4414 C26.1312,32.4414 26.4,32.1732 26.4,31.8414 C26.4,31.5096 26.1312,31.2414 25.8,31.2414 Z" id="Path"></path>
                                <path d="M35.4,31.2414 L34.8,31.2414 C34.4688,31.2414 34.2,31.5096 34.2,31.8414 C34.2,32.1732 34.4688,32.4414 34.8,32.4414 L35.4,32.4414 C35.7312,32.4414 36,32.1732 36,31.8414 C36,31.5096 35.7312,31.2414 35.4,31.2414 Z" id="Path"></path>
                                <path d="M30.6,31.2414 L30,31.2414 C29.6688,31.2414 29.4,31.5096 29.4,31.8414 C29.4,32.1732 29.6688,32.4414 30,32.4414 L30.6,32.4414 C30.9312,32.4414 31.2,32.1732 31.2,31.8414 C31.2,31.5096 30.9312,31.2414 30.6,31.2414 Z" id="Path"></path>
                                <path d="M33,31.2414 L32.4,31.2414 C32.0688,31.2414 31.8,31.5096 31.8,31.8414 C31.8,32.1732 32.0688,32.4414 32.4,32.4414 L33,32.4414 C33.3312,32.4414 33.6,32.1732 33.6,31.8414 C33.6,31.5096 33.3312,31.2414 33,31.2414 Z" id="Path"></path>
                                <path d="M18.6,27.6414 L18.6,27.0414 C18.6,26.7096 18.3312,26.4414 18,26.4414 C17.6688,26.4414 17.4,26.7096 17.4,27.0414 L17.4,27.6414 C17.4,27.9732 17.6688,28.2414 18,28.2414 C18.3312,28.2414 18.6,27.9732 18.6,27.6414 Z" id="Path"></path>
                                <path d="M17.4,24.6414 L17.4,25.2414 C17.4,25.5732 17.6688,25.8414 18,25.8414 C18.3312,25.8414 18.6,25.5732 18.6,25.2414 L18.6,24.6414 C18.6,24.3096 18.3312,24.0414 18,24.0414 C17.6688,24.0414 17.4,24.3096 17.4,24.6414 Z" id="Path"></path>
                            </g>
                        </g>
                    </g>
                </g>
            </g>
        </g>
    </g>
</svg>