<?xml version="1.0" encoding="UTF-8"?>
<svg width="19px" height="21px" viewBox="0 0 19 21" version="1.1" xmlns="http://www.w3.org/2000/svg" xmlns:xlink="http://www.w3.org/1999/xlink">
    <!-- Generator: Sketch 60 (88103) - https://sketch.com -->
    <title>database0</title>
    <desc>Created with Sketch.</desc>
    <g id="Page-1" stroke="none" stroke-width="1" fill="none" fill-rule="evenodd">
        <g id="3.1.1-Designer" transform="translate(-55.000000, -682.000000)" fill="#1B3E6F" fill-rule="nonzero">
            <g id="controller" transform="translate(0.000000, 60.000000)">
                <g id="functions" transform="translate(0.000000, 479.000000)">
                    <g id="list" transform="translate(8.000000, 51.000000)">
                        <g id="2" transform="translate(12.000000, 82.000000)">
                            <g id="txt" transform="translate(35.000000, 10.000000)">
                                <g id="database0">
                                    <path d="M18.831139,3.18252756 C18.3980759,1.57817465 15.1747851,0 9.53636343,0 C3.8979418,0 0.674276991,1.57817465 0.241587873,3.18252756 C0.21017397,3.23750189 0.186987518,3.29771187 0.186987518,3.36577533 L0.186987518,3.55276285 L0.186987518,7.85347576 L0.186987518,8.04046328 L0.186987518,8.2274508 L0.186987518,12.3411762 L0.186987518,12.5281637 L0.186987518,12.7151512 L0.186987518,17.2028517 C0.186987518,17.2634356 0.203068445,17.3206538 0.230742597,17.3715144 C0.672407115,19.2021222 4.62382735,20.568627 9.53636343,20.568627 C14.4376803,20.568627 18.3827429,19.2077318 18.8389925,17.3838556 C18.8689105,17.3303772 18.8857393,17.2686713 18.8857393,17.2028517 L18.8857393,12.7151512 L18.8857393,12.5281637 L18.8857393,12.3411762 L18.8857393,8.2274508 L18.8857393,8.04046328 L18.8857393,7.85347576 L18.8857393,3.55276285 L18.8857393,3.36577533 C18.8857393,3.29771187 18.8625529,3.23750189 18.831139,3.18252756 Z M18.1082452,12.7095416 C18.0977739,12.7547926 18.0831889,12.7996696 18.0648641,12.8452945 C18.0499051,12.8823181 18.0315804,12.9193416 18.0113857,12.9563651 C17.9863294,13.0023641 17.9582812,13.048363 17.9249975,13.0943619 C17.9003151,13.1291416 17.872267,13.1635473 17.8430969,13.197953 C17.8015857,13.2469437 17.7574567,13.2959345 17.707344,13.3445512 C17.677052,13.3740953 17.6437682,13.4032653 17.6101105,13.4328093 C17.5487786,13.4862878 17.4848289,13.5393922 17.4133996,13.5921227 C17.3827337,13.6149352 17.3498239,13.6369997 17.317288,13.6594382 C17.2327697,13.7177783 17.1445116,13.7757444 17.047652,13.8325886 C17.0222217,13.8479216 16.9949216,13.8625066 16.9683693,13.8774656 C16.8569248,13.9402935 16.7406185,14.0027473 16.6149629,14.0633312 C16.598882,14.0711847 16.5820531,14.0786642 16.5655982,14.0861437 C16.4253576,14.1523373 16.2787594,14.217409 16.1220638,14.2802368 C16.1175761,14.2821066 16.1130884,14.2836025 16.1086007,14.2854724 C15.2593034,14.6246678 14.1729059,14.9100107 12.9070004,15.0969982 C12.9006429,15.0977462 12.8942853,15.0984941 12.8879277,15.0996161 C12.6418521,15.1358916 12.389419,15.1680535 12.1302543,15.1964756 C12.0879951,15.2009633 12.0434921,15.2039551 12.0008589,15.2084428 C11.774604,15.2320032 11.5457313,15.2536938 11.310127,15.2708966 C11.2024222,15.2787501 11.0894818,15.2824899 10.9799071,15.2892214 C10.8026429,15.2996927 10.6272486,15.3112859 10.4454967,15.3176435 C10.1485606,15.3269929 9.84564078,15.3329765 9.53636343,15.3329765 C9.22708607,15.3329765 8.92416629,15.3269929 8.62685614,15.3165216 C8.44510427,15.310164 8.26970998,15.2981968 8.09244581,15.2880995 C7.98287113,15.2817419 7.86993067,15.2776282 7.76222585,15.2697747 C7.52662158,15.2525719 7.29774886,15.2308813 7.07149396,15.2073209 C7.02886081,15.2028332 6.98435778,15.1998414 6.9420986,15.1953537 C6.6829339,15.1669316 6.43050075,15.1343957 6.18442518,15.0984941 C6.1780676,15.0977462 6.17171003,15.0969982 6.16535245,15.0958763 C4.89944695,14.9088888 3.81304947,14.6235458 2.96375216,14.2843505 C2.95926446,14.2828546 2.95477676,14.2809847 2.95028906,14.2791148 C2.79359352,14.216287 2.64662133,14.1512154 2.50675467,14.0850218 C2.49067374,14.0771683 2.47347089,14.0696888 2.45738996,14.0622093 C2.33173435,14.0016254 2.21542812,13.9395455 2.10398355,13.8763437 C2.0778053,13.8613847 2.05013115,13.8467997 2.02470085,13.8314667 C1.92784131,13.7746225 1.8395832,13.7166564 1.75506485,13.6583163 C1.72290299,13.6358778 1.68961921,13.6138132 1.65895326,13.5910008 C1.58752403,13.5382703 1.5235743,13.4851658 1.46224239,13.4316874 C1.42895861,13.4025174 1.39530086,13.3733473 1.36500888,13.3434293 C1.31489623,13.2948125 1.27076717,13.2461958 1.22925594,13.1968311 C1.20008589,13.1624254 1.17203776,13.1280197 1.14735541,13.09324 C1.11444561,13.0472411 1.08639748,13.0012421 1.06096718,12.9552432 C1.04077253,12.9182197 1.02282172,12.8811962 1.00748875,12.8441726 C0.989163971,12.7989216 0.974578945,12.7536707 0.964107644,12.7084197 C0.950270567,12.6489577 0.934937591,12.5883737 0.934937591,12.5281637 C0.934937591,12.4859045 0.939799266,12.4436454 0.946530817,12.4017602 C0.955880193,12.3452899 0.950644542,12.2888197 0.934937591,12.2353413 L0.934937591,9.45895059 C0.945408892,9.46867395 0.958498018,9.47802332 0.969343294,9.48774667 C1.05086985,9.55954988 1.13389231,9.63097911 1.22738607,9.69979052 C2.63615003,10.7652454 5.45330398,11.5932261 9.53636343,11.5932261 C13.60222,11.5932261 16.4122684,10.7719769 17.827016,9.71287964 C17.9399565,9.63060514 18.0416777,9.5457128 18.1374153,9.45932457 L18.1377893,9.45895059 L18.1377893,12.2353413 C18.1220823,12.2888197 18.1168467,12.3452899 18.126196,12.4017602 C18.1333016,12.4436454 18.1377893,12.4859045 18.1377893,12.5281637 C18.1377893,12.5883737 18.1224563,12.6489577 18.1082452,12.7095416 Z M18.1377893,4.97125016 L18.1377893,7.74764083 C18.1220823,7.80111926 18.1168467,7.85758949 18.126196,7.91405972 C18.1333016,7.95594492 18.1377893,7.9982041 18.1377893,8.04046328 C18.1377893,8.10067326 18.1224563,8.16125722 18.1082452,8.22184117 C18.0977739,8.26709215 18.0831889,8.31196916 18.0648641,8.35759411 C18.0499051,8.39461764 18.0315804,8.43164117 18.0113857,8.4686647 C17.9863294,8.51466363 17.9582812,8.56066256 17.9249975,8.60666149 C17.9003151,8.64144117 17.872267,8.67584687 17.8430969,8.71025257 C17.8015857,8.7592433 17.7574567,8.80823403 17.707344,8.85685079 C17.677052,8.88639481 17.6437682,8.91556487 17.6101105,8.94510889 C17.5487786,8.99858732 17.4848289,9.05169178 17.4133996,9.10442226 C17.3827337,9.12723474 17.3498239,9.14929926 17.317288,9.17173777 C17.2327697,9.23007787 17.1445116,9.288044 17.047652,9.34488821 C17.0222217,9.36022119 16.9949216,9.37480621 16.9683693,9.38976521 C16.8569248,9.45259302 16.7406185,9.51504685 16.6149629,9.57563081 C16.598882,9.58348428 16.5820531,9.59096378 16.5655982,9.59844328 C16.4253576,9.66463686 16.2787594,9.72970852 16.1220638,9.79253633 C16.1175761,9.7944062 16.1130884,9.7959021 16.1086007,9.79777198 C15.2593034,10.1369673 14.1729059,10.4223103 12.9070004,10.6092978 C12.9006429,10.6100458 12.8942853,10.6107937 12.8879277,10.6119156 C12.6418521,10.6481912 12.389419,10.6803531 12.1302543,10.7087752 C12.0879951,10.7132629 12.0434921,10.7162547 12.0008589,10.7207424 C11.774604,10.7443028 11.5457313,10.7659933 11.310127,10.7831962 C11.2024222,10.7910497 11.0894818,10.7947894 10.9799071,10.801521 C10.8026429,10.8119923 10.6272486,10.8235855 10.4454967,10.8299431 C10.1485606,10.8392925 9.84564078,10.8452761 9.53636343,10.8452761 C9.22708607,10.8452761 8.92416629,10.8392925 8.62685614,10.8288212 C8.44510427,10.8224636 8.26970998,10.8104964 8.09244581,10.8003991 C7.98287113,10.7940415 7.86993067,10.7899277 7.76222585,10.7820743 C7.52662158,10.7648714 7.29774886,10.7431809 7.07149396,10.7196204 C7.02886081,10.7151327 6.98435778,10.7121409 6.9420986,10.7076532 C6.6829339,10.6792311 6.43050075,10.6466953 6.18442518,10.6107937 C6.1780676,10.6100458 6.17171003,10.6092978 6.16535245,10.6081759 C4.89944695,10.4211884 3.81304947,10.1358454 2.96375216,9.79665005 C2.95926446,9.79515415 2.95477676,9.79328428 2.95028906,9.7914144 C2.79359352,9.7285866 2.64662133,9.66351494 2.50675467,9.59732136 C2.49067374,9.58946788 2.47347089,9.58198838 2.45738996,9.57450888 C2.33173435,9.51392493 2.21542812,9.45184507 2.10398355,9.38864329 C2.0778053,9.37368429 2.05013115,9.35909926 2.02470085,9.34376628 C1.92784131,9.28692208 1.8395832,9.22895595 1.75506485,9.17061584 C1.72290299,9.14817734 1.68961921,9.12611281 1.65895326,9.10330034 C1.58752403,9.05056986 1.5235743,8.9974654 1.46224239,8.94398697 C1.42895861,8.91481692 1.39530086,8.88564686 1.36500888,8.85572886 C1.31489623,8.80711211 1.27076717,8.75849535 1.22925594,8.70913065 C1.20008589,8.67472494 1.17203776,8.64031924 1.14735541,8.60553956 C1.11444561,8.55954063 1.08639748,8.5135417 1.06096718,8.46754277 C1.04077253,8.43051924 1.02282172,8.39349572 1.00748875,8.35647219 C0.989163971,8.31122121 0.974578945,8.26597023 0.964107644,8.22071925 C0.950270567,8.16125722 0.934937591,8.10067326 0.934937591,8.04046328 C0.934937591,7.9982041 0.939799266,7.95594492 0.946530817,7.91405972 C0.955880193,7.85758949 0.950644542,7.80111926 0.934937591,7.74764083 L0.934937591,4.97125016 C0.979814595,5.01201344 1.03104918,5.05202877 1.07966593,5.09241807 C1.10659213,5.11485657 1.13164846,5.13729507 1.16007056,5.15973358 C1.27226307,5.24799169 1.39343099,5.33512787 1.52469622,5.4200202 C1.5519964,5.43759703 1.58266235,5.45479988 1.61108446,5.47237671 C1.72103312,5.54081414 1.83733935,5.60775567 1.95962919,5.67357528 C2.00488017,5.69788365 2.05013115,5.72181806 2.09687803,5.74575246 C2.23337892,5.81531182 2.37661136,5.8830013 2.5273233,5.94844693 C2.55200565,5.9592922 2.57444415,5.97051146 2.59950048,5.98098276 C2.77489477,6.05540379 2.96113434,6.12645905 3.15485341,6.19527045 C3.20833184,6.21434318 3.26442809,6.23229398 3.31940242,6.25099273 C3.47348014,6.30297526 3.6327935,6.35271394 3.79771649,6.40095672 C3.85717853,6.41815957 3.91551863,6.43611038 3.97647656,6.45256528 C4.19525196,6.51314923 4.42113288,6.57074139 4.65823305,6.62384584 C4.69076888,6.63132534 4.72592253,6.63730895 4.75883234,6.64441447 C4.96788438,6.69003943 5.1847899,6.7322986 5.40767903,6.77193996 C5.48322198,6.78540306 5.55988687,6.79811821 5.63692572,6.81083336 C5.84896957,6.84561304 6.06737099,6.87740092 6.29138204,6.90657097 C6.34897419,6.91405047 6.40394852,6.9226519 6.46228863,6.92975742 C6.74052606,6.96341518 7.02848683,6.99221125 7.32430109,7.01689361 C7.39722622,7.02287721 7.47314315,7.02736491 7.54719021,7.03260056 C7.78391641,7.04980341 8.02587826,7.06401446 8.27344973,7.07523371 C8.36357771,7.07934744 8.45333172,7.08346116 8.54532958,7.08682694 C8.86769606,7.09767222 9.19604614,7.10552569 9.53636343,7.10552569 C9.87668071,7.10552569 10.2050308,7.09767222 10.5273973,7.08682694 C10.6190212,7.08346116 10.7087752,7.07934744 10.7992771,7.07523371 C11.0468486,7.06401446 11.2888104,7.04980341 11.5255366,7.03260056 C11.5995837,7.02699093 11.6751267,7.02287721 11.7484258,7.01689361 C12.04424,6.99258523 12.3322008,6.96341518 12.6104382,6.92975742 C12.6687783,6.9226519 12.7237527,6.91405047 12.7813448,6.90657097 C13.0053559,6.87740092 13.2233833,6.84561304 13.4358011,6.81083336 C13.51284,6.79811821 13.5895049,6.78540306 13.6650478,6.77193996 C13.887937,6.7322986 14.1048425,6.69003943 14.3138945,6.64441447 C14.3468043,6.63730895 14.381958,6.63095137 14.4144938,6.62384584 C14.651594,6.57074139 14.8774749,6.51277526 15.0962503,6.45256528 C15.1572082,6.4357364 15.2155483,6.41815957 15.2750104,6.40095672 C15.4399334,6.35271394 15.5992467,6.30297526 15.7533244,6.25099273 C15.8082988,6.23229398 15.864395,6.21434318 15.9178734,6.19527045 C16.1115925,6.12645905 16.2982061,6.05540379 16.4732264,5.98098276 C16.4982827,5.97051146 16.5207212,5.9592922 16.5454036,5.94844693 C16.6961155,5.88262732 16.8393479,5.81531182 16.9758488,5.74575246 C17.0225957,5.72181806 17.0682207,5.69788365 17.1130977,5.67357528 C17.2353875,5.60812965 17.3516937,5.54118811 17.4616424,5.47237671 C17.4900645,5.45479988 17.5207305,5.43759703 17.5480306,5.4200202 C17.6792959,5.33512787 17.8004638,5.24836566 17.9126563,5.15973358 C17.9407044,5.13729507 17.9657607,5.11485657 17.9930609,5.09241807 C18.0416777,5.05202877 18.0929123,5.01201344 18.1377893,4.97125016 Z M9.53636343,0.747950073 C14.605595,0.747950073 18.1377893,2.22589942 18.1377893,3.55276285 C18.1377893,4.87962627 14.605595,6.35757562 9.53636343,6.35757562 C4.46713181,6.35757562 0.934937591,4.87962627 0.934937591,3.55276285 C0.934937591,2.22589942 4.46713181,0.747950073 9.53636343,0.747950073 Z M18.1377893,17.0917811 C18.1325536,17.108236 18.1288139,17.1250649 18.1258221,17.1422677 C17.9137782,18.4358474 14.411502,19.8206769 9.53636343,19.8206769 C4.66122485,19.8206769 1.15894864,18.4358474 0.946904792,17.1422677 C0.943912992,17.1254388 0.939799266,17.1089839 0.934937591,17.093277 L0.934937591,13.946651 C0.945408892,13.9563744 0.958498018,13.9657238 0.969343294,13.9754471 C1.05086985,14.0472503 1.13389231,14.1186795 1.22738607,14.187491 C2.63615003,15.2529458 5.45330398,16.0809266 9.53636343,16.0809266 C13.60222,16.0809266 16.4122684,15.2596774 17.827016,14.2005801 C17.9399565,14.1183056 18.0416777,14.0334132 18.1374153,13.947025 L18.1377893,13.946651 L18.1377893,17.0917811 Z" id="Shape"></path>
                                </g>
                            </g>
                        </g>
                    </g>
                </g>
            </g>
        </g>
    </g>
</svg>