<?xml version="1.0" encoding="UTF-8"?>
<svg width="20px" height="20px" viewBox="0 0 20 20" version="1.1" xmlns="http://www.w3.org/2000/svg" xmlns:xlink="http://www.w3.org/1999/xlink">
    <!-- Generator: Sketch 60 (88103) - https://sketch.com -->
    <title>Shape</title>
    <desc>Created with Sketch.</desc>
    <g id="Page-1" stroke="none" stroke-width="1" fill="none" fill-rule="evenodd">
        <g id="3.1.1-Designer" transform="translate(-1400.000000, -199.000000)" fill="#103D73" fill-rule="nonzero">
            <g id="action-attributes" transform="translate(1044.000000, 60.000000)">
                <g id="actions" transform="translate(36.000000, 0.000000)">
                    <g id="STEPS" transform="translate(0.000000, 131.000000)">
                        <g id="title">
                            <path d="M330,8 C324.476863,8 320,12.4768627 320,18 C320,23.5231373 324.476863,28 330,28 C335.523137,28 340,23.5224837 340,18 C340,12.4775163 335.523137,8 330,8 Z M330,26.75 C325.167484,26.75 321.25,22.8325163 321.25,18 C321.25,13.1674837 325.167484,9.25 330,9.25 C334.832516,9.25 338.75,13.1674837 338.75,18 C338.75,22.8325163 334.832516,26.75 330,26.75 Z M333.75,17.375 L330.625,17.375 L330.625,14.25 C330.625,13.905 330.345,13.625 330,13.625 C329.655,13.625 329.375,13.905 329.375,14.25 L329.375,17.375 L326.25,17.375 C325.905,17.375 325.625,17.655 325.625,18 C325.625,18.345 325.905,18.625 326.25,18.625 L329.375,18.625 L329.375,21.75 C329.375,22.095 329.655,22.375 330,22.375 C330.345,22.375 330.625,22.095 330.625,21.75 L330.625,18.625 L333.75,18.625 C334.095,18.625 334.375,18.345 334.375,18 C334.375,17.655 334.095,17.375 333.75,17.375 Z" id="Shape"></path>
                        </g>
                    </g>
                </g>
            </g>
        </g>
    </g>
</svg>