<?xml version="1.0" encoding="UTF-8"?>
<svg width="36px" height="36px" viewBox="0 0 36 36" version="1.1" xmlns="http://www.w3.org/2000/svg" xmlns:xlink="http://www.w3.org/1999/xlink">
    <!-- Generator: Sketch 60 (88103) - https://sketch.com -->
    <title>browser</title>
    <desc>Created with Sketch.</desc>
    <g id="Page-1" stroke="none" stroke-width="1" fill="none" fill-rule="evenodd">
        <g id="3.1.1-Designer" transform="translate(-535.000000, -232.000000)" fill="#FFFFFF" fill-rule="nonzero">
            <g id="workflow-container" transform="translate(401.000000, 137.000000)">
                <g id="component" transform="translate(30.000000, 70.000000)">
                    <g id="config-assign">
                        <g id="Group-4" transform="translate(37.000000, 25.000000)">
                            <g id="browser" transform="translate(67.000000, 0.000000)">
                                <path d="M36.0000088,0.669160525 C35.9991062,0.509169737 35.9341565,0.356329449 35.8194518,0.244604059 C35.7044492,0.133176661 35.5498212,0.0726959746 35.3898305,0.0763677445 L0.610169492,0.0763677445 C0.45017878,0.0723980441 0.295252932,0.133176661 0.180548237,0.244604059 C0.0658434661,0.356031534 0.000595868644,0.509169737 -8.80825691e-06,0.669160525 L-8.80825691e-06,29.4171411 C-0.00178760593,29.7585739 0.268736797,30.0398239 0.610169492,30.0511454 L8.97407969,30.0511454 L9.26665124,30.7077926 C9.3712262,30.9434587 9.61344679,31.0870631 9.87056405,31.0656118 L11.095968,30.9726563 C11.5541909,31.5417108 12.0857058,32.0476033 12.6768074,32.4769267 L12.6407574,33.6990532 C12.6333091,33.9576602 12.7897246,34.1930284 13.0310513,34.2859839 L15.6341036,35.2909163 C15.8745365,35.3835739 16.1474444,35.315347 16.3157773,35.1199021 L17.1103682,34.198987 C17.8364341,34.2666182 18.5675649,34.2478483 19.2891618,34.1423795 L20.1397643,35.0296279 C20.3170352,35.2143472 20.590241,35.2688691 20.8247153,35.1663797 L23.3821835,34.0473385 C23.6190413,33.9436573 23.7650292,33.7017347 23.7459614,33.4437235 L23.6559852,32.2183197 C24.2256356,31.7600966 24.7321239,31.2282839 25.1617453,30.6368843 L26.3847656,30.6729343 C26.641585,30.6866393 26.8784428,30.534097 26.9719941,30.2945577 L27.0706104,30.0511454 L35.3898305,30.0511454 C35.7312632,30.0395259 36.0017876,29.7585739 36.0000088,29.4171411 L36.0000088,7.13761253 C36.0000088,7.13552705 36.0000088,7.13373941 36.0000088,7.13165385 C36.0000088,7.12956829 36.0000088,7.12778072 36.0000088,7.12569516 L36.0000088,0.669160525 Z M34.779661,1.29690808 L34.779661,6.55961995 L1.22033898,6.55961995 L1.22033898,1.29690808 L34.779661,1.29690808 Z M24.867982,29.4073093 C24.6576403,29.4004568 24.4586203,29.5032441 24.3424258,29.6787275 C23.8883739,30.3604012 23.3193194,30.9580574 22.6605866,31.4448822 C22.4922537,31.5691208 22.3995962,31.7714182 22.4147907,31.9799722 L22.4973186,33.1019928 L20.7258011,33.87692 L19.9478946,33.0656449 C19.8060779,32.9175715 19.5993114,32.8508343 19.3976099,32.887778 C18.5857389,33.0364473 17.7556939,33.0578986 16.9372683,32.9512381 C16.7337792,32.924722 16.5305879,33.0024828 16.3968154,33.1577066 L15.672835,33.9966896 L13.8736097,33.3028006 L13.9066803,32.1813758 C13.9129369,31.9713321 13.8101496,31.7726099 13.6352622,31.6558197 C12.9535885,31.2017678 12.3559322,30.6327132 11.8691076,29.9739804 C11.744571,29.8059454 11.5425715,29.7132879 11.3340174,29.7284826 L10.2116989,29.8107124 L9.97037207,29.259236 C9.95458157,29.199947 9.929853,29.1430416 9.89678227,29.090903 L9.43677168,28.0391949 L10.2480469,27.2612884 C10.3961203,27.1194716 10.4628576,26.9127053 10.4259136,26.7113017 C10.2772445,25.8994306 10.2557932,25.0693856 10.3624536,24.25096 C10.3886719,24.0474708 10.3112089,23.8442797 10.1559852,23.7102093 L9.31700212,22.9862288 L10.0108911,21.1870034 L11.1323159,21.2200742 C11.3426576,21.2269267 11.5416777,21.1241393 11.6578721,20.948656 C12.111924,20.2666843 12.6809786,19.669028 13.3397114,19.1825013 C13.5080442,19.0579648 13.6007018,18.8559653 13.5855072,18.6471133 L13.5029793,17.5250927 L15.2744968,16.7501655 L16.0527013,17.5614407 C16.194518,17.709514 16.4012844,17.7762513 16.6026881,17.7393074 C17.414857,17.5906382 18.2449021,17.5691869 19.0633276,17.6758475 C19.2668167,17.7020657 19.470008,17.6246028 19.6040784,17.469379 L20.3280588,16.6303959 L22.1272841,17.324285 L22.0942135,18.4454118 C22.0879568,18.6557534 22.1904462,18.8544756 22.3656316,18.9712659 C23.0473053,19.4250199 23.6449616,19.9943724 24.1314883,20.6531051 C24.2560249,20.8211401 24.4580244,20.9137977 24.6665784,20.898603 L25.7885991,20.8160752 L26.5638242,22.5875927 L25.7522511,23.3654992 C25.6044756,23.5073159 25.5377383,23.7140824 25.5743843,23.915486 C25.7230535,24.727357 25.7445047,25.5574021 25.6381422,26.3758276 C25.6116261,26.5793167 25.689089,26.782508 25.8446107,26.9165784 L26.6835937,27.6405588 L25.9891089,29.4397841 L24.867982,29.4073093 Z M27.5416446,28.8308064 L27.9763308,27.6915055 C28.0689883,27.449285 28.0010593,27.1748875 27.8056144,27.0038731 L26.8846994,26.206303 C26.9526284,25.4799391 26.9338585,24.7479144 26.8283898,24.0260196 L27.7156382,23.1745233 C27.9000596,22.9972524 27.9545816,22.7237487 27.8520922,22.4892744 L26.7333488,19.9318061 C26.6296676,19.6946504 26.3877449,19.5486626 26.1297339,19.5677304 L24.904032,19.6577066 C24.446107,19.0880561 23.9148901,18.5815678 23.3237884,18.1516486 L23.3598385,16.9286282 C23.3672868,16.6700212 23.2108713,16.434653 22.9695445,16.3413996 L20.3664923,15.3367651 C20.1260593,15.2441076 19.8531515,15.3123345 19.6848186,15.5074814 L18.8899298,16.4289923 C18.1638639,16.3610633 17.4324351,16.3798331 16.7108382,16.4853019 L15.8602357,15.5977555 C15.6832627,15.4130363 15.409759,15.3585143 15.1752847,15.4610037 L12.6178165,16.5797471 C12.3809587,16.6834282 12.2349708,16.9256488 12.2540386,17.18366 L12.3440148,18.4090638 C11.7743644,18.8672868 11.268174,19.3990996 10.8382547,19.9902013 L9.61523436,19.9544492 C9.35632945,19.946107 9.12066338,20.1025225 9.02800586,20.3444452 L8.02366925,22.9474974 C7.93101165,23.1879303 7.99923859,23.4608382 8.19438559,23.6291711 L9.11559852,24.4240598 C9.04766949,25.1498279 9.06643937,25.8812566 9.17190808,26.6025556 L8.28495763,27.453456 C8.09994043,27.635196 8.04571635,27.9119769 8.14820575,28.1503244 L8.44018139,28.8308064 L1.22033898,28.8308064 L1.22033898,7.77995893 L34.779661,7.77995893 L34.779661,28.8308064 L27.5416446,28.8308064 Z" id="Shape"></path>
                                <path d="M7.87946903,5.82521186 C8.90168171,5.82521186 9.73351434,4.96626719 9.73351434,3.91038796 C9.73351434,2.85450872 8.90197963,1.99586204 7.87946903,1.99586204 C6.85695844,1.99586204 6.02542373,2.85450872 6.02542373,3.91038796 C6.02542373,4.96626719 6.85725636,5.82521186 7.87946903,5.82521186 Z M7.87946903,3.21590303 C8.22894597,3.21590303 8.51317536,3.52754237 8.51317536,3.91009004 C8.51317536,4.29263771 8.22894597,4.60457497 7.87946903,4.60457497 C7.53029001,4.60457497 7.24576271,4.29323354 7.24576271,3.91038796 C7.24576271,3.52754237 7.53029001,3.21590303 7.87946903,3.21590303 Z" id="Shape"></path>
                                <path d="M11.921246,5.82521186 C12.9431608,5.82521186 13.7749934,4.96626719 13.7749934,3.91038796 C13.7749934,2.85450872 12.9437566,1.99586204 11.921246,1.99586204 C10.8987354,1.99586204 10.0677966,2.85450872 10.0677966,3.91038796 C10.0677966,4.96626719 10.8990334,5.82521186 11.921246,5.82521186 Z M11.921246,3.21590303 C12.270425,3.21590303 12.5546544,3.52754237 12.5546544,3.91009004 C12.5546544,4.29263771 12.270425,4.60457497 11.921246,4.60457497 C11.5717691,4.60457497 11.2881356,4.29323354 11.2881356,3.91038796 C11.2881356,3.52754237 11.572067,3.21590303 11.921246,3.21590303 Z" id="Shape"></path>
                                <path d="M3.83769198,5.82521186 C4.85990466,5.82521186 5.69173729,4.96626719 5.69173729,3.91038796 C5.69173729,2.85450872 4.86020258,1.99586204 3.83769198,1.99586204 C2.81518139,1.99586204 1.98394467,2.85480671 1.98394467,3.91038796 C1.98394467,4.96596928 2.81547931,5.82521186 3.83769198,5.82521186 Z M3.83769198,3.21590303 C4.18687101,3.21590303 4.47139831,3.52754237 4.47139831,3.91009004 C4.47139831,4.29263771 4.18687101,4.60457497 3.83769198,4.60457497 C3.48851296,4.60457497 3.20428365,4.29293563 3.20428365,3.91009004 C3.20428365,3.52694654 3.48851296,3.21590303 3.83769198,3.21590303 Z" id="Shape"></path>
                                <path d="M18,19.4428959 C14.7578787,19.4428959 12.1295021,22.0712725 12.1295021,25.3136917 C12.1295021,28.5558131 14.7578787,31.1841896 18,31.1841896 C21.2421213,31.1841896 23.8704979,28.5558131 23.8704979,25.3136917 C23.8669227,22.0727622 21.2406316,19.4467691 18,19.4428959 Z M18,29.9638506 C15.4318061,29.9638506 13.3498411,27.8818856 13.3498411,25.3136917 C13.3498411,22.7452 15.4318061,20.6632349 18,20.6632349 C20.5681939,20.6632349 22.6501589,22.7452 22.6501589,25.3136917 C22.6474775,27.8806939 20.5670021,29.9608713 18,29.9638506 Z" id="Shape"></path>
                                <path d="M18,22.3811242 C16.380429,22.3811242 15.0674324,23.6941208 15.0674324,25.3136917 C15.0674324,26.9329648 16.380429,28.2459614 18,28.2459614 C19.619571,28.2459614 20.9322696,26.9332627 20.9322696,25.3136917 C20.930482,23.6950146 19.6186772,22.3832097 18,22.3811242 L18,22.3811242 Z M18,27.0256224 C17.0543564,27.0256224 16.2877714,26.2590373 16.2877714,25.3136917 C16.2877714,24.3680482 17.0543564,23.6014632 18,23.6014632 C18.9456436,23.6014632 19.7119306,24.3680482 19.7119306,25.3136917 C19.7110368,26.2587394 18.9450477,27.0244306 18,27.0256224 L18,27.0256224 Z" id="Shape"></path>
                            </g>
                        </g>
                    </g>
                </g>
            </g>
        </g>
    </g>
</svg>