<?xml version="1.0" encoding="UTF-8"?>
<svg width="94px" height="62px" viewBox="0 0 94 62" version="1.1" xmlns="http://www.w3.org/2000/svg" xmlns:xlink="http://www.w3.org/1999/xlink">
    <!-- Generator: Sketch 59.1 (86144) - https://sketch.com -->
    <title>icon</title>
    <desc>Created with Sketch.</desc>
    <defs>
        <filter x="-4.4%" y="-6.9%" width="108.9%" height="113.8%" filterUnits="objectBoundingBox" id="filter-1">
            <feOffset dx="0" dy="0" in="SourceAlpha" result="shadowOffsetOuter1"></feOffset>
            <feGaussianBlur stdDeviation="1" in="shadowOffsetOuter1" result="shadowBlurOuter1"></feGaussianBlur>
            <feColorMatrix values="0 0 0 0 0.105882353   0 0 0 0 0.243137255   0 0 0 0 0.435294118  0 0 0 0.4 0" type="matrix" in="shadowBlurOuter1" result="shadowMatrixOuter1"></feColorMatrix>
            <feMerge>
                <feMergeNode in="shadowMatrixOuter1"></feMergeNode>
                <feMergeNode in="SourceGraphic"></feMergeNode>
            </feMerge>
        </filter>
    </defs>
    <g id="Page-1" stroke="none" stroke-width="1" fill="none" fill-rule="evenodd">
        <g id="1.1.2-Packages-List---Actions-menu" transform="translate(-192.000000, -230.000000)">
            <g id="Tab-content" transform="translate(80.000000, 155.000000)">
                <g id="cards" transform="translate(0.000000, 48.000000)">
                    <g id="row-1">
                        <g id="Add">
                            <g id="icon" filter="url(#filter-1)" transform="translate(114.000000, 29.000000)">
                                <g id="head">
                                    <path d="M4,0 L86,0 C88.209139,-4.05812251e-16 90,1.790861 90,4 L90,6.3 L90,6.3 L0,6.3 L0,4 C-2.705415e-16,1.790861 1.790861,4.05812251e-16 4,0 Z" id="Rectangle" fill="#1B3E6F"></path>
                                    <rect id="Rectangle" fill="#FFFFFF" x="3.5" y="2.1" width="2.1" height="2.1"></rect>
                                    <rect id="Rectangle" fill="#FFFFFF" x="7.7" y="2.1" width="2.1" height="2.1"></rect>
                                    <rect id="Rectangle" fill="#FFFFFF" x="11.9" y="2.1" width="2.1" height="2.1"></rect>
                                </g>
                                <g id="body" transform="translate(0.000000, 8.400000)">
                                    <path d="M0,0 L90,0 L90,45 C90,47.209139 88.209139,49 86,49 L4,49 C1.790861,49 2.705415e-16,47.209139 0,45 L0,0 L0,0 Z" id="Rectangle" fill="#FFFFFF"></path>
                                    <g id="editor" transform="translate(14.000000, 11.000000)" fill-rule="nonzero">
                                        <g id="left" transform="translate(0.015948, 0.099618)">
                                            <path d="M1.02021698,24.4840519 L4.08075236,24.4840519 C4.64413679,24.4840519 5.10096934,24.0272193 5.10096934,23.4638349 L5.10096934,1.02021698 C5.10096934,0.456832547 4.64413679,-1.0658141e-14 4.08075236,-1.0658141e-14 L1.02021698,-1.0658141e-14 C0.456832547,-1.0658141e-14 1.64313008e-14,0.456832547 1.64313008e-14,1.02021698 L1.64313008e-14,23.4639505 C1.64313008e-14,24.0273349 0.456716981,24.4840519 1.02021698,24.4840519 Z M2.0403184,2.0403184 L3.06053538,2.0403184 C3.62391981,2.0403184 4.08075236,2.49715094 4.08075236,3.06053538 C4.08075236,3.62391981 3.62391981,4.08075236 3.06053538,4.08075236 L2.0403184,4.08075236 C1.47693396,4.08075236 1.02010142,3.62391981 1.02010142,3.06053538 C1.02021698,2.49715094 1.47693396,2.0403184 2.0403184,2.0403184 Z M2.0403184,5.10085377 L3.06053538,5.10085377 C3.62391981,5.10085377 4.08075236,5.55768632 4.08075236,6.12107075 C4.08075236,6.68445519 3.62391981,7.14128774 3.06053538,7.14128774 L2.0403184,7.14128774 C1.47693396,7.14128774 1.02010142,6.68445519 1.02010142,6.12107075 C1.02021698,5.55768632 1.47693396,5.10085377 2.0403184,5.10085377 Z M2.0403184,8.16138915 L3.06053538,8.16138915 C3.62391981,8.16138915 4.08075236,8.6182217 4.08075236,9.18160613 C4.08075236,9.74499057 3.62391981,10.2018231 3.06053538,10.2018231 L2.0403184,10.2018231 C1.47693396,10.2018231 1.02010142,9.74499057 1.02010142,9.18160613 C1.02010142,8.6182217 1.47693396,8.16138915 2.0403184,8.16138915 Z M2.0403184,11.2219245 L3.06053538,11.2219245 C3.62391981,11.2219245 4.08075236,11.6787571 4.08075236,12.2421415 C4.08075236,12.8055259 3.62391981,13.2623585 3.06053538,13.2623585 L2.0403184,13.2623585 C1.47693396,13.2623585 1.02010142,12.8055259 1.02010142,12.2421415 C1.02010142,11.6787571 1.47693396,11.2219245 2.0403184,11.2219245 Z M2.0403184,14.2823443 L3.06053538,14.2823443 C3.62391981,14.2823443 4.08075236,14.7391769 4.08075236,15.3025613 C4.08075236,15.8659458 3.62391981,16.3227783 3.06053538,16.3227783 L2.0403184,16.3227783 C1.47693396,16.3227783 1.02010142,15.8659458 1.02010142,15.3025613 C1.02010142,14.7391769 1.47693396,14.2823443 2.0403184,14.2823443 Z M1.02021698,19.3831981 C1.02021698,18.8198137 1.47704953,18.3629811 2.04043396,18.3629811 L3.06065094,18.3629811 C3.62403538,18.3629811 4.08086792,18.8198137 4.08086792,19.3831981 L4.08086792,21.4235165 C4.08086792,21.9869009 3.62403538,22.4437335 3.06065094,22.4437335 L2.04043396,22.4437335 C1.47704953,22.4437335 1.02021698,21.9869009 1.02021698,21.4235165 L1.02021698,19.3831981 L1.02021698,19.3831981 Z" id="Shape" fill="#BEC8DC"></path>
                                            <path d="M2.0403184,4.08063679 L3.06053538,4.08063679 C3.62391981,4.08063679 4.08075236,3.62380425 4.08075236,3.06041981 C4.08075236,2.49703538 3.62391981,2.04020283 3.06053538,2.04020283 L2.0403184,2.04020283 C1.47693396,2.04020283 1.02010142,2.49703538 1.02010142,3.06041981 C1.02021698,3.62391981 1.47693396,4.08063679 2.0403184,4.08063679 Z" id="Path" fill="#E4EAF6"></path>
                                            <path d="M2.0403184,7.14117217 L3.06053538,7.14117217 C3.62391981,7.14117217 4.08075236,6.68433962 4.08075236,6.12095519 C4.08075236,5.55757075 3.62391981,5.10073821 3.06053538,5.10073821 L2.0403184,5.10073821 C1.47693396,5.10073821 1.02010142,5.55757075 1.02010142,6.12095519 C1.02021698,6.68445519 1.47693396,7.14117217 2.0403184,7.14117217 Z" id="Path" fill="#96A5B9"></path>
                                            <g id="Group" transform="translate(0.908580, 8.105571)" fill="#E4EAF6">
                                                <path d="M1.13173821,2.09613679 L2.15195519,2.09613679 C2.71533962,2.09613679 3.17217217,1.63930425 3.17217217,1.07591981 C3.17217217,0.512535377 2.71533962,0.0557028302 2.15195519,0.0557028302 L1.13173821,0.0557028302 C0.568353774,0.0557028302 0.111521226,0.512535377 0.111521226,1.07591981 C0.111521226,1.63930425 0.568353774,2.09613679 1.13173821,2.09613679 Z" id="Path"></path>
                                                <path d="M1.13173821,5.15667217 L2.15195519,5.15667217 C2.71533962,5.15667217 3.17217217,4.69983962 3.17217217,4.13645519 C3.17217217,3.57307075 2.71533962,3.11623821 2.15195519,3.11623821 L1.13173821,3.11623821 C0.568353774,3.11623821 0.111521226,3.57307075 0.111521226,4.13645519 C0.111521226,4.69983962 0.568353774,5.15667217 1.13173821,5.15667217 Z" id="Path"></path>
                                                <path d="M1.13173821,8.21709198 L2.15195519,8.21709198 C2.71533962,8.21709198 3.17217217,7.76025943 3.17217217,7.196875 C3.17217217,6.63349057 2.71533962,6.17665802 2.15195519,6.17665802 L1.13173821,6.17665802 C0.568353774,6.17665802 0.111521226,6.63349057 0.111521226,7.196875 C0.111521226,7.76025943 0.568353774,8.21709198 1.13173821,8.21709198 Z" id="Path"></path>
                                            </g>
                                            <path d="M2.0403184,22.4437335 L3.06053538,22.4437335 C3.62391981,22.4437335 4.08075236,21.9869009 4.08075236,21.4235165 L4.08075236,19.3831981 C4.08075236,18.8198137 3.62391981,18.3629811 3.06053538,18.3629811 L2.0403184,18.3629811 C1.47693396,18.3629811 1.02010142,18.8198137 1.02010142,19.3831981 L1.02010142,21.4235165 C1.02021698,21.9869009 1.4768184,22.4437335 2.0403184,22.4437335 Z" id="Path" fill="#96A5B9"></path>
                                        </g>
                                        <g id="center" transform="translate(15.197439, 0.099618)">
                                            <path d="M1.02010144,13.2622429 L8.6713821,13.2622429 L8.6713821,11.2219245 L2.04020285,11.2219245 L2.04020285,2.04043396 L11.2216934,2.04043396 L11.2216934,8.67149764 C11.5036746,8.67149764 11.7318019,8.899625 11.7318019,9.18160613 C11.7318019,9.46358726 11.5036746,9.69171462 11.2216934,9.69171462 L11.2216934,11.2219245 L9.69148351,11.2219245 L9.69148351,13.2622429 L12.2419104,13.2622429 C12.2564717,13.2622429 12.2705708,13.2607406 12.2850165,13.2600472 L12.2931062,12.6469693 C12.2977288,12.2954175 12.7138821,12.1128231 12.9757547,12.3473066 L13.211625,12.5585613 C13.2440991,12.4588278 13.2622429,12.3526226 13.2622429,12.2420259 L13.2622429,9.69159906 C12.9802618,9.69159906 12.7521345,9.4634717 12.7521345,9.18149057 C12.7521345,8.89950943 12.9802618,8.67138208 13.2622429,8.67138208 L13.2622429,1.02021698 C13.2622429,0.456370283 12.8054104,2.22044605e-14 12.242026,2.22044605e-14 L1.020217,2.22044605e-14 C0.456832569,2.22044605e-14 1.24344979e-14,0.456254717 1.24344979e-14,1.02021698 L1.24344979e-14,12.2420259 C1.24344979e-14,12.8059882 0.456717003,13.2622429 1.02010144,13.2622429 Z" id="Path" fill="#FF6469"></path>
                                            <g id="Group" transform="translate(8.599731, 8.567835)" fill="#5DBDBA">
                                                <path d="M0.581643868,9.2851533 C0.863625,9.2851533 1.09175236,9.05702594 1.09175236,8.77504481 L1.09175236,6.73472642 C1.09175236,6.45274528 0.863625,6.22461792 0.581643868,6.22461792 C0.299662736,6.22461792 0.0715353774,6.45274528 0.0715353774,6.73472642 L0.0715353774,8.77504481 C0.0716509434,9.05702594 0.299778302,9.2851533 0.581643868,9.2851533 Z" id="Path"></path>
                                                <path d="M12.8236698,15.4061085 L14.8639882,15.4061085 C15.1459693,15.4061085 15.3740967,15.1779811 15.3740967,14.896 C15.3740967,14.6140189 15.1459693,14.3858915 14.8639882,14.3858915 L12.8236698,14.3858915 C12.5416887,14.3858915 12.3135613,14.6140189 12.3135613,14.896 C12.3135613,15.1779811 12.5418042,15.4061085 12.8236698,15.4061085 Z" id="Path"></path>
                                                <path d="M14.8641038,10.3052547 C14.5821226,10.3052547 14.3539953,10.5333821 14.3539953,10.8153632 L14.3539953,12.8556816 C14.3539953,13.1376627 14.5821226,13.3657901 14.8641038,13.3657901 C15.1460849,13.3657901 15.3742123,13.1376627 15.3742123,12.8556816 L15.3742123,10.8153632 C15.3740967,10.5333821 15.1459693,10.3052547 14.8641038,10.3052547 Z" id="Path"></path>
                                                <path d="M12.8236698,1.12376415 L14.8639882,1.12376415 C15.1459693,1.12376415 15.3740967,0.895636792 15.3740967,0.61365566 C15.3740967,0.331674528 15.1459693,0.10354717 14.8639882,0.10354717 L12.8236698,0.10354717 C12.5416887,0.10354717 12.3135613,0.331674528 12.3135613,0.61365566 C12.3136769,0.895636792 12.5418042,1.12376415 12.8236698,1.12376415 Z" id="Path"></path>
                                                <path d="M14.8641038,2.14398113 C14.5821226,2.14398113 14.3539953,2.37210849 14.3539953,2.65408962 L14.3539953,4.69440802 C14.3539953,4.97638915 14.5821226,5.20451651 14.8641038,5.20451651 C15.1460849,5.20451651 15.3742123,4.97638915 15.3742123,4.69440802 L15.3742123,2.65408962 C15.3740967,2.37210849 15.1459693,2.14398113 14.8641038,2.14398113 Z" id="Path"></path>
                                                <path d="M6.70271462,14.3860071 L4.66239623,14.3860071 C4.38041509,14.3860071 4.15228774,14.6141344 4.15228774,14.8961156 C4.15228774,15.1780967 4.38041509,15.4062241 4.66239623,15.4062241 L6.70271462,15.4062241 C6.98469575,15.4062241 7.21282311,15.1780967 7.21282311,14.8961156 C7.21282311,14.6141344 6.98469575,14.3860071 6.70271462,14.3860071 Z" id="Path"></path>
                                                <path d="M0.581643868,2.14398113 C0.299662736,2.14398113 0.0715353774,2.37210849 0.0715353774,2.65408962 L0.0715353774,4.69440802 C0.0715353774,4.97638915 0.299662736,5.20451651 0.581643868,5.20451651 C0.863625,5.20451651 1.09175236,4.97638915 1.09175236,4.69440802 L1.09175236,2.65408962 C1.09175236,2.37210849 0.863625,2.14398113 0.581643868,2.14398113 Z" id="Path"></path>
                                                <path d="M2.62207783,14.3860071 L0.581759434,14.3860071 C0.299778302,14.3860071 0.0716509434,14.6141344 0.0716509434,14.8961156 C0.0716509434,15.1780967 0.299778302,15.4062241 0.581759434,15.4062241 L2.62207783,15.4062241 C2.90405896,15.4062241 3.13218632,15.1780967 3.13218632,14.8961156 C3.13218632,14.6141344 2.9039434,14.3860071 2.62207783,14.3860071 Z" id="Path"></path>
                                                <path d="M0.0716509434,12.8556816 C0.0716509434,13.1376627 0.299778302,13.3657901 0.581759434,13.3657901 C0.863740566,13.3657901 1.09186792,13.1376627 1.09186792,12.8556816 L1.09186792,10.8153632 C1.09186792,10.5333821 0.863740566,10.3052547 0.581759434,10.3052547 C0.299778302,10.3052547 0.0716509434,10.5333821 0.0716509434,10.8153632 L0.0716509434,12.8556816 Z" id="Path"></path>
                                                <path d="M14.8641038,6.22461792 C14.5821226,6.22461792 14.3539953,6.45274528 14.3539953,6.73472642 L14.3539953,8.77504481 C14.3539953,9.05702594 14.5821226,9.2851533 14.8641038,9.2851533 C15.1460849,9.2851533 15.3742123,9.05702594 15.3742123,8.77504481 L15.3742123,6.73472642 C15.3740967,6.45274528 15.1459693,6.22461792 14.8641038,6.22461792 Z" id="Path"></path>
                                                <path d="M8.74303302,1.12376415 L10.7833514,1.12376415 C11.0653325,1.12376415 11.2934599,0.895636792 11.2934599,0.61365566 C11.2934599,0.331674528 11.0653325,0.10354717 10.7833514,0.10354717 L8.74303302,0.10354717 C8.46105189,0.10354717 8.23292453,0.331674528 8.23292453,0.61365566 C8.23292453,0.895636792 8.46105189,1.12376415 8.74303302,1.12376415 Z" id="Path"></path>
                                                <path d="M0.0716509434,0.61365566 C0.0716509434,0.895636792 0.299778302,1.12376415 0.581759434,1.12376415 L2.62207783,1.12376415 C2.90405896,1.12376415 3.13218632,0.895636792 3.13218632,0.61365566 C3.13218632,0.331674528 2.90405896,0.10354717 2.62207783,0.10354717 L0.581759434,0.10354717 C0.299778302,0.103662736 0.0716509434,0.331790094 0.0716509434,0.61365566 Z" id="Path"></path>
                                                <path d="M8.74303302,15.4061085 L10.7833514,15.4061085 C11.0653325,15.4061085 11.2934599,15.1779811 11.2934599,14.896 C11.2934599,14.6140189 11.0653325,14.3858915 10.7833514,14.3858915 L8.74303302,14.3858915 C8.46105189,14.3858915 8.23292453,14.6140189 8.23292453,14.896 C8.23292453,15.1779811 8.46105189,15.4061085 8.74303302,15.4061085 Z" id="Path"></path>
                                                <path d="M4.15228774,0.61365566 C4.15228774,0.895636792 4.38041509,1.12376415 4.66239623,1.12376415 L6.70271462,1.12376415 C6.98469575,1.12376415 7.21282311,0.895636792 7.21282311,0.61365566 C7.21282311,0.331674528 6.98469575,0.10354717 6.70271462,0.10354717 L4.66239623,0.10354717 C4.38041509,0.103662736 4.15228774,0.331790094 4.15228774,0.61365566 Z" id="Path"></path>
                                            </g>
                                            <path d="M12.2929906,12.6469693 L12.284901,13.2600472 L12.2419906,16.5576085 C12.2382123,16.8554222 12.5433066,17.0576627 12.8160425,16.9378208 L13.8308279,16.4924292 L14.7369812,18.5563231 C14.8211132,18.7475849 15.0079835,18.8611863 15.2046769,18.8611863 C15.2728609,18.8611863 15.3426628,18.8473184 15.4093444,18.8183113 C15.6669411,18.7047099 15.7843562,18.4038915 15.6714481,18.1459481 L14.7654104,16.0822854 L15.7798491,15.6370094 C16.0524694,15.517283 16.1102524,15.155908 15.8884812,14.9570189 L13.2113939,12.5585613 L12.9755236,12.3473066 C12.7137665,12.1127075 12.2974977,12.2954175 12.2929906,12.6469693 Z" id="Path" fill="#1B3E6F"></path>
                                        </g>
                                        <g id="right" transform="translate(49.674528, -0.000000)">
                                            <g id="Group" transform="translate(-0.000000, 0.000000)" fill="#BEC8DC">
                                                <path d="M11.3095236,1.11983491 C11.3095236,0.556450472 10.852691,0.0996179245 10.2893066,0.0996179245 L1.10781604,0.0996179245 C0.544431604,0.0996179245 0.0875990566,0.556450472 0.0875990566,1.11983491 L0.0875990566,7.24090566 L11.309408,7.24090566 L11.309408,1.11983491 L11.3095236,1.11983491 Z M9.77931368,6.22068868 L5.69867689,6.22068868 L4.67845991,6.22068868 L1.61792453,6.22068868 C1.33617453,6.22068868 1.10781604,5.99233019 1.10781604,5.71058019 C1.10781604,5.42883019 1.33617453,5.2004717 1.61792453,5.2004717 L4.67845991,5.2004717 L5.69867689,5.2004717 L9.77931368,5.2004717 C10.0610637,5.2004717 10.2894222,5.42883019 10.2894222,5.71058019 C10.2894222,5.99233019 10.0609481,6.22068868 9.77931368,6.22068868 Z M9.77931368,4.18025472 L8.7590967,4.18025472 L7.73887972,4.18025472 L1.61792453,4.18025472 C1.33617453,4.18025472 1.10781604,3.95189623 1.10781604,3.67014623 C1.10781604,3.38839623 1.33617453,3.16003774 1.61792453,3.16003774 L7.73899528,3.16003774 L8.75921226,3.16003774 L9.77942925,3.16003774 C10.0611792,3.16003774 10.2895377,3.38839623 10.2895377,3.67014623 C10.2895377,3.95189623 10.0609481,4.18025472 9.77931368,4.18025472 Z M9.77931368,2.13993632 L3.65824292,2.13993632 L2.63802594,2.13993632 L1.61792453,2.13993632 C1.33617453,2.13993632 1.10781604,1.91157783 1.10781604,1.62982783 C1.10781604,1.34807783 1.33617453,1.11971934 1.61792453,1.11971934 L2.63814151,1.11971934 L3.65835849,1.11971934 L9.77942925,1.11971934 C10.0611792,1.11971934 10.2895377,1.34807783 10.2895377,1.62982783 C10.2895377,1.91157783 10.0609481,2.13993632 9.77931368,2.13993632 Z" id="Shape"></path>
                                                <path d="M1.10781604,24.5836698 L10.2893066,24.5836698 C10.852691,24.5836698 11.3095236,24.1268373 11.3095236,23.5634528 L11.3095236,14.3819623 L0.0877146226,14.3819623 L0.0877146226,23.5634528 C0.0877146226,24.1269528 0.544431604,24.5836698 1.10781604,24.5836698 Z M5.69856132,15.4021792 L9.77919811,15.4021792 C10.0609481,15.4021792 10.2893066,15.6305377 10.2893066,15.9122877 C10.2893066,16.1940377 10.0609481,16.4223962 9.77919811,16.4223962 L5.69856132,16.4223962 C5.41681132,16.4223962 5.18845283,16.1940377 5.18845283,15.9122877 C5.18845283,15.6305377 5.41692689,15.4021792 5.69856132,15.4021792 Z M5.69856132,17.4424976 L9.77919811,17.4424976 C10.0609481,17.4424976 10.2893066,17.6708561 10.2893066,17.9526061 C10.2893066,18.2343561 10.0609481,18.4627146 9.77919811,18.4627146 L5.69856132,18.4627146 C5.41681132,18.4627146 5.18845283,18.2343561 5.18845283,17.9526061 C5.1885684,17.6708561 5.41692689,17.4424976 5.69856132,17.4424976 Z M5.69856132,19.482816 L9.77919811,19.482816 C10.0609481,19.482816 10.2893066,19.7111745 10.2893066,19.9929245 C10.2893066,20.2746745 10.0609481,20.503033 9.77919811,20.503033 L5.69856132,20.503033 C5.41681132,20.503033 5.18845283,20.2746745 5.18845283,19.9929245 C5.1885684,19.7111745 5.41692689,19.482816 5.69856132,19.482816 Z M5.69856132,21.5231344 L9.77919811,21.5231344 C10.0609481,21.5231344 10.2893066,21.7514929 10.2893066,22.0332429 C10.2893066,22.3149929 10.0609481,22.5433514 9.77919811,22.5433514 L5.69856132,22.5433514 C5.41681132,22.5433514 5.18845283,22.3149929 5.18845283,22.0332429 C5.1885684,21.7516085 5.41692689,21.5231344 5.69856132,21.5231344 Z M3.65824292,15.4021792 L3.65824292,15.4021792 C3.93999292,15.4021792 4.16835142,15.6305377 4.16835142,15.9122877 C4.16835142,16.1940377 3.93999292,16.4223962 3.65824292,16.4223962 L3.65824292,16.4223962 C3.37649292,16.4223962 3.14813443,16.1940377 3.14813443,15.9122877 C3.14813443,15.6305377 3.37660849,15.4021792 3.65824292,15.4021792 Z M3.65824292,17.4424976 L3.65824292,17.4424976 C3.93999292,17.4424976 4.16835142,17.6708561 4.16835142,17.9526061 C4.16835142,18.2343561 3.93999292,18.4627146 3.65824292,18.4627146 L3.65824292,18.4627146 C3.37649292,18.4627146 3.14813443,18.2343561 3.14813443,17.9526061 C3.14813443,17.6708561 3.37660849,17.4424976 3.65824292,17.4424976 Z M3.65824292,19.482816 L3.65824292,19.482816 C3.93999292,19.482816 4.16835142,19.7111745 4.16835142,19.9929245 C4.16835142,20.2746745 3.93999292,20.503033 3.65824292,20.503033 L3.65824292,20.503033 C3.37649292,20.503033 3.14813443,20.2746745 3.14813443,19.9929245 C3.14813443,19.7111745 3.37660849,19.482816 3.65824292,19.482816 Z M3.65824292,21.5231344 L3.65824292,21.5231344 C3.93999292,21.5231344 4.16835142,21.7514929 4.16835142,22.0332429 C4.16835142,22.3149929 3.93999292,22.5433514 3.65824292,22.5433514 L3.65824292,22.5433514 C3.37649292,22.5433514 3.14813443,22.3149929 3.14813443,22.0332429 C3.14813443,21.7516085 3.37660849,21.5231344 3.65824292,21.5231344 Z M1.61792453,15.4021792 L1.61792453,15.4021792 C1.89967453,15.4021792 2.12803302,15.6305377 2.12803302,15.9122877 C2.12803302,16.1940377 1.89967453,16.4223962 1.61792453,16.4223962 L1.61792453,16.4223962 C1.33617453,16.4223962 1.10781604,16.1940377 1.10781604,15.9122877 C1.10781604,15.6305377 1.33617453,15.4021792 1.61792453,15.4021792 Z M1.61792453,17.4424976 L1.61792453,17.4424976 C1.89967453,17.4424976 2.12803302,17.6708561 2.12803302,17.9526061 C2.12803302,18.2343561 1.89967453,18.4627146 1.61792453,18.4627146 L1.61792453,18.4627146 C1.33617453,18.4627146 1.10781604,18.2343561 1.10781604,17.9526061 C1.10781604,17.6708561 1.33617453,17.4424976 1.61792453,17.4424976 Z M1.61792453,19.482816 L1.61792453,19.482816 C1.89967453,19.482816 2.12803302,19.7111745 2.12803302,19.9929245 C2.12803302,20.2746745 1.89967453,20.503033 1.61792453,20.503033 L1.61792453,20.503033 C1.33617453,20.503033 1.10781604,20.2746745 1.10781604,19.9929245 C1.10781604,19.7111745 1.33617453,19.482816 1.61792453,19.482816 Z M1.61792453,21.5231344 L1.61792453,21.5231344 C1.89967453,21.5231344 2.12803302,21.7514929 2.12803302,22.0332429 C2.12803302,22.3149929 1.89967453,22.5433514 1.61792453,22.5433514 L1.61792453,22.5433514 C1.33617453,22.5433514 1.10781604,22.3149929 1.10781604,22.0332429 C1.10781604,21.7516085 1.33617453,21.5231344 1.61792453,21.5231344 Z" id="Shape"></path>
                                            </g>
                                            <g id="Group" transform="translate(-0.000000, 1.040094)" fill="#96A5B9">
                                                <path d="M11.3095236,6.20069575 L0.0877146226,6.20069575 L0.0877146226,13.3418679 L11.3095236,13.3418679 L11.3095236,6.20069575 Z M2.63814151,12.3217665 L1.61792453,12.3217665 C1.33617453,12.3217665 1.10781604,12.093408 1.10781604,11.811658 C1.10781604,11.529908 1.33617453,11.3015495 1.61792453,11.3015495 L2.63814151,11.3015495 C2.91989151,11.3015495 3.14825,11.529908 3.14825,11.811658 C3.14825,12.093408 2.91977594,12.3217665 2.63814151,12.3217665 Z M2.63814151,10.2814481 L1.61792453,10.2814481 C1.33617453,10.2814481 1.10781604,10.0530896 1.10781604,9.77133962 C1.10781604,9.48958962 1.33617453,9.26123113 1.61792453,9.26123113 L2.63814151,9.26123113 C2.91989151,9.26123113 3.14825,9.48958962 3.14825,9.77133962 C3.14825,10.0530896 2.91977594,10.2814481 2.63814151,10.2814481 Z M2.63814151,8.24101415 L1.61792453,8.24101415 C1.33617453,8.24101415 1.10781604,8.01265566 1.10781604,7.73090566 C1.10781604,7.44915566 1.33617453,7.22079717 1.61792453,7.22079717 L2.63814151,7.22079717 C2.91989151,7.22079717 3.14825,7.44915566 3.14825,7.73090566 C3.14825,8.01265566 2.91977594,8.24101415 2.63814151,8.24101415 Z M9.77931368,12.3217665 L4.67845991,12.3217665 C4.39670991,12.3217665 4.16835142,12.093408 4.16835142,11.811658 C4.16835142,11.529908 4.39670991,11.3015495 4.67845991,11.3015495 L9.77931368,11.3015495 C10.0610637,11.3015495 10.2894222,11.529908 10.2894222,11.811658 C10.2894222,12.093408 10.0609481,12.3217665 9.77931368,12.3217665 Z M9.77931368,10.2814481 L4.67845991,10.2814481 C4.39670991,10.2814481 4.16835142,10.0530896 4.16835142,9.77133962 C4.16835142,9.48958962 4.39670991,9.26123113 4.67845991,9.26123113 L9.77931368,9.26123113 C10.0610637,9.26123113 10.2894222,9.48958962 10.2894222,9.77133962 C10.2894222,10.0530896 10.0609481,10.2814481 9.77931368,10.2814481 Z M9.77931368,8.24101415 L4.67845991,8.24101415 C4.39670991,8.24101415 4.16835142,8.01265566 4.16835142,7.73090566 C4.16835142,7.44915566 4.39670991,7.22079717 4.67845991,7.22079717 L9.77931368,7.22079717 C10.0610637,7.22079717 10.2894222,7.44915566 10.2894222,7.73090566 C10.2894222,8.01265566 10.0609481,8.24101415 9.77931368,8.24101415 Z" id="Shape"></path>
                                                <path d="M9.77931368,0.079740566 L3.65824292,0.079740566 C3.93999292,0.079740566 4.16835142,0.308099057 4.16835142,0.589849057 C4.16835142,0.871599057 3.93999292,1.09995755 3.65824292,1.09995755 L9.77931368,1.09995755 C10.0610637,1.09995755 10.2894222,0.871599057 10.2894222,0.589849057 C10.2894222,0.308099057 10.0609481,0.079740566 9.77931368,0.079740566 Z" id="Path"></path>
                                                <path d="M2.12803302,0.589733491 C2.12803302,0.307983491 2.35639151,0.079625 2.63814151,0.079625 L1.61792453,0.079625 C1.33617453,0.079625 1.10781604,0.307983491 1.10781604,0.589733491 C1.10781604,0.871483491 1.33617453,1.09984198 1.61792453,1.09984198 L2.63814151,1.09984198 C2.35639151,1.09984198 2.12803302,0.871483491 2.12803302,0.589733491 Z" id="Path"></path>
                                                <path d="M9.77931368,4.16037736 L5.69867689,4.16037736 C5.98042689,4.16037736 6.20878538,4.38873585 6.20878538,4.67048585 C6.20878538,4.95223585 5.98042689,5.18059434 5.69867689,5.18059434 L9.77931368,5.18059434 C10.0610637,5.18059434 10.2894222,4.95223585 10.2894222,4.67048585 C10.2894222,4.38873585 10.0609481,4.16037736 9.77931368,4.16037736 Z" id="Path"></path>
                                                <path d="M4.16835142,4.67048585 C4.16835142,4.38873585 4.39670991,4.16037736 4.67845991,4.16037736 L1.61792453,4.16037736 C1.33617453,4.16037736 1.10781604,4.38873585 1.10781604,4.67048585 C1.10781604,4.95223585 1.33617453,5.18059434 1.61792453,5.18059434 L4.67845991,5.18059434 C4.39670991,5.18059434 4.16835142,4.95212028 4.16835142,4.67048585 Z" id="Path"></path>
                                            </g>
                                            <path d="M9.77931368,8.26100708 L4.67845991,8.26100708 C4.39670991,8.26100708 4.16835142,8.48936557 4.16835142,8.77111557 C4.16835142,9.05286557 4.39670991,9.28122406 4.67845991,9.28122406 L9.77931368,9.28122406 C10.0610637,9.28122406 10.2894222,9.05286557 10.2894222,8.77111557 C10.2894222,8.48936557 10.0609481,8.26100708 9.77931368,8.26100708 Z" id="Path" fill="#BEC8DC"></path>
                                            <g id="Group" transform="translate(1.040094, 3.120283)" fill="#96A5B9">
                                                <path d="M6.18879245,0.549978774 C6.18879245,0.268228774 6.41715094,0.039870283 6.69890094,0.039870283 L0.577830189,0.039870283 C0.296080189,0.039870283 0.0677216981,0.268228774 0.0677216981,0.549978774 C0.0677216981,0.831728774 0.296080189,1.06008726 0.577830189,1.06008726 L6.69890094,1.06008726 C6.41715094,1.0599717 6.18879245,0.831613208 6.18879245,0.549978774 Z" id="Path"></path>
                                                <path d="M8.73921934,0.039870283 L7.71900236,0.039870283 C8.00075236,0.039870283 8.22911085,0.268228774 8.22911085,0.549978774 C8.22911085,0.831728774 8.00075236,1.06008726 7.71900236,1.06008726 L8.73921934,1.06008726 C9.02096934,1.06008726 9.24932783,0.831728774 9.24932783,0.549978774 C9.24932783,0.268228774 9.02085377,0.039870283 8.73921934,0.039870283 Z" id="Path"></path>
                                            </g>
                                            <g id="Group" transform="translate(1.040094, 1.040094)" fill="#E4EAF6">
                                                <path d="M3.12825708,0.589733491 C3.12825708,0.307983491 2.89989858,0.079625 2.61814858,0.079625 L1.5979316,0.079625 C1.3161816,0.079625 1.08782311,0.307983491 1.08782311,0.589733491 C1.08782311,0.871483491 1.3161816,1.09984198 1.5979316,1.09984198 L2.61814858,1.09984198 C2.89989858,1.09984198 3.12825708,0.871483491 3.12825708,0.589733491 Z" id="Path"></path>
                                                <path d="M5.16857547,4.67048585 C5.16857547,4.38873585 4.94021698,4.16037736 4.65846698,4.16037736 L3.63825,4.16037736 C3.3565,4.16037736 3.12814151,4.38873585 3.12814151,4.67048585 C3.12814151,4.95223585 3.3565,5.18059434 3.63825,5.18059434 L4.65846698,5.18059434 C4.94021698,5.18059434 5.16857547,4.95212028 5.16857547,4.67048585 Z" id="Path"></path>
                                                <path d="M1.59804717,7.22091274 L0.577830189,7.22091274 C0.296080189,7.22091274 0.0677216981,7.44927123 0.0677216981,7.73102123 C0.0677216981,8.01277123 0.296080189,8.24112972 0.577830189,8.24112972 L1.59804717,8.24112972 C1.87979717,8.24112972 2.10815566,8.01277123 2.10815566,7.73102123 C2.10815566,7.44927123 1.8796816,7.22091274 1.59804717,7.22091274 Z" id="Path"></path>
                                            </g>
                                            <path d="M9.77931368,10.3013255 L4.67845991,10.3013255 C4.39670991,10.3013255 4.16835142,10.529684 4.16835142,10.811434 C4.16835142,11.093184 4.39670991,11.3215425 4.67845991,11.3215425 L9.77931368,11.3215425 C10.0610637,11.3215425 10.2894222,11.093184 10.2894222,10.811434 C10.2894222,10.529684 10.0609481,10.3013255 9.77931368,10.3013255 Z" id="Path" fill="#BEC8DC"></path>
                                            <path d="M2.63814151,10.3013255 L1.61792453,10.3013255 C1.33617453,10.3013255 1.10781604,10.529684 1.10781604,10.811434 C1.10781604,11.093184 1.33617453,11.3215425 1.61792453,11.3215425 L2.63814151,11.3215425 C2.91989151,11.3215425 3.14825,11.093184 3.14825,10.811434 C3.14825,10.529684 2.91977594,10.3013255 2.63814151,10.3013255 Z" id="Path" fill="#E4EAF6"></path>
                                            <path d="M9.77931368,12.3416439 L4.67845991,12.3416439 C4.39670991,12.3416439 4.16835142,12.5700024 4.16835142,12.8517524 C4.16835142,13.1335024 4.39670991,13.3618608 4.67845991,13.3618608 L9.77931368,13.3618608 C10.0610637,13.3618608 10.2894222,13.1335024 10.2894222,12.8517524 C10.2894222,12.5700024 10.0609481,12.3416439 9.77931368,12.3416439 Z" id="Path" fill="#BEC8DC"></path>
                                            <g id="Group" transform="translate(1.040094, 12.250000)" fill="#E4EAF6">
                                                <path d="M1.59804717,0.0916438679 L0.577830189,0.0916438679 C0.296080189,0.0916438679 0.0677216981,0.320002358 0.0677216981,0.601752358 C0.0677216981,0.883502358 0.296080189,1.11186085 0.577830189,1.11186085 L1.59804717,1.11186085 C1.87979717,1.11186085 2.10815566,0.883502358 2.10815566,0.601752358 C2.10815566,0.320002358 1.8796816,0.0916438679 1.59804717,0.0916438679 Z" id="Path"></path>
                                                <path d="M0.577830189,6.21271462 L0.577830189,6.21271462 C0.859580189,6.21271462 1.08793868,5.98435613 1.08793868,5.70260613 C1.08793868,5.42085613 0.859580189,5.19249764 0.577830189,5.19249764 L0.577830189,5.19249764 C0.296080189,5.19249764 0.0677216981,5.42085613 0.0677216981,5.70260613 C0.0677216981,5.98424057 0.296080189,6.21271462 0.577830189,6.21271462 Z" id="Path"></path>
                                                <path d="M0.577830189,4.17228066 L0.577830189,4.17228066 C0.859580189,4.17228066 1.08793868,3.94392217 1.08793868,3.66217217 C1.08793868,3.38042217 0.859580189,3.15206368 0.577830189,3.15206368 L0.577830189,3.15206368 C0.296080189,3.15206368 0.0677216981,3.38042217 0.0677216981,3.66217217 C0.0677216981,3.94392217 0.296080189,4.17228066 0.577830189,4.17228066 Z" id="Path"></path>
                                                <path d="M0.577830189,10.2933514 L0.577830189,10.2933514 C0.859580189,10.2933514 1.08793868,10.0649929 1.08793868,9.78324292 C1.08793868,9.50149292 0.859580189,9.27313443 0.577830189,9.27313443 L0.577830189,9.27313443 C0.296080189,9.27313443 0.0677216981,9.50149292 0.0677216981,9.78324292 C0.0677216981,10.0649929 0.296080189,10.2933514 0.577830189,10.2933514 Z" id="Path"></path>
                                                <path d="M0.577830189,8.25303302 L0.577830189,8.25303302 C0.859580189,8.25303302 1.08793868,8.02467453 1.08793868,7.74292453 C1.08793868,7.46117453 0.859580189,7.23281604 0.577830189,7.23281604 L0.577830189,7.23281604 C0.296080189,7.23281604 0.0677216981,7.46117453 0.0677216981,7.74292453 C0.0677216981,8.02467453 0.296080189,8.25303302 0.577830189,8.25303302 Z" id="Path"></path>
                                            </g>
                                            <g id="Group" transform="translate(3.120283, 15.370283)" fill="#96A5B9">
                                                <path d="M0.537959906,3.0924316 L0.537959906,3.0924316 C0.819709906,3.0924316 1.0480684,2.86407311 1.0480684,2.58232311 C1.0480684,2.30057311 0.819709906,2.07221462 0.537959906,2.07221462 L0.537959906,2.07221462 C0.256209906,2.07221462 0.0278514151,2.30057311 0.0278514151,2.58232311 C0.0278514151,2.86395755 0.256325472,3.0924316 0.537959906,3.0924316 Z" id="Path"></path>
                                                <path d="M0.537959906,1.05199764 L0.537959906,1.05199764 C0.819709906,1.05199764 1.0480684,0.823639151 1.0480684,0.541889151 C1.0480684,0.260139151 0.819709906,0.0317806604 0.537959906,0.0317806604 L0.537959906,0.0317806604 C0.256209906,0.0317806604 0.0278514151,0.260139151 0.0278514151,0.541889151 C0.0278514151,0.823639151 0.256325472,1.05199764 0.537959906,1.05199764 Z" id="Path"></path>
                                                <path d="M0.537959906,7.1730684 L0.537959906,7.1730684 C0.819709906,7.1730684 1.0480684,6.94470991 1.0480684,6.66295991 C1.0480684,6.38120991 0.819709906,6.15285142 0.537959906,6.15285142 L0.537959906,6.15285142 C0.256209906,6.15285142 0.0278514151,6.38120991 0.0278514151,6.66295991 C0.0278514151,6.94470991 0.256325472,7.1730684 0.537959906,7.1730684 Z" id="Path"></path>
                                                <path d="M0.537959906,5.13275 L0.537959906,5.13275 C0.819709906,5.13275 1.0480684,4.90439151 1.0480684,4.62264151 C1.0480684,4.34089151 0.819709906,4.11253302 0.537959906,4.11253302 L0.537959906,4.11253302 C0.256209906,4.11253302 0.0278514151,4.34089151 0.0278514151,4.62264151 C0.0278514151,4.90439151 0.256325472,5.13275 0.537959906,5.13275 Z" id="Path"></path>
                                                <path d="M2.5782783,3.0924316 L6.65891509,3.0924316 C6.94066509,3.0924316 7.16902358,2.86407311 7.16902358,2.58232311 C7.16902358,2.30057311 6.94066509,2.07221462 6.65891509,2.07221462 L2.5782783,2.07221462 C2.2965283,2.07221462 2.06816981,2.30057311 2.06816981,2.58232311 C2.06828538,2.86395755 2.29664387,3.0924316 2.5782783,3.0924316 Z" id="Path"></path>
                                                <path d="M2.5782783,1.05199764 L6.65891509,1.05199764 C6.94066509,1.05199764 7.16902358,0.823639151 7.16902358,0.541889151 C7.16902358,0.260139151 6.94066509,0.0317806604 6.65891509,0.0317806604 L2.5782783,0.0317806604 C2.2965283,0.0317806604 2.06816981,0.260139151 2.06816981,0.541889151 C2.06816981,0.823639151 2.29664387,1.05199764 2.5782783,1.05199764 Z" id="Path"></path>
                                                <path d="M2.5782783,7.1730684 L6.65891509,7.1730684 C6.94066509,7.1730684 7.16902358,6.94470991 7.16902358,6.66295991 C7.16902358,6.38120991 6.94066509,6.15285142 6.65891509,6.15285142 L2.5782783,6.15285142 C2.2965283,6.15285142 2.06816981,6.38120991 2.06816981,6.66295991 C2.06828538,6.94470991 2.29664387,7.1730684 2.5782783,7.1730684 Z" id="Path"></path>
                                                <path d="M2.5782783,5.13275 L6.65891509,5.13275 C6.94066509,5.13275 7.16902358,4.90439151 7.16902358,4.62264151 C7.16902358,4.34089151 6.94066509,4.11253302 6.65891509,4.11253302 L2.5782783,4.11253302 C2.2965283,4.11253302 2.06816981,4.34089151 2.06816981,4.62264151 C2.06828538,4.90439151 2.29664387,5.13275 2.5782783,5.13275 Z" id="Path"></path>
                                            </g>
                                            <path d="M9.26920519,3.67026179 C9.26920519,3.38851179 9.0408467,3.1601533 8.7590967,3.1601533 L7.73887972,3.1601533 C7.45712972,3.1601533 7.22877123,3.38851179 7.22877123,3.67026179 C7.22877123,3.95201179 7.45712972,4.18037028 7.73887972,4.18037028 L8.7590967,4.18037028 C9.0408467,4.18025472 9.26920519,3.95189623 9.26920519,3.67026179 Z" id="Path" fill="#E4EAF6"></path>
                                        </g>
                                    </g>
                                </g>
                            </g>
                        </g>
                    </g>
                </g>
            </g>
        </g>
    </g>
</svg>