<?xml version="1.0" encoding="UTF-8"?>
<svg width="30px" height="28px" viewBox="0 0 30 28" version="1.1" xmlns="http://www.w3.org/2000/svg" xmlns:xlink="http://www.w3.org/1999/xlink">
    <!-- Generator: Sketch 59.1 (86144) - https://sketch.com -->
    <title>logo</title>
    <desc>Created with Sketch.</desc>
    <defs>
        <polygon id="path-1" points="0.0653076923 0.308461538 14.2287692 0.308461538 14.2287692 9.20288462 0.0653076923 9.20288462"></polygon>
        <polygon id="path-3" points="0 0.143384615 14.8245385 0.143384615 14.8245385 9.19261538 0 9.19261538"></polygon>
        <polygon id="path-5" points="0 0.0292692308 7.44361538 0.0292692308 7.44361538 8.54503846 0 8.54503846"></polygon>
        <polygon id="path-7" points="0 0.346538462 14.8245385 0.346538462 14.8245385 9.39576923 0 9.39576923"></polygon>
    </defs>
    <g id="Symbols" stroke="none" stroke-width="1" fill="none" fill-rule="evenodd">
        <g id="Side-Nav" transform="translate(-10.000000, -16.000000)">
            <g id="logo---icon">
                <g>
                    <g id="logo" transform="translate(10.000000, 16.000000)">
                        <polygon id="Fill-1" fill="#312F31" points="14.8243846 0.308384615 0.000153846154 9.64453846 0.000153846154 18.1606923 14.8243846 27.3076154 29.7751538 17.7191538 29.7751538 9.45530769"></polygon>
                        <g id="Group-26">
                            <g id="Group-4" transform="translate(7.692308, 0.000000)">
                                <mask id="mask-2" fill="white">
                                    <use xlink:href="#path-1"></use>
                                </mask>
                                <g id="Clip-3"></g>
                                <path d="M7.13223077,0.308269231 L0.0653076923,4.75865385 L7.13223077,9.20288462 C9.49761538,7.68557692 11.8633846,6.1675 14.2287692,4.65019231 C11.8633846,3.2025 9.49761538,1.75557692 7.13223077,0.308269231" id="Fill-2" fill="#5DBDBA" mask="url(#mask-2)"></path>
                            </g>
                            <path d="M29.7749615,9.45526923 C27.1568846,7.85373077 24.5391923,6.25180769 21.9211154,4.65026923 C19.5557308,6.16757692 17.1899615,7.68526923 14.8245769,9.20296154 L22.2995769,13.8079615 L29.7749615,9.45526923 Z" id="Fill-5" fill="#17A1A1"></path>
                            <g id="Group-9" transform="translate(0.000000, 4.615385)">
                                <mask id="mask-4" fill="white">
                                    <use xlink:href="#path-3"></use>
                                </mask>
                                <g id="Clip-8"></g>
                                <polygon id="Fill-7" fill="#17A1A1" mask="url(#mask-4)" points="7.75761538 0.143384615 -7.69230769e-05 5.02915385 7.44376923 9.19261538 14.8245385 4.58761538"></polygon>
                            </g>
                            <polygon id="Fill-10" fill="#08809A" points="29.7749615 9.45526923 29.7749615 17.7191154 29.1434231 18.1241154 22.2995769 13.8079615"></polygon>
                            <polygon id="Fill-12" fill="#08809A" points="14.8245385 9.20288462 7.44376923 13.8082692 14.8245385 18.6021154 22.2999231 13.8082692"></polygon>
                            <polygon id="Fill-14" fill="#0F699D" points="29.1435769 18.1241538 22.2997308 13.808 14.8247308 18.6022308 21.7635769 22.8576154"></polygon>
                            <g id="Group-18" transform="translate(0.000000, 9.615385)">
                                <mask id="mask-6" fill="white">
                                    <use xlink:href="#path-5"></use>
                                </mask>
                                <g id="Clip-17"></g>
                                <polygon id="Fill-16" fill="#08809A" mask="url(#mask-6)" points="7.44361538 4.19273077 -0.000230769231 0.0292692308 -0.000230769231 8.54503846"></polygon>
                            </g>
                            <g id="Group-21" transform="translate(0.000000, 13.461538)">
                                <mask id="mask-8" fill="white">
                                    <use xlink:href="#path-7"></use>
                                </mask>
                                <g id="Clip-20"></g>
                                <polygon id="Fill-19" fill="#0F699D" mask="url(#mask-8)" points="14.8245385 5.14076923 7.44376923 0.346538462 -7.69230769e-05 4.69923077 7.61184615 9.39576923"></polygon>
                            </g>
                            <polygon id="Fill-22" fill="#1B3D6E" points="21.7633846 22.8574615 14.8245385 18.6024615 7.61184615 22.8574615 14.8245385 27.3074615"></polygon>
                            <path d="M10.9581154,20.1415 C10.1377308,20.1415 9.45657692,20.0688077 8.91426923,19.9234231 C8.37119231,19.7780385 7.93773077,19.5361154 7.61388462,19.1984231 C7.28965385,18.8611154 7.05773077,18.4080385 6.91888462,17.8391923 C6.78042308,17.2699615 6.71080769,16.5618846 6.71080769,15.7153462 L6.71080769,10.9118846 C6.71080769,10.0653462 6.78042308,9.35726923 6.91888462,8.78803846 C7.05773077,8.21957692 7.28965385,7.76265385 7.61388462,7.41880769 C7.93773077,7.07457692 8.37119231,6.83303846 8.91426923,6.69419231 C9.45657692,6.55534615 10.1377308,6.48573077 10.9581154,6.48573077 L18.6196538,6.48573077 C19.1227308,6.48573077 19.5623462,6.55534615 19.9396538,6.69419231 C20.3165769,6.83303846 20.6373462,7.00534615 20.9019615,7.21034615 C21.1669615,7.41573077 21.3788846,7.63380769 21.5373462,7.86534615 C21.6961923,8.09726923 21.8154231,8.30534615 21.8950385,8.49034615 L20.1877308,10.2372692 C20.0685,9.97265385 19.8765769,9.73111538 19.6123462,9.51265385 C19.3473462,9.29419231 18.9573462,9.18534615 18.4411923,9.18534615 L10.9781154,9.18534615 C10.3827308,9.18534615 9.96580769,9.31111538 9.72773077,9.56226923 C9.48965385,9.81380769 9.37042308,10.2638077 9.37042308,10.9118846 L9.37042308,15.7349615 C9.37042308,16.0265 9.39042308,16.2776538 9.42965385,16.4895769 C9.46965385,16.7011154 9.54542308,16.8799615 9.65811538,17.0249615 C9.77042308,17.1707308 9.93273077,17.2803462 10.1446538,17.3526538 C10.3561923,17.4253462 10.6338846,17.4615 10.9781154,17.4615 L18.5404231,17.4615 C19.0696538,17.4615 19.4596538,17.3526538 19.7115769,17.1345769 C19.9627308,16.9161154 20.1481154,16.6745769 20.2669615,16.4099615 L21.9742692,18.1365 C21.8950385,18.3222692 21.7758077,18.5311154 21.6169615,18.7618846 C21.4581154,18.9938077 21.2461923,19.2118846 20.9819615,19.4168846 C20.7169615,19.6222692 20.3961923,19.7941923 20.0192692,19.9330385 C19.6419615,20.0718846 19.2019615,20.1415 18.6988846,20.1415 L10.9581154,20.1415 Z" id="Fill-24" fill="#FEFEFE"></path>
                        </g>
                    </g>
                </g>
            </g>
        </g>
    </g>
</svg>