<?xml version="1.0" encoding="UTF-8"?>
<svg width="88px" height="88px" viewBox="0 0 88 88" version="1.1" xmlns="http://www.w3.org/2000/svg" xmlns:xlink="http://www.w3.org/1999/xlink">
    <!-- Generator: Sketch 61.2 (89653) - https://sketch.com -->
    <title>icon</title>
    <desc>Created with Sketch.</desc>
    <g id="Page-1" stroke="none" stroke-width="1" fill="none" fill-rule="evenodd">
        <g id="3.2-Import---Upload" transform="translate(-676.000000, -411.000000)" fill="#1273EB" fill-rule="nonzero">
            <g id="modal-new" transform="translate(380.000000, 295.000000)">
                <g id="upload" transform="translate(30.000000, 86.000000)">
                    <g id="icon" transform="translate(266.000000, 30.000000)">
                        <path d="M76.1081081,41.8594595 L76.1081081,19.027027 C76.1004221,17.1729378 74.928946,15.5234994 73.1808732,14.9054802 L73.1808732,10.2453222 C73.1808732,7.82032143 71.2150216,5.85446985 68.7900208,5.85446985 L27.8087318,5.85446985 C27.0003982,5.85446985 26.3451143,5.199186 26.3451143,4.39085239 C26.3451143,1.96585158 24.3792628,0 21.954262,0 L4.39085239,0 C1.96585158,0 0,1.96585158 0,4.39085239 L0,60.008316 C0,62.4333168 1.96585158,64.3991684 4.39085239,64.3991684 L38.1286985,64.3991684 C38.8107319,76.1598631 47.6519103,85.8279505 59.3049335,87.5560014 C70.9579566,89.2840522 82.2243598,82.5977596 86.2900241,71.5411108 C90.3556884,60.484462 86.1046903,48.092232 76.1081081,41.8594595 Z M2.92723493,60.008316 L2.92723493,4.39085239 C2.92723493,3.58251879 3.58251879,2.92723493 4.39085239,2.92723493 L21.954262,2.92723493 C22.7625956,2.92723493 23.4178794,3.58251879 23.4178794,4.39085239 C23.4178794,6.81585321 25.383731,8.78170478 27.8087318,8.78170478 L68.7900208,8.78170478 C69.5983544,8.78170478 70.2536383,9.43698864 70.2536383,10.2453222 L70.2536383,14.6361746 L16.0997921,14.6361746 C12.0601301,14.6410135 8.78654367,17.9146 8.78170478,21.954262 L8.78170478,57.0810811 C8.78708623,58.6697929 9.3147445,60.2126533 10.2833763,61.4719335 L4.39085239,61.4719335 C3.58251879,61.4719335 2.92723493,60.8166496 2.92723493,60.008316 Z M11.7089397,57.0810811 L11.7089397,21.954262 C11.7089397,19.5292611 13.6747913,17.5634096 16.0997921,17.5634096 L71.7172557,17.5634096 C72.5255893,17.5634096 73.1808732,18.2186934 73.1808732,19.027027 L73.1808732,40.2875343 C65.7265206,36.8900031 57.0753868,37.3922287 50.0642601,41.6295266 C43.0531335,45.8668245 38.5863831,53.2926233 38.1286985,61.4719335 L16.0997921,61.4719335 C13.6747913,61.4719335 11.7089397,59.5060819 11.7089397,57.0810811 Z M62.9355509,84.8898129 C50.8105469,84.8898129 40.981289,75.060555 40.981289,62.9355509 C40.981289,50.8105469 50.8105469,40.981289 62.9355509,40.981289 C75.060555,40.981289 84.8898129,50.8105469 84.8898129,62.9355509 C84.876101,75.0548708 75.0548708,84.876101 62.9355509,84.8898129 Z" id="Shape"></path>
                        <path d="M69.7833333,61.4115756 C69.1416667,58.3450161 66.3916667,56 63,56 C60.3416667,56 58.05,57.4430868 56.95,59.607717 C54.1083333,59.9684887 52,62.2233119 52,65.0192926 C52,67.9956592 54.475,70.4308682 57.5,70.4308682 L69.4166667,70.4308682 C71.9833333,70.4308682 74,68.4466238 74,65.9212219 C74,63.5762058 72.075,61.5919614 69.7833333,61.4115756 Z M64.8333333,64.1173633 L64.8333333,67.7250804 L61.1666667,67.7250804 L61.1666667,64.1173633 L58.4166667,64.1173633 L63,59.607717 L67.5833333,64.1173633 L64.8333333,64.1173633 Z" id="Shape"></path>
                        <path d="M16.0997921,20.4906445 C15.2914585,20.4906445 14.6361746,21.1459283 14.6361746,21.954262 L14.6361746,27.8087318 L17.5634096,27.8087318 L17.5634096,23.4178794 L21.954262,23.4178794 L21.954262,20.4906445 L16.0997921,20.4906445 Z" id="Path"></path>
                        <rect id="Rectangle" x="14.6361746" y="30.7359667" width="2.92723493" height="2.92723493"></rect>
                    </g>
                </g>
            </g>
        </g>
    </g>
</svg>