<?xml version="1.0" encoding="UTF-8"?>
<svg width="144px" height="157px" viewBox="0 0 144 157" version="1.1" xmlns="http://www.w3.org/2000/svg" xmlns:xlink="http://www.w3.org/1999/xlink">
    <!-- Generator: Sketch 61.2 (89653) - https://sketch.com -->
    <title>icon</title>
    <desc>Created with Sketch.</desc>
    <g id="Page-1" stroke="none" stroke-width="1" fill="none" fill-rule="evenodd">
        <g id="7.0-Designer---First-action-options" transform="translate(-780.000000, -393.000000)" fill-rule="nonzero">
            <g id="modal-new" transform="translate(120.000000, 222.000000)">
                <g id="options" transform="translate(100.000000, 132.000000)">
                    <g id="recent" transform="translate(500.000000, 0.000000)">
                        <g id="icon+text" transform="translate(30.000000, 40.000000)">
                            <g id="icon" transform="translate(30.000000, 0.000000)">
                                <g id="Group" transform="translate(-0.000000, 7.222222)" fill="#E0E8F2">
                                    <polygon id="Path" points="113.218678 86.6995804 11.9100839 86.3986545 11.6173865 11.7737269 11.9100839 11.7737269 11.9100839 7.25043403 0 7.25043403 0 98.6096644 115.480324 98.6096644 115.480324 86.6995804"></polygon>
                                    <polygon id="Path" points="21.5585214 0.0141059028 26.3827402 0.0141059028 26.3827402 4.53739873 21.5585214 4.53739873"></polygon>
                                    <polygon id="Path" points="31.2069589 0.0141059028 36.0311777 0.0141059028 36.0311777 4.53739873 31.2069589 4.53739873"></polygon>
                                    <polygon id="Path" points="40.8553964 0.0141059028 45.6796152 0.0141059028 45.6796152 4.53739873 40.8553964 4.53739873"></polygon>
                                </g>
                                <path d="M125.279225,-3.83693077e-13 L14.3221933,-3.83693077e-13 C11.7443396,-3.83693077e-13 9.6484375,2.09590213 9.6484375,4.67375579 L9.6484375,96.1834491 L120.455006,96.1834491 L120.455006,91.6601562 L14.1717303,91.6601562 L14.1717303,18.9959491 L125.429687,18.9959491 L125.429687,110.806568 C125.429687,110.890028 125.362685,110.957031 125.279225,110.957031 L96.333912,110.957031 C93.7572338,110.957031 91.6601562,113.054109 91.6601562,115.630787 L91.6601562,120.605469 L12.0605469,120.605469 L12.0605469,154.074074 L117.892433,154.074074 L117.892433,120.605469 L96.1834491,120.605469 L96.1834491,115.630787 C96.1834491,115.547327 96.2516275,115.480324 96.333912,115.480324 L125.279225,115.480324 C127.855903,115.480324 129.95298,113.383247 129.95298,110.806568 L129.95298,4.67375579 C129.95298,2.09590213 127.855903,-3.83693077e-13 125.279225,-3.83693077e-13 Z M60.0018084,125.128762 L69.9511719,125.128762 L69.9511719,130.253906 L60.0018084,130.253906 L60.0018084,125.128762 Z M60.0018084,134.777199 L69.9511719,134.777199 L69.9511719,139.902344 L60.0018084,139.902344 L60.0018084,134.777199 Z M45.5291522,125.128762 L55.4785156,125.128762 L55.4785156,130.253906 L45.5291522,130.253906 L45.5291522,125.128762 Z M45.5291522,134.777199 L55.4785156,134.777199 L55.4785156,139.902344 L45.5291522,139.902344 L45.5291522,134.777199 Z M26.5332031,149.550781 L16.5838397,149.550781 L16.5838397,144.425637 L26.5332031,144.425637 L26.5332031,149.550781 Z M26.5332031,139.902344 L16.5838397,139.902344 L16.5838397,134.777199 L26.5332031,134.777199 L26.5332031,139.902344 Z M26.5332031,130.253906 L16.5838397,130.253906 L16.5838397,125.128762 L26.5332031,125.128762 L26.5332031,130.253906 Z M41.0058594,149.550781 L31.0564959,149.550781 L31.0564959,144.425637 L41.0058594,144.425637 L41.0058594,149.550781 Z M41.0058594,139.902344 L31.0564959,139.902344 L31.0564959,134.777199 L41.0058594,134.777199 L41.0058594,139.902344 Z M41.0058594,130.253906 L31.0564959,130.253906 L31.0564959,125.128762 L41.0058594,125.128762 L41.0058594,130.253906 Z M84.4238281,149.550781 L45.5291522,149.550781 L45.5291522,144.425637 L84.4238281,144.425637 L84.4238281,149.550781 Z M84.4238281,139.902344 L74.4744647,139.902344 L74.4744647,134.777199 L84.4238281,134.777199 L84.4238281,139.902344 Z M84.4238281,130.253906 L74.4744647,130.253906 L74.4744647,125.128762 L84.4238281,125.128762 L84.4238281,130.253906 Z M98.8964844,149.550781 L88.9471209,149.550781 L88.9471209,144.425637 L98.8964844,144.425637 L98.8964844,149.550781 Z M98.8964844,139.902344 L88.9471209,139.902344 L88.9471209,134.777199 L98.8964844,134.777199 L98.8964844,139.902344 Z M103.419777,125.128762 L113.369141,125.128762 L113.369141,130.253906 L103.419777,130.253906 L103.419777,125.128762 Z M103.419777,134.777199 L113.369141,134.777199 L113.369141,139.902344 L103.419777,139.902344 L103.419777,134.777199 Z M103.419777,144.425637 L113.369141,144.425637 L113.369141,149.550781 L103.419777,149.550781 L103.419777,144.425637 Z M98.8964844,130.253906 L88.9471209,130.253906 L88.9471209,125.128762 L98.8964844,125.128762 L98.8964844,130.253906 Z M14.1717303,14.4726562 L14.1717303,4.67375579 C14.1717303,4.59029579 14.2387333,4.52329282 14.3221933,4.52329282 L125.279225,4.52329282 C125.362685,4.52329282 125.429688,4.59029579 125.429688,4.67375579 L125.429688,14.4726562 L14.1717303,14.4726562 Z" id="Shape" stroke="#FFFFFF" stroke-width="2" fill="#1B3E6F"></path>
                                <g id="list" transform="translate(29.000000, 31.000000)">
                                    <g>
                                        <g id="Group" transform="translate(0.000000, -0.000000)" fill="#E0E8F2">
                                            <polygon id="Path" points="0.134469486 0.0137213762 2.95009588 0.0137213762 2.95009588 2.65371415 0.134469486 2.65371415"></polygon>
                                            <polygon id="Path" points="5.76572227 0.0137213762 8.58134865 0.0137213762 8.58134865 2.65371415 5.76572227 2.65371415"></polygon>
                                            <polygon id="Path" points="11.396975 0.0137213762 14.2126014 0.0137213762 14.2126014 2.65371415 11.396975 2.65371415"></polygon>
                                            <polygon id="Path" points="0.222286294 14.0918533 8.49353185 14.0918533 8.49353185 22.3630989 0.222286294 22.3630989"></polygon>
                                            <polygon id="Path" points="0.222286294 26.7621721 8.49353185 26.7621721 8.49353185 35.0334176 0.222286294 35.0334176"></polygon>
                                            <polygon id="Path" points="0.222286294 39.4324908 8.49353185 39.4324908 8.49353185 47.7037364 0.222286294 47.7037364"></polygon>
                                        </g>
                                        <polygon id="Path" fill="#1B3E6F" points="11.396975 14.0918533 39.5532389 14.0918533 39.5532389 16.7318461 11.396975 16.7318461"></polygon>
                                        <polygon id="Path" fill="#1B3E6F" points="11.396975 7.05278735 26.8829202 7.05278735 26.8829202 9.69278012 11.396975 9.69278012"></polygon>
                                        <polygon id="Path" fill="#1B3E6F" points="0.134469486 7.05278735 8.58134865 7.05278735 8.58134865 9.69278012 0.134469486 9.69278012"></polygon>
                                        <polygon id="Path" fill="#1B3E6F" points="11.396975 19.7231061 26.8829202 19.7231061 26.8829202 22.3630989 11.396975 22.3630989"></polygon>
                                        <polygon id="Path" fill="#1B3E6F" points="11.396975 26.7621721 39.5532389 26.7621721 39.5532389 29.4021649 11.396975 29.4021649"></polygon>
                                        <polygon id="Path" fill="#1B3E6F" points="11.396975 32.3934249 26.8829202 32.3934249 26.8829202 35.0334176 11.396975 35.0334176"></polygon>
                                        <polygon id="Path" fill="#1B3E6F" points="11.396975 39.4324908 39.5532389 39.4324908 39.5532389 42.0724836 11.396975 42.0724836"></polygon>
                                        <polygon id="Path" fill="#1B3E6F" points="11.396975 45.0637436 26.8829202 45.0637436 26.8829202 47.7037364 11.396975 47.7037364"></polygon>
                                    </g>
                                    <g id="recent" transform="translate(77.722272, 34.733652)">
                                        <path d="M18.5231598,0 C8.3091772,0 0,8.31000246 0,18.5231598 C0,28.7371424 8.3091772,37.0463197 18.5231598,37.0463197 C28.7371424,37.0463197 37.0463197,28.7371424 37.0463197,18.5231598 C37.0463197,8.31000246 28.7371424,0 18.5231598,0 Z" id="Path" fill="#E0E8F2"></path>
                                        <path d="M18.5231598,30.2722109 C12.0445104,30.2722109 6.77410871,25.0018092 6.77410871,18.5231598 C6.77410871,12.0445104 12.0445104,6.77410871 18.5231598,6.77410871 C25.0018092,6.77410871 30.2722109,12.0445104 30.2722109,18.5231598 C30.2722109,25.0018092 25.0018092,30.2722109 18.5231598,30.2722109 Z M18.5231598,9.94988482 C13.7958091,9.94988482 9.94988482,13.7958091 9.94988482,18.5231598 C9.94988482,23.2505105 13.7958091,27.0964348 18.5231598,27.0964348 C23.2505105,27.0964348 27.0964348,23.2505105 27.0964348,18.5231598 C27.0964348,13.7958091 23.2505105,9.94988482 18.5231598,9.94988482 Z" id="Shape" fill="#1B3E6F"></path>
                                        <polygon id="Path" fill="#1B3E6F" points="16.2593464 23.0334551 14.0136898 20.7877985 16.9352718 17.8653913 16.9352718 13.4425783 20.1110479 13.4425783 20.1110479 19.1809284"></polygon>
                                    </g>
                                </g>
                            </g>
                        </g>
                    </g>
                </g>
            </g>
        </g>
    </g>
</svg>