<?xml version="1.0" encoding="UTF-8"?>
<svg width="131px" height="157px" viewBox="0 0 131 157" version="1.1" xmlns="http://www.w3.org/2000/svg" xmlns:xlink="http://www.w3.org/1999/xlink">
    <!-- Generator: Sketch 61.2 (89653) - https://sketch.com -->
    <title>icon</title>
    <desc>Created with Sketch.</desc>
    <g id="Page-1" stroke="none" stroke-width="1" fill="none" fill-rule="evenodd">
        <g id="7.0-Designer---First-action-options" transform="translate(-530.000000, -393.000000)" fill-rule="nonzero">
            <g id="modal-new" transform="translate(120.000000, 222.000000)">
                <g id="options" transform="translate(100.000000, 132.000000)">
                    <g id="default" transform="translate(250.000000, 0.000000)">
                        <g id="icon+text" transform="translate(30.000000, 40.000000)">
                            <g id="icon" transform="translate(30.000000, 0.000000)">
                                <g id="Group" transform="translate(0.000000, 7.222222)" fill="#E0E8F2">
                                    <polygon id="Path" points="110.957031 86.6995804 110.957031 86.8406395 12.0605469 86.3986545 11.4751518 11.7737269 11.9100839 11.7737269 11.9100839 7.25043403 0 7.25043403 0 98.6096644 115.480324 98.6096644 115.480324 86.6995804"></polygon>
                                    <polygon id="Path" points="21.5585214 0.0141059028 26.3827402 0.0141059028 26.3827402 4.53739873 21.5585214 4.53739873"></polygon>
                                    <polygon id="Path" points="31.2069589 0.0141059028 36.0311777 0.0141059028 36.0311777 4.53739873 31.2069589 4.53739873"></polygon>
                                    <polygon id="Path" points="40.8553964 0.0141059028 45.6796152 0.0141059028 45.6796152 4.53739873 40.8553964 4.53739873"></polygon>
                                </g>
                                <path d="M129.95298,38.443287 C129.95298,29.2156758 122.446289,21.7089844 113.218678,21.7089844 C103.991066,21.7089844 96.484375,29.2156758 96.484375,38.443287 C96.484375,46.9033022 102.796766,53.9127604 110.957031,55.0200739 L110.957031,62.5643808 L115.480324,62.5643808 L115.480324,55.0200739 C123.641764,53.9127604 129.95298,46.9033022 129.95298,38.443287 Z M113.218678,50.6542969 C106.48546,50.6542969 101.007668,45.1765046 101.007668,38.443287 C101.007668,31.7100694 106.48546,26.2322772 113.218678,26.2322772 C119.951895,26.2322772 125.429688,31.7100694 125.429688,38.443287 C125.429688,45.1765046 119.951895,50.6542969 113.218678,50.6542969 Z" id="Shape" stroke="#FFFFFF" stroke-width="2" fill="#1B3E6F"></path>
                                <path d="M106.132812,60.3027344 L106.132812,79.4491464 C106.132812,82.0258247 108.22989,84.1229022 110.806568,84.1229022 L115.630787,84.1229022 C118.207465,84.1229022 120.304543,82.0258247 120.304543,79.4491464 L120.304543,60.3027344 L106.132812,60.3027344 Z" id="Path" fill="#E0E8F2"></path>
                                <path d="M125.279225,-5.40012479e-13 L14.3221933,-5.40012479e-13 C11.7443396,-5.40012479e-13 9.6484375,2.09590213 9.6484375,4.67375579 L9.6484375,96.1834491 L120.455006,96.1834491 L120.455006,91.6601562 L14.1717303,91.6601562 L14.1717303,18.9959491 L125.429688,18.9959491 L125.429688,23.9706308 L129.95298,23.9706308 L129.95298,4.67375579 C129.95298,2.09590213 127.855903,-5.40012479e-13 125.279225,-5.40012479e-13 Z M14.1717303,14.4726562 L14.1717303,4.67375579 C14.1717303,4.59029579 14.2387333,4.52329282 14.3221933,4.52329282 L125.279225,4.52329282 C125.362685,4.52329282 125.429688,4.59029579 125.429688,4.67375579 L125.429688,14.4726562 L14.1717303,14.4726562 Z" id="Shape" stroke="#FFFFFF" stroke-width="2" fill="#1B3E6F"></path>
                                <path d="M125.429688,110.806568 C125.429688,110.890028 125.362685,110.957031 125.279225,110.957031 L96.333912,110.957031 C93.7572338,110.957031 91.6601563,113.054109 91.6601563,115.630787 L91.6601563,120.605469 L12.0605469,120.605469 L12.0605469,154.074074 L117.892433,154.074074 L117.892433,120.605469 L96.1834491,120.605469 L96.1834491,115.630787 C96.1834491,115.548502 96.250452,115.480324 96.333912,115.480324 L125.279225,115.480324 C127.855903,115.480324 129.95298,113.383247 129.95298,110.806568 L129.95298,52.9159433 L125.429688,52.9159433 L125.429688,110.806568 Z M60.0018084,125.128762 L69.9511719,125.128762 L69.9511719,130.253906 L60.0018084,130.253906 L60.0018084,125.128762 Z M60.0018084,134.777199 L69.9511719,134.777199 L69.9511719,139.902344 L60.0018084,139.902344 L60.0018084,134.777199 Z M45.5291522,125.128762 L55.4785156,125.128762 L55.4785156,130.253906 L45.5291522,130.253906 L45.5291522,125.128762 Z M45.5291522,134.777199 L55.4785156,134.777199 L55.4785156,139.902344 L45.5291522,139.902344 L45.5291522,134.777199 Z M26.5332031,149.550781 L16.5838397,149.550781 L16.5838397,144.425637 L26.5332031,144.425637 L26.5332031,149.550781 Z M26.5332031,139.902344 L16.5838397,139.902344 L16.5838397,134.777199 L26.5332031,134.777199 L26.5332031,139.902344 Z M26.5332031,130.253906 L16.5838397,130.253906 L16.5838397,125.128762 L26.5332031,125.128762 L26.5332031,130.253906 Z M41.0058594,149.550781 L31.0564959,149.550781 L31.0564959,144.425637 L41.0058594,144.425637 L41.0058594,149.550781 Z M41.0058594,139.902344 L31.0564959,139.902344 L31.0564959,134.777199 L41.0058594,134.777199 L41.0058594,139.902344 Z M41.0058594,130.253906 L31.0564959,130.253906 L31.0564959,125.128762 L41.0058594,125.128762 L41.0058594,130.253906 Z M84.4238281,149.550781 L45.5291522,149.550781 L45.5291522,144.425637 L84.4238281,144.425637 L84.4238281,149.550781 Z M84.4238281,139.902344 L74.4744647,139.902344 L74.4744647,134.777199 L84.4238281,134.777199 L84.4238281,139.902344 Z M84.4238281,130.253906 L74.4744647,130.253906 L74.4744647,125.128762 L84.4238281,125.128762 L84.4238281,130.253906 Z M98.8964844,149.550781 L88.9471209,149.550781 L88.9471209,144.425637 L98.8964844,144.425637 L98.8964844,149.550781 Z M98.8964844,139.902344 L88.9471209,139.902344 L88.9471209,134.777199 L98.8964844,134.777199 L98.8964844,139.902344 Z M103.419777,125.128762 L113.369141,125.128762 L113.369141,130.253906 L103.419777,130.253906 L103.419777,125.128762 Z M103.419777,134.777199 L113.369141,134.777199 L113.369141,139.902344 L103.419777,139.902344 L103.419777,134.777199 Z M103.419777,144.425637 L113.369141,144.425637 L113.369141,149.550781 L103.419777,149.550781 L103.419777,144.425637 Z M98.8964844,125.128762 L98.8964844,130.253906 L88.9471209,130.253906 L88.9471209,125.128762 L98.8964844,125.128762 Z" id="Shape" stroke="#FFFFFF" stroke-width="2" fill="#1B3E6F"></path>
                                <g id="action" transform="translate(34.000000, 35.000000)">
                                    <g id="1">
                                        <g id="Group" transform="translate(2.836930, 2.684715)" fill="#E0E8F2">
                                            <polygon id="Path" points="0.349703874 0.411818739 9.98166155 0.411818739 9.98166155 5.18449572 0.349703874 5.18449572"></polygon>
                                            <polygon id="Path" points="5.90316753 12.212929 9.98166155 12.212929 9.98166155 16.291423 5.90316753 16.291423"></polygon>
                                        </g>
                                        <path d="M0.40990173,21.7528702 L15.5953231,21.7528702 L15.5953231,0.319802285 L0.40990173,0.319802285 L0.40990173,21.7528702 Z M1.71166392,1.62156448 L14.2935609,1.62156448 L14.2935609,20.451108 L1.71166392,20.451108 L1.71166392,1.62156448 Z" id="Shape" fill="#1B3E6F"></path>
                                        <path d="M8.74009721,13.4226747 L12.8185912,13.4226747 L12.8185912,9.34418073 L8.74009721,9.34418073 L8.74009721,13.4226747 Z M10.0418594,10.6459429 L11.516829,10.6459429 L11.516829,12.1209126 L10.0418594,12.1209126 L10.0418594,10.6459429 Z" id="Shape" fill="#1B3E6F"></path>
                                        <path d="M3.18663356,18.9761384 L7.26512758,18.9761384 L7.26512758,14.8976444 L3.18663356,14.8976444 L3.18663356,18.9761384 Z M4.48839575,16.1994066 L5.96336539,16.1994066 L5.96336539,17.6743762 L4.48839575,17.6743762 L4.48839575,16.1994066 Z" id="Shape" fill="#1B3E6F"></path>
                                        <path d="M3.18663356,13.4226747 L7.26512758,13.4226747 L7.26512758,9.34418073 L3.18663356,9.34418073 L3.18663356,13.4226747 Z M4.48839575,10.6459429 L5.96336539,10.6459429 L5.96336539,12.1209126 L4.48839575,12.1209126 L4.48839575,10.6459429 Z" id="Shape" fill="#1B3E6F"></path>
                                    </g>
                                    <g id="2" transform="translate(21.000000, 0.000000)">
                                        <g id="Group" transform="translate(2.836930, 2.684715)" fill="#E0E8F2">
                                            <polygon id="Path" points="0.349703874 0.411818739 9.98166155 0.411818739 9.98166155 5.18449572 0.349703874 5.18449572"></polygon>
                                            <polygon id="Path" points="5.90316753 12.212929 9.98166155 12.212929 9.98166155 16.291423 5.90316753 16.291423"></polygon>
                                        </g>
                                        <path d="M0.40990173,21.7528702 L15.5953231,21.7528702 L15.5953231,0.319802285 L0.40990173,0.319802285 L0.40990173,21.7528702 Z M1.71166392,1.62156448 L14.2935609,1.62156448 L14.2935609,20.451108 L1.71166392,20.451108 L1.71166392,1.62156448 Z" id="Shape" fill="#1B3E6F"></path>
                                        <path d="M8.74009721,13.4226747 L12.8185912,13.4226747 L12.8185912,9.34418073 L8.74009721,9.34418073 L8.74009721,13.4226747 Z M10.0418594,10.6459429 L11.516829,10.6459429 L11.516829,12.1209126 L10.0418594,12.1209126 L10.0418594,10.6459429 Z" id="Shape" fill="#1B3E6F"></path>
                                        <path d="M3.18663356,18.9761384 L7.26512758,18.9761384 L7.26512758,14.8976444 L3.18663356,14.8976444 L3.18663356,18.9761384 Z M4.48839575,16.1994066 L5.96336539,16.1994066 L5.96336539,17.6743762 L4.48839575,17.6743762 L4.48839575,16.1994066 Z" id="Shape" fill="#1B3E6F"></path>
                                        <path d="M3.18663356,13.4226747 L7.26512758,13.4226747 L7.26512758,9.34418073 L3.18663356,9.34418073 L3.18663356,13.4226747 Z M4.48839575,10.6459429 L5.96336539,10.6459429 L5.96336539,12.1209126 L4.48839575,12.1209126 L4.48839575,10.6459429 Z" id="Shape" fill="#1B3E6F"></path>
                                    </g>
                                    <g id="3" transform="translate(41.000000, 0.000000)">
                                        <g id="Group" transform="translate(2.836930, 2.684715)" fill="#E0E8F2">
                                            <polygon id="Path" points="0.349703874 0.411818739 9.98166155 0.411818739 9.98166155 5.18449572 0.349703874 5.18449572"></polygon>
                                            <polygon id="Path" points="5.90316753 12.212929 9.98166155 12.212929 9.98166155 16.291423 5.90316753 16.291423"></polygon>
                                        </g>
                                        <path d="M0.40990173,21.7528702 L15.5953231,21.7528702 L15.5953231,0.319802285 L0.40990173,0.319802285 L0.40990173,21.7528702 Z M1.71166392,1.62156448 L14.2935609,1.62156448 L14.2935609,20.451108 L1.71166392,20.451108 L1.71166392,1.62156448 Z" id="Shape" fill="#1B3E6F"></path>
                                        <path d="M8.74009721,13.4226747 L12.8185912,13.4226747 L12.8185912,9.34418073 L8.74009721,9.34418073 L8.74009721,13.4226747 Z M10.0418594,10.6459429 L11.516829,10.6459429 L11.516829,12.1209126 L10.0418594,12.1209126 L10.0418594,10.6459429 Z" id="Shape" fill="#1B3E6F"></path>
                                        <path d="M3.18663356,18.9761384 L7.26512758,18.9761384 L7.26512758,14.8976444 L3.18663356,14.8976444 L3.18663356,18.9761384 Z M4.48839575,16.1994066 L5.96336539,16.1994066 L5.96336539,17.6743762 L4.48839575,17.6743762 L4.48839575,16.1994066 Z" id="Shape" fill="#1B3E6F"></path>
                                        <path d="M3.18663356,13.4226747 L7.26512758,13.4226747 L7.26512758,9.34418073 L3.18663356,9.34418073 L3.18663356,13.4226747 Z M4.48839575,10.6459429 L5.96336539,10.6459429 L5.96336539,12.1209126 L4.48839575,12.1209126 L4.48839575,10.6459429 Z" id="Shape" fill="#1B3E6F"></path>
                                    </g>
                                    <g id="4" transform="translate(0.000000, 25.000000)">
                                        <g id="Group" transform="translate(2.836930, 2.684715)" fill="#E0E8F2">
                                            <polygon id="Path" points="0.349703874 0.411818739 9.98166155 0.411818739 9.98166155 5.18449572 0.349703874 5.18449572"></polygon>
                                            <polygon id="Path" points="5.90316753 12.212929 9.98166155 12.212929 9.98166155 16.291423 5.90316753 16.291423"></polygon>
                                        </g>
                                        <path d="M0.40990173,21.7528702 L15.5953231,21.7528702 L15.5953231,0.319802285 L0.40990173,0.319802285 L0.40990173,21.7528702 Z M1.71166392,1.62156448 L14.2935609,1.62156448 L14.2935609,20.451108 L1.71166392,20.451108 L1.71166392,1.62156448 Z" id="Shape" fill="#1B3E6F"></path>
                                        <path d="M8.74009721,13.4226747 L12.8185912,13.4226747 L12.8185912,9.34418073 L8.74009721,9.34418073 L8.74009721,13.4226747 Z M10.0418594,10.6459429 L11.516829,10.6459429 L11.516829,12.1209126 L10.0418594,12.1209126 L10.0418594,10.6459429 Z" id="Shape" fill="#1B3E6F"></path>
                                        <path d="M3.18663356,18.9761384 L7.26512758,18.9761384 L7.26512758,14.8976444 L3.18663356,14.8976444 L3.18663356,18.9761384 Z M4.48839575,16.1994066 L5.96336539,16.1994066 L5.96336539,17.6743762 L4.48839575,17.6743762 L4.48839575,16.1994066 Z" id="Shape" fill="#1B3E6F"></path>
                                        <path d="M3.18663356,13.4226747 L7.26512758,13.4226747 L7.26512758,9.34418073 L3.18663356,9.34418073 L3.18663356,13.4226747 Z M4.48839575,10.6459429 L5.96336539,10.6459429 L5.96336539,12.1209126 L4.48839575,12.1209126 L4.48839575,10.6459429 Z" id="Shape" fill="#1B3E6F"></path>
                                    </g>
                                    <g id="5" transform="translate(21.000000, 25.000000)">
                                        <g id="Group" transform="translate(2.836930, 2.684715)" fill="#E0E8F2">
                                            <polygon id="Path" points="0.349703874 0.411818739 9.98166155 0.411818739 9.98166155 5.18449572 0.349703874 5.18449572"></polygon>
                                            <polygon id="Path" points="5.90316753 12.212929 9.98166155 12.212929 9.98166155 16.291423 5.90316753 16.291423"></polygon>
                                        </g>
                                        <path d="M0.40990173,21.7528702 L15.5953231,21.7528702 L15.5953231,0.319802285 L0.40990173,0.319802285 L0.40990173,21.7528702 Z M1.71166392,1.62156448 L14.2935609,1.62156448 L14.2935609,20.451108 L1.71166392,20.451108 L1.71166392,1.62156448 Z" id="Shape" fill="#1B3E6F"></path>
                                        <path d="M8.74009721,13.4226747 L12.8185912,13.4226747 L12.8185912,9.34418073 L8.74009721,9.34418073 L8.74009721,13.4226747 Z M10.0418594,10.6459429 L11.516829,10.6459429 L11.516829,12.1209126 L10.0418594,12.1209126 L10.0418594,10.6459429 Z" id="Shape" fill="#1B3E6F"></path>
                                        <path d="M3.18663356,18.9761384 L7.26512758,18.9761384 L7.26512758,14.8976444 L3.18663356,14.8976444 L3.18663356,18.9761384 Z M4.48839575,16.1994066 L5.96336539,16.1994066 L5.96336539,17.6743762 L4.48839575,17.6743762 L4.48839575,16.1994066 Z" id="Shape" fill="#1B3E6F"></path>
                                        <path d="M3.18663356,13.4226747 L7.26512758,13.4226747 L7.26512758,9.34418073 L3.18663356,9.34418073 L3.18663356,13.4226747 Z M4.48839575,10.6459429 L5.96336539,10.6459429 L5.96336539,12.1209126 L4.48839575,12.1209126 L4.48839575,10.6459429 Z" id="Shape" fill="#1B3E6F"></path>
                                    </g>
                                    <g id="6" transform="translate(41.000000, 25.000000)">
                                        <g id="Group" transform="translate(2.836930, 2.684715)" fill="#E0E8F2">
                                            <polygon id="Path" points="0.349703874 0.411818739 9.98166155 0.411818739 9.98166155 5.18449572 0.349703874 5.18449572"></polygon>
                                            <polygon id="Path" points="5.90316753 12.212929 9.98166155 12.212929 9.98166155 16.291423 5.90316753 16.291423"></polygon>
                                        </g>
                                        <path d="M0.40990173,21.7528702 L15.5953231,21.7528702 L15.5953231,0.319802285 L0.40990173,0.319802285 L0.40990173,21.7528702 Z M1.71166392,1.62156448 L14.2935609,1.62156448 L14.2935609,20.451108 L1.71166392,20.451108 L1.71166392,1.62156448 Z" id="Shape" fill="#1B3E6F"></path>
                                        <path d="M8.74009721,13.4226747 L12.8185912,13.4226747 L12.8185912,9.34418073 L8.74009721,9.34418073 L8.74009721,13.4226747 Z M10.0418594,10.6459429 L11.516829,10.6459429 L11.516829,12.1209126 L10.0418594,12.1209126 L10.0418594,10.6459429 Z" id="Shape" fill="#1B3E6F"></path>
                                        <path d="M3.18663356,18.9761384 L7.26512758,18.9761384 L7.26512758,14.8976444 L3.18663356,14.8976444 L3.18663356,18.9761384 Z M4.48839575,16.1994066 L5.96336539,16.1994066 L5.96336539,17.6743762 L4.48839575,17.6743762 L4.48839575,16.1994066 Z" id="Shape" fill="#1B3E6F"></path>
                                        <path d="M3.18663356,13.4226747 L7.26512758,13.4226747 L7.26512758,9.34418073 L3.18663356,9.34418073 L3.18663356,13.4226747 Z M4.48839575,10.6459429 L5.96336539,10.6459429 L5.96336539,12.1209126 L4.48839575,12.1209126 L4.48839575,10.6459429 Z" id="Shape" fill="#1B3E6F"></path>
                                    </g>
                                </g>
                            </g>
                        </g>
                    </g>
                </g>
            </g>
        </g>
    </g>
</svg>