<?xml version="1.0" encoding="UTF-8"?>
<svg width="15px" height="15px" viewBox="0 0 15 15" version="1.1" xmlns="http://www.w3.org/2000/svg" xmlns:xlink="http://www.w3.org/1999/xlink">
    <!-- Generator: Sketch 61.2 (89653) - https://sketch.com -->
    <title>icon-info-color</title>
    <desc>Created with Sketch.</desc>
    <g id="Page-1" stroke="none" stroke-width="1" fill="none" fill-rule="evenodd">
        <g id="icon-info-color" fill="#1273EB" fill-rule="nonzero">
            <path d="M7.3825,0 C3.305625,0 0,3.305625 0,7.3825 C0,11.459375 3.305625,14.765625 7.3825,14.765625 C11.459375,14.765625 14.765625,11.459375 14.765625,7.3825 C14.765625,3.305625 11.459375,0 7.3825,0 Z M8.919375,11.441875 C8.539375,11.591875 8.236875,11.705625 8.01,11.784375 C7.78375,11.863125 7.520625,11.9025 7.22125,11.9025 C6.76125,11.9025 6.403125,11.79 6.148125,11.565625 C5.893125,11.34125 5.76625,11.056875 5.76625,10.71125 C5.76625,10.576875 5.775625,10.439375 5.794375,10.299375 C5.81375,10.159375 5.844375,10.001875 5.88625,9.825 L6.361875,8.145 C6.40375,7.98375 6.44,7.830625 6.46875,7.688125 C6.4975,7.544375 6.51125,7.4125 6.51125,7.2925 C6.51125,7.07875 6.466875,6.92875 6.37875,6.844375 C6.289375,6.76 6.12125,6.71875 5.870625,6.71875 C5.748125,6.71875 5.621875,6.736875 5.4925,6.775 C5.364375,6.814375 5.253125,6.85 5.161875,6.885 L5.2875,6.3675 C5.59875,6.240625 5.896875,6.131875 6.18125,6.041875 C6.465625,5.950625 6.734375,5.905625 6.9875,5.905625 C7.444375,5.905625 7.796875,6.016875 8.045,6.236875 C8.291875,6.4575 8.41625,6.744375 8.41625,7.096875 C8.41625,7.17 8.4075,7.29875 8.390625,7.4825 C8.37375,7.666875 8.341875,7.835 8.295625,7.989375 L7.8225,9.664375 C7.78375,9.79875 7.749375,9.9525 7.718125,10.124375 C7.6875,10.29625 7.6725,10.4275 7.6725,10.515625 C7.6725,10.738125 7.721875,10.89 7.821875,10.970625 C7.920625,11.05125 8.09375,11.091875 8.33875,11.091875 C8.454375,11.091875 8.58375,11.07125 8.73,11.03125 C8.875,10.99125 8.98,10.955625 9.04625,10.925 L8.919375,11.441875 Z M8.835625,4.643125 C8.615,4.848125 8.349375,4.950625 8.03875,4.950625 C7.72875,4.950625 7.46125,4.848125 7.23875,4.643125 C7.0175,4.438125 6.905625,4.18875 6.905625,3.8975 C6.905625,3.606875 7.018125,3.356875 7.23875,3.15 C7.46125,2.9425 7.72875,2.839375 8.03875,2.839375 C8.349375,2.839375 8.615625,2.9425 8.835625,3.15 C9.05625,3.356875 9.166875,3.606875 9.166875,3.8975 C9.166875,4.189375 9.05625,4.438125 8.835625,4.643125 Z" id="Shape"></path>
        </g>
    </g>
</svg>