<?xml version="1.0" encoding="UTF-8"?>
<svg width="11px" height="11px" viewBox="0 0 11 11" version="1.1" xmlns="http://www.w3.org/2000/svg" xmlns:xlink="http://www.w3.org/1999/xlink">
    <!-- Generator: Sketch 61.2 (89653) - https://sketch.com -->
    <title>deploy</title>
    <desc>Created with Sketch.</desc>
    <g id="Symbols" stroke="none" stroke-width="1" fill="none" fill-rule="evenodd">
        <g id="Package-Info---View" transform="translate(-268.000000, -29.000000)" fill="#C1CDDD" fill-rule="nonzero">
            <g id="info">
                <g transform="translate(56.000000, 24.000000)">
                    <g id="left-side">
                        <g id="name" transform="translate(60.000000, 0.000000)">
                            <g id="deploy" transform="translate(152.000000, 5.000000)">
                                <path d="M9.56615,7.59531667 L8.54021667,9.06931667 L7.81623333,8.47513333 C7.73813333,8.41078333 7.62245,8.42251667 7.55828333,8.50043333 C7.49393333,8.57871667 7.5053,8.6944 7.58376667,8.75838333 L8.4612,9.4787 C8.4942,9.50583333 8.53526667,9.5205 8.57743333,9.5205 C8.58568333,9.5205 8.59411667,9.51995 8.60255,9.51866667 C8.65315,9.5117 8.69861667,9.48383333 8.72795,9.44185 L9.86718333,7.80486667 C9.92493333,7.72181667 9.90458333,7.6076 9.82135,7.54966667 C9.73811667,7.491 9.62408333,7.5119 9.56615,7.59531667 Z" id="Path"></path>
                                <path d="M8.61666667,6.23333333 C7.30253333,6.23333333 6.23333333,7.30253333 6.23333333,8.61666667 C6.23333333,9.9308 7.30253333,11 8.61666667,11 C9.9308,11 11,9.9308 11,8.61666667 C11,7.30253333 9.9308,6.23333333 8.61666667,6.23333333 Z M8.61666667,10.6333333 C7.50475,10.6333333 6.6,9.72858333 6.6,8.61666667 C6.6,7.50475 7.50475,6.6 8.61666667,6.6 C9.72858333,6.6 10.6333333,7.50475 10.6333333,8.61666667 C10.6333333,9.72858333 9.72858333,10.6333333 8.61666667,10.6333333 Z" id="Shape"></path>
                                <path d="M10.1552,0 L0.8448,0 C0.37895,0 0,0.37895 0,0.8448 L0,3.00501667 C0,3.18358333 0.0575666667,3.34766667 0.153083333,3.48333333 L10.8467333,3.48333333 C10.9424333,3.34766667 11,3.18358333 11,3.0052 L11,0.8448 C11,0.37895 10.62105,0 10.1552,0 Z M1.925,2.75 C1.47015,2.75 1.1,2.37985 1.1,1.925 C1.1,1.47015 1.47015,1.1 1.925,1.1 C2.37985,1.1 2.75,1.47015 2.75,1.925 C2.75,2.37985 2.37985,2.75 1.925,2.75 Z M6.23333333,1.83333333 C6.13213333,1.83333333 6.05,1.7512 6.05,1.65 C6.05,1.5488 6.13213333,1.46666667 6.23333333,1.46666667 C6.33453333,1.46666667 6.41666667,1.5488 6.41666667,1.65 C6.41666667,1.7512 6.33453333,1.83333333 6.23333333,1.83333333 Z M6.6,2.38333333 C6.4988,2.38333333 6.41666667,2.3012 6.41666667,2.2 C6.41666667,2.0988 6.4988,2.01666667 6.6,2.01666667 C6.7012,2.01666667 6.78333333,2.0988 6.78333333,2.2 C6.78333333,2.3012 6.7012,2.38333333 6.6,2.38333333 Z M6.96666667,1.83333333 C6.86546667,1.83333333 6.78333333,1.7512 6.78333333,1.65 C6.78333333,1.5488 6.86546667,1.46666667 6.96666667,1.46666667 C7.06786667,1.46666667 7.15,1.5488 7.15,1.65 C7.15,1.7512 7.06786667,1.83333333 6.96666667,1.83333333 Z M7.33333333,2.38333333 C7.23213333,2.38333333 7.15,2.3012 7.15,2.2 C7.15,2.0988 7.23213333,2.01666667 7.33333333,2.01666667 C7.43453333,2.01666667 7.51666667,2.0988 7.51666667,2.2 C7.51666667,2.3012 7.43453333,2.38333333 7.33333333,2.38333333 Z M7.7,1.83333333 C7.5988,1.83333333 7.51666667,1.7512 7.51666667,1.65 C7.51666667,1.5488 7.5988,1.46666667 7.7,1.46666667 C7.8012,1.46666667 7.88333333,1.5488 7.88333333,1.65 C7.88333333,1.7512 7.8012,1.83333333 7.7,1.83333333 Z M8.06666667,2.38333333 C7.96546667,2.38333333 7.88333333,2.3012 7.88333333,2.2 C7.88333333,2.0988 7.96546667,2.01666667 8.06666667,2.01666667 C8.16786667,2.01666667 8.25,2.0988 8.25,2.2 C8.25,2.3012 8.16786667,2.38333333 8.06666667,2.38333333 Z M8.43333333,1.83333333 C8.33213333,1.83333333 8.25,1.7512 8.25,1.65 C8.25,1.5488 8.33213333,1.46666667 8.43333333,1.46666667 C8.53453333,1.46666667 8.61666667,1.5488 8.61666667,1.65 C8.61666667,1.7512 8.53453333,1.83333333 8.43333333,1.83333333 Z M8.8,2.38333333 C8.6988,2.38333333 8.61666667,2.3012 8.61666667,2.2 C8.61666667,2.0988 8.6988,2.01666667 8.8,2.01666667 C8.9012,2.01666667 8.98333333,2.0988 8.98333333,2.2 C8.98333333,2.3012 8.9012,2.38333333 8.8,2.38333333 Z M9.16666667,1.83333333 C9.06546667,1.83333333 8.98333333,1.7512 8.98333333,1.65 C8.98333333,1.5488 9.06546667,1.46666667 9.16666667,1.46666667 C9.26786667,1.46666667 9.35,1.5488 9.35,1.65 C9.35,1.7512 9.26786667,1.83333333 9.16666667,1.83333333 Z M9.53333333,2.38333333 C9.43213333,2.38333333 9.35,2.3012 9.35,2.2 C9.35,2.0988 9.43213333,2.01666667 9.53333333,2.01666667 C9.63453333,2.01666667 9.71666667,2.0988 9.71666667,2.2 C9.71666667,2.3012 9.63453333,2.38333333 9.53333333,2.38333333 Z" id="Shape"></path>
                                <path d="M5.68333333,8.61666667 C5.68333333,8.15613333 5.79296667,7.72163333 5.98308333,7.33333333 L0.153083333,7.33333333 C0.0575666667,7.469 0,7.63308333 0,7.81146667 L0,9.97168333 C0,10.4377167 0.37895,10.8166667 0.8448,10.8166667 L6.68286667,10.8166667 C6.07163333,10.2785833 5.68333333,9.493 5.68333333,8.61666667 Z M1.925,9.71666667 C1.47015,9.71666667 1.1,9.34651667 1.1,8.89166667 C1.1,8.43681667 1.47015,8.06666667 1.925,8.06666667 C2.37985,8.06666667 2.75,8.43681667 2.75,8.89166667 C2.75,9.34651667 2.37985,9.71666667 1.925,9.71666667 Z" id="Shape"></path>
                                <path d="M0.153083333,3.85 C0.0575666667,3.98566667 0,4.14975 0,4.32813333 L0,6.48835 C0,6.66691667 0.0575666667,6.831 0.153083333,6.96666667 L6.19318333,6.96666667 C6.72191667,6.19263333 7.61071667,5.68333333 8.61648333,5.68333333 C9.5557,5.68333333 10.39115,6.12883333 10.9283167,6.8178 C10.9728667,6.7166 10.9998167,6.60623333 10.9998167,6.48853333 L10.9998167,4.32813333 C10.9998167,4.14956667 10.94225,3.98566667 10.8467333,3.85 L0.153083333,3.85 Z M1.925,6.23333333 C1.47015,6.23333333 1.1,5.86318333 1.1,5.40833333 C1.1,4.95348333 1.47015,4.58333333 1.925,4.58333333 C2.37985,4.58333333 2.75,4.95348333 2.75,5.40833333 C2.75,5.86318333 2.37985,6.23333333 1.925,6.23333333 Z M6.23333333,5.31666667 C6.13213333,5.31666667 6.05,5.23453333 6.05,5.13333333 C6.05,5.03213333 6.13213333,4.95 6.23333333,4.95 C6.33453333,4.95 6.41666667,5.03213333 6.41666667,5.13333333 C6.41666667,5.23453333 6.33453333,5.31666667 6.23333333,5.31666667 Z M6.96666667,5.31666667 C6.86546667,5.31666667 6.78333333,5.23453333 6.78333333,5.13333333 C6.78333333,5.03213333 6.86546667,4.95 6.96666667,4.95 C7.06786667,4.95 7.15,5.03213333 7.15,5.13333333 C7.15,5.23453333 7.06786667,5.31666667 6.96666667,5.31666667 Z M7.7,5.31666667 C7.5988,5.31666667 7.51666667,5.23453333 7.51666667,5.13333333 C7.51666667,5.03213333 7.5988,4.95 7.7,4.95 C7.8012,4.95 7.88333333,5.03213333 7.88333333,5.13333333 C7.88333333,5.23453333 7.8012,5.31666667 7.7,5.31666667 Z M8.43333333,5.31666667 C8.33213333,5.31666667 8.25,5.23453333 8.25,5.13333333 C8.25,5.03213333 8.33213333,4.95 8.43333333,4.95 C8.53453333,4.95 8.61666667,5.03213333 8.61666667,5.13333333 C8.61666667,5.23453333 8.53453333,5.31666667 8.43333333,5.31666667 Z M9.16666667,5.31666667 C9.06546667,5.31666667 8.98333333,5.23453333 8.98333333,5.13333333 C8.98333333,5.03213333 9.06546667,4.95 9.16666667,4.95 C9.26786667,4.95 9.35,5.03213333 9.35,5.13333333 C9.35,5.23453333 9.26786667,5.31666667 9.16666667,5.31666667 Z" id="Shape"></path>
                            </g>
                        </g>
                    </g>
                </g>
            </g>
        </g>
    </g>
</svg>