<?xml version="1.0" encoding="UTF-8"?>
<svg width="15px" height="14px" viewBox="0 0 15 14" version="1.1" xmlns="http://www.w3.org/2000/svg" xmlns:xlink="http://www.w3.org/1999/xlink">
    <!-- Generator: Sketch 60 (88103) - https://sketch.com -->
    <title>sketch</title>
    <desc>Created with Sketch.</desc>
    <g id="Page-1" stroke="none" stroke-width="1" fill="none" fill-rule="evenodd">
        <g id="3.1.1-Designer" transform="translate(-756.000000, -73.000000)" fill="#FFFFFF" fill-rule="nonzero">
            <g id="edit-actions" transform="translate(543.000000, 61.000000)">
                <g id="elements" transform="translate(10.000000, 6.000000)">
                    <g id="view-options" transform="translate(192.000000, 0.000000)">
                        <g id="view">
                            <g id="txt" transform="translate(11.000000, 6.000000)">
                                <g id="sketch">
                                    <path d="M15,1.90910156 C15,0.864492188 14.1494531,0.0146484375 13.1039941,0.0146484375 L1.89600586,0.0146484375 C0.850546875,0.0146484375 2.84217094e-14,0.864492187 2.84217094e-14,1.90910156 L2.84217094e-14,9.68118164 C2.84217094e-14,10.1628223 0.180820313,10.6030664 0.478212891,10.9376953 C0.18796875,11.1564258 2.84217094e-14,11.5038281 2.84217094e-14,11.8942676 C2.84217094e-14,13.0171289 0.914267578,13.9306641 2.03806641,13.9306641 L12.9619043,13.9306641 C14.0857031,13.9306641 15,13.0171289 15,11.8942676 C15,11.5038281 14.812002,11.1564258 14.5217578,10.9376953 C14.8191797,10.6030664 15,10.1628223 15,9.68118164 L15,1.90910156 Z M0.87890625,1.90910156 C0.87890625,1.34912109 1.33517578,0.893554688 1.89600586,0.893554688 L13.1039941,0.893554688 C13.6648242,0.893554688 14.1210938,1.34912109 14.1210938,1.90910156 L14.1210938,9.68118164 C14.1210938,10.2411621 13.6648242,10.6967285 13.1039941,10.6967285 L10.1249121,10.6967285 C9.72714844,10.6967285 9.40353516,11.0202246 9.40353516,11.4178125 C9.40353516,11.5361719 9.30691406,11.6324707 9.18817383,11.6324707 L5.81182617,11.6324707 C5.69308594,11.6324707 5.59646484,11.5361719 5.59646484,11.4178125 C5.59646484,11.0202246 5.27285156,10.6967285 4.87508789,10.6967285 L1.89600586,10.6967285 C1.33517578,10.6967285 0.87890625,10.2411621 0.87890625,9.68118164 L0.87890625,1.90910156 Z M12.9619336,13.0517578 L2.03806641,13.0517578 C1.39889648,13.0517578 0.87890625,12.5325 0.87890625,11.8942676 C0.87890625,11.7185742 1.02222656,11.5756348 1.19833008,11.5756348 L4.72892578,11.5756348 C4.80571289,12.1041211 5.26207031,12.5113477 5.81182617,12.5113477 L9.18817383,12.5113477 C9.73792969,12.5113477 10.1942871,12.1040918 10.2710742,11.5756348 L13.8016699,11.5756348 C13.9778027,11.5756348 14.1210938,11.7185742 14.1210938,11.8942676 C14.1210938,12.5325 13.6011035,13.0517578 12.9619336,13.0517578 Z" id="Shape"></path>
                                    <path d="M8.75830078,9.28186523 C8.78850586,9.41323242 8.87736328,9.52347656 8.99935547,9.58092773 C9.05868164,9.60887695 9.12263672,9.62282227 9.1865918,9.62282227 C9.2540918,9.62282227 9.32150391,9.60729492 9.3834375,9.57626953 L10.787959,8.87267578 C10.8760254,8.82855469 10.9467187,8.75613281 10.9887012,8.66701172 L13.2263379,3.91576172 C13.5576855,3.21222656 13.254873,2.37029297 12.5513086,2.03894531 L12.5513379,2.03894531 C12.210498,1.87842773 11.8275879,1.86023437 11.473125,1.98773437 C11.1186035,2.11523437 10.8350098,2.37313477 10.6744922,2.71394531 L8.43682617,7.46519531 C8.39484375,7.55431641 8.3840332,7.65495117 8.40612305,7.75095703 L8.75830078,9.28186523 Z M11.7705469,2.81475586 C11.9041113,2.76673828 12.0484277,2.77356445 12.1768066,2.8340625 L12.1768359,2.8340625 C12.4419141,2.95892578 12.5560254,3.27615234 12.4311914,3.54125977 L12.2237695,3.98165039 L11.2622168,3.5287793 L11.4696387,3.08838867 C11.5301074,2.95998047 11.6369531,2.86280273 11.7705469,2.81475586 L11.7705469,2.81475586 Z M10.8877148,4.32392578 L11.8492969,4.77676758 L10.2583008,8.15493164 L9.48952148,8.54006836 L9.29674805,7.70206055 L10.8877148,4.32392578 Z" id="Shape"></path>
                                    <path d="M2.37079102,9.62279297 L6.62724609,9.62279297 C6.86994141,9.62279297 7.06669922,9.42603516 7.06669922,9.18333984 L7.06669922,5.75036133 C7.06669922,5.50766602 6.86994141,5.3109082 6.62724609,5.3109082 L2.37079102,5.3109082 C2.1280957,5.3109082 1.93133789,5.50766602 1.93133789,5.75036133 L1.93133789,9.18333984 C1.93133789,9.42603516 2.1280957,9.62279297 2.37079102,9.62279297 Z M2.81024414,6.18981445 L6.18779297,6.18981445 L6.18779297,8.74388672 L2.81024414,8.74388672 L2.81024414,6.18981445 Z" id="Shape"></path>
                                    <path d="M2.37079102,2.82873047 L7.81514648,2.82873047 C8.0578418,2.82873047 8.25459961,2.63197266 8.25459961,2.38927734 C8.25459961,2.14658203 8.0578418,1.94982422 7.81514648,1.94982422 L2.37079102,1.94982422 C2.1280957,1.94982422 1.93133789,2.14658203 1.93133789,2.38927734 C1.93133789,2.63197266 2.1280957,2.82873047 2.37079102,2.82873047 Z" id="Path"></path>
                                    <path d="M2.37079102,4.29357422 L6.49678711,4.29357422 C6.73948242,4.29357422 6.93624023,4.09681641 6.93624023,3.85412109 C6.93624023,3.61142578 6.73948242,3.41466797 6.49678711,3.41466797 L2.37079102,3.41466797 C2.1280957,3.41466797 1.93133789,3.61142578 1.93133789,3.85412109 C1.93133789,4.09681641 2.1280957,4.29357422 2.37079102,4.29357422 Z" id="Path"></path>
                                </g>
                            </g>
                        </g>
                    </g>
                </g>
            </g>
        </g>
    </g>
</svg>