<?xml version="1.0" encoding="UTF-8"?>
<svg width="14px" height="10px" viewBox="0 0 14 10" version="1.1" xmlns="http://www.w3.org/2000/svg" xmlns:xlink="http://www.w3.org/1999/xlink">
    <!-- Generator: Sketch 59.1 (86144) - https://sketch.com -->
    <title>Shape</title>
    <desc>Created with Sketch.</desc>
    <g id="Page-1" stroke="none" stroke-width="1" fill="none" fill-rule="evenodd">
        <g id="1.1.2-Packages-List---Actions-menu" transform="translate(-256.000000, -327.000000)" fill="#1B3E6F" fill-rule="nonzero">
            <g id="Tab-content" transform="translate(80.000000, 155.000000)">
                <g id="cards" transform="translate(0.000000, 48.000000)">
                    <g id="row-1">
                        <g id="Add">
                            <g id="actions" transform="translate(17.000000, 114.000000)">
                                <g id="import" transform="translate(149.000000, 0.000000)">
                                    <g id="txt" transform="translate(10.000000, 9.000000)">
                                        <path d="M11.3166667,4.5 C10.9083333,2.51666667 9.15833333,1 7,1 C5.30833333,1 3.85,1.93333333 3.15,3.33333333 C1.34166667,3.56666667 0,5.025 0,6.83333333 C0,8.75833333 1.575,10.3333333 3.5,10.3333333 L11.0833333,10.3333333 C12.7166667,10.3333333 14,9.05 14,7.41666667 C14,5.9 12.775,4.61666667 11.3166667,4.5 Z M8.16666667,6.25 L8.16666667,8.58333333 L5.83333333,8.58333333 L5.83333333,6.25 L4.08333333,6.25 L7,3.33333333 L9.91666667,6.25 L8.16666667,6.25 Z" id="Shape"></path>
                                    </g>
                                </g>
                            </g>
                        </g>
                    </g>
                </g>
            </g>
        </g>
    </g>
</svg>