<?xml version="1.0" encoding="UTF-8"?>
<svg width="26px" height="23px" viewBox="0 0 26 23" version="1.1" xmlns="http://www.w3.org/2000/svg" xmlns:xlink="http://www.w3.org/1999/xlink">
    <!-- Generator: Sketch 61.2 (89653) - https://sketch.com -->
    <title>Path</title>
    <desc>Created with Sketch.</desc>
    <defs>
        <filter x="-16.0%" y="-3.0%" width="132.0%" height="106.0%" filterUnits="objectBoundingBox" id="filter-1">
            <feOffset dx="0" dy="2" in="SourceAlpha" result="shadowOffsetOuter1"></feOffset>
            <feGaussianBlur stdDeviation="3" in="shadowOffsetOuter1" result="shadowBlurOuter1"></feGaussianBlur>
            <feColorMatrix values="0 0 0 0 0.184313725   0 0 0 0 0.325490196   0 0 0 0 0.592156863  0 0 0 0.15 0" type="matrix" in="shadowBlurOuter1" result="shadowMatrixOuter1"></feColorMatrix>
            <feMerge>
                <feMergeNode in="shadowMatrixOuter1"></feMergeNode>
                <feMergeNode in="SourceGraphic"></feMergeNode>
            </feMerge>
        </filter>
    </defs>
    <g id="Symbols" stroke="none" stroke-width="1" fill="none" fill-rule="evenodd">
        <g id="Sliding-actions---Package---Active" transform="translate(-37.000000, -36.000000)" fill="#FFFFFF" fill-rule="nonzero">
            <g id="sliding-actions" filter="url(#filter-1)">
                <g id="save" transform="translate(30.000000, 25.000000)">
                    <g id="btn">
                        <g id="check" transform="translate(13.000000, 15.000000)">
                            <path d="M5.36086387,10.6613874 C5.22722513,10.7958115 5.0448953,10.8708115 4.85549738,10.8708115 C4.66609947,10.8708115 4.48376963,10.7958115 4.3501309,10.6613874 L0.314136126,6.62473821 C-0.104712042,6.20589004 -0.104712042,5.52670157 0.314136126,5.10863876 L0.819502609,4.60314136 C1.23848169,4.18429319 1.91688481,4.18429319 2.33573298,4.60314136 L4.85549738,7.12303665 L11.664267,0.314136126 C12.0832461,-0.104712042 12.7623037,-0.104712042 13.1804974,0.314136126 L13.6858639,0.819633525 C14.104712,1.23848169 14.104712,1.91753925 13.6858639,2.33573298 L5.36086387,10.6613874 Z" id="Path"></path>
                        </g>
                    </g>
                </g>
            </g>
        </g>
    </g>
</svg>