<?xml version="1.0" encoding="UTF-8"?>
<svg width="20px" height="20px" viewBox="0 0 20 20" version="1.1" xmlns="http://www.w3.org/2000/svg" xmlns:xlink="http://www.w3.org/1999/xlink">
    <!-- Generator: Sketch 59.1 (86144) - https://sketch.com -->
    <title>dictionary</title>
    <desc>Created with Sketch.</desc>
    <g id="Symbols" stroke="none" stroke-width="1" fill="none" fill-rule="evenodd">
        <g id="Side-Nav" transform="translate(-15.000000, -155.000000)" fill="#FFFFFF" fill-rule="nonzero">
            <g id="links">
                <g transform="translate(10.000000, 90.000000)">
                    <g id="data-dictionary" transform="translate(0.000000, 60.000000)">
                        <g id="dictionary" transform="translate(5.000000, 5.000000)">
                            <path d="M19.364388,8.33665365 C19.0947917,8.33665365 18.876237,8.55520833 18.876237,8.82480469 L18.876237,12.794987 C18.876237,13.0645833 19.0947917,13.283138 19.364388,13.283138 C19.6339844,13.283138 19.8525391,13.0645833 19.8525391,12.794987 L19.8525391,8.82480469 C19.852474,8.55520833 19.6339193,8.33665365 19.364388,8.33665365 L19.364388,8.33665365 Z" id="Path"></path>
                            <path d="M18.7533854,0.009765625 L2.015625,0.009765625 C0.904166667,0.009765625 2.84217094e-14,0.675530394 2.84217094e-14,1.49382332 L2.84217094e-14,17.8217175 C2.84217094e-14,18.7761928 1.0546875,19.5527346 2.35110677,19.5527346 L17.9723307,19.5527346 C18.2379557,19.5527346 18.4749349,19.4361575 18.5760417,19.2556834 C18.6776693,19.0742986 18.6208984,18.8674604 18.4314453,18.7287375 C18.1008464,18.4867632 17.9188151,18.1646422 17.9188151,17.8217175 C17.9188151,17.4226613 18.1695313,17.0514551 18.594987,16.8094808 L18.7533854,16.8094808 C19.3594401,16.8094808 19.8525391,16.4464715 19.8525391,16.0001996 L19.8525391,12.2091896 C19.8525391,12.0106921 19.6339844,11.8497754 19.364388,11.8497754 C19.0947917,11.8497754 18.876237,12.0106921 18.876237,12.2091896 L18.876237,16.0001996 C18.876237,16.0500996 18.8211589,16.0906524 18.7533854,16.0906524 L18.4384766,16.0906524 L2.35110677,16.0906524 C1.86022135,16.0906524 1.37408854,16.2063667 0.976302083,16.41819 L0.976302083,1.49382332 C0.976302083,1.07190226 1.44251302,0.728594085 2.015625,0.728594085 L18.7533854,0.728594085 C18.8211589,0.728594085 18.876237,0.769146824 18.876237,0.819046826 L18.876237,3.64882272 C18.876237,3.84732023 19.0947917,4.00823695 19.364388,4.00823695 C19.6339844,4.00823695 19.8525391,3.84732023 19.8525391,3.64882272 L19.8525391,0.819046826 C19.8525391,0.372822891 19.3594401,0.009765625 18.7533854,0.009765625 L18.7533854,0.009765625 Z M17.3156901,16.8094329 C17.0746094,17.1113734 16.942513,17.4592354 16.942513,17.8217175 C16.942513,18.1834805 17.0722005,18.5304317 17.3153646,18.8339541 L2.35110677,18.8339541 C1.59303385,18.8339541 0.976302083,18.3798689 0.976302083,17.8217175 C0.976302083,17.2635661 1.59303385,16.8094808 2.35110677,16.8094808 L17.3156901,16.8094808 L17.3156901,16.8094329 Z" id="Shape"></path>
                            <path d="M6.81070117,3.8906901 C5.76393702,3.8906901 4.91230469,4.74232244 4.91230469,5.78908659 L4.91230469,10.0275451 C4.91230469,11.0743092 5.76393702,11.9259416 6.81070117,11.9259416 L13.0418382,11.9259416 C14.0886024,11.9259416 14.9402347,11.0743092 14.9402347,10.0275451 L14.9402347,5.78908659 C14.9402347,4.74232244 14.0886024,3.8906901 13.0418382,3.8906901 L6.81070117,3.8906901 Z M14.1262718,5.78908659 L14.1262718,10.0275451 C14.1262718,10.6255332 13.639772,11.1119786 13.0418382,11.1119786 L6.81070117,11.1119786 C6.21271306,11.1119786 5.72621334,10.6254789 5.72621334,10.0275451 L5.72621334,5.78908659 C5.72621334,5.19109848 6.21271306,4.70459876 6.81070117,4.70459876 L13.0418382,4.70459876 C13.6398263,4.70459876 14.1262718,5.19109848 14.1262718,5.78908659 L14.1262718,5.78908659 Z" id="Shape"></path>
                            <path d="M12.2632775,7.21752698 C12.1290788,7.21752698 12.0805245,7.18342337 11.9741675,7.10876152 C11.8299497,7.00751041 11.6324571,6.86888021 11.2699858,6.86888021 C10.9075146,6.86888021 10.7100219,7.00755858 10.5658041,7.10876152 C10.4594471,7.18342337 10.4108928,7.21752698 10.2766942,7.21752698 C10.1424955,7.21752698 10.0939412,7.18342337 9.98758419,7.10876152 C9.84336639,7.00751041 9.64582558,6.86888021 9.2834025,6.86888021 C8.92097941,6.86888021 8.72348677,7.00755858 8.57931714,7.10880969 C8.47296012,7.18347154 8.42440583,7.21757515 8.29025534,7.21757515 C8.15610485,7.21757515 8.10755056,7.18351971 8.00124172,7.10880969 C7.85702392,7.00755858 7.65953128,6.86888021 7.29710819,6.86888021 C7.09764062,6.86888021 6.9359375,7.03058333 6.9359375,7.2300509 C6.9359375,7.42951847 7.09764062,7.59122159 7.29710819,7.59122159 C7.43125868,7.59122159 7.47981297,7.62527703 7.58612182,7.69998705 C7.73033962,7.80123816 7.92783226,7.93991653 8.29025534,7.93991653 C8.65267843,7.93991653 8.85017107,7.80123816 8.99438887,7.69998705 C9.10069772,7.6253252 9.149252,7.59122159 9.2834025,7.59122159 C9.41760115,7.59122159 9.46615544,7.6253252 9.57256063,7.69998705 C9.71677842,7.80123816 9.91431924,7.93986836 10.2767423,7.93986836 C10.6391654,7.93986836 10.8366581,7.80118999 10.980924,7.69998705 C11.087281,7.6253252 11.1358353,7.59122159 11.2700821,7.59122159 C11.404329,7.59122159 11.4528351,7.6253252 11.5591921,7.69998705 C11.7034099,7.80123816 11.9009026,7.93986836 12.2633738,7.93986836 C12.4628414,7.93986836 12.6245445,7.77816524 12.6245445,7.57869767 C12.6245445,7.3792301 12.462745,7.21752698 12.2632775,7.21752698 L12.2632775,7.21752698 Z" id="Path"></path>
                            <path d="M9.71939162,9.11588931 C9.61050686,9.11588931 9.57111138,9.08821867 9.4848165,9.02764029 C9.36780252,8.94548819 9.20756293,8.83300781 8.91346466,8.83300781 C8.6193664,8.83300781 8.45912681,8.94552727 8.34211283,9.02764029 C8.25581795,9.08821867 8.21642246,9.11588931 8.10753771,9.11588931 C7.99865296,9.11588931 7.95925747,9.08821867 7.87292351,9.02764029 C7.75590953,8.94548819 7.59563086,8.83300781 7.30157167,8.83300781 C7.13972969,8.83300781 7.00852865,8.96420886 7.00852865,9.12605084 C7.00852865,9.28789282 7.13972969,9.41909387 7.30157167,9.41909387 C7.41045643,9.41909387 7.44985192,9.44676451 7.5361468,9.50734289 C7.65316078,9.58949499 7.81343945,9.70197536 8.10749863,9.70197536 C8.40155781,9.70197536 8.5617974,9.58945591 8.67885046,9.50734289 C8.76514534,9.44676451 8.80454083,9.41909387 8.91346466,9.41909387 C9.02234942,9.41909387 9.06174491,9.44676451 9.14803979,9.50734289 C9.26505377,9.58949499 9.42533243,9.70197536 9.71939162,9.70197536 C9.8812336,9.70197536 10.0124346,9.57077432 10.0124346,9.40893234 C10.0124346,9.24709035 9.8812336,9.11588931 9.71939162,9.11588931 Z" id="Path"></path>
                        </g>
                    </g>
                </g>
            </g>
        </g>
    </g>
</svg>