<?xml version="1.0" encoding="UTF-8"?>
<svg width="18px" height="18px" viewBox="0 0 18 18" version="1.1" xmlns="http://www.w3.org/2000/svg" xmlns:xlink="http://www.w3.org/1999/xlink">
    <!-- Generator: Sketch 61.2 (89653) - https://sketch.com -->
    <title>yes</title>
    <desc>Created with Sketch.</desc>
    <g id="Symbols" stroke="none" stroke-width="1" fill="none" fill-rule="evenodd">
        <g id="Table-Mapping-2" transform="translate(-83.000000, -76.000000)" fill="#66BB00" fill-rule="nonzero">
            <g id="table">
                <g id="body" transform="translate(0.000000, 19.000000)">
                    <g id="columns" transform="translate(26.000000, 0.000000)">
                        <g id="Required" transform="translate(35.000000, 0.000000)">
                            <path d="M37.3639492,59.6360156 C35.6640742,57.9361758 33.4039844,57 31,57 C28.5959805,57 26.3358906,57.9361758 24.6360156,59.6360156 C22.9361758,61.3358906 22,63.5960156 22,66 C22,68.4039844 22.9361758,70.6640742 24.6360156,72.3639492 C26.3358906,74.0638242 28.5960156,75 31,75 C33.4039844,75 35.6640742,74.0638242 37.3639492,72.3639844 C39.0638242,70.6640742 40,68.4039844 40,66 C40,63.5960156 39.0638242,61.3359258 37.3639492,59.6360156 Z M35.2998203,63.8580352 L30.2701914,68.8876992 C30.1672187,68.9906719 30.0322539,69.0421406 29.8973242,69.0421406 C29.7623594,69.0421406 29.6273945,68.9906719 29.5244219,68.8876992 L26.7001797,66.0634922 C26.4942344,65.857582 26.4942344,65.5237031 26.7001797,65.3177227 C26.9060898,65.1117773 27.2400039,65.1117773 27.4459492,65.3177227 L29.8973242,67.7690625 L34.5540508,63.1122656 C34.7599609,62.9063203 35.093875,62.9063203 35.2998203,63.1122656 C35.5057656,63.3182109 35.5057656,63.6520898 35.2998203,63.8580352 Z" id="yes"></path>
                        </g>
                    </g>
                </g>
            </g>
        </g>
    </g>
</svg>