<?xml version="1.0" encoding="UTF-8"?>
<svg width="18px" height="18px" viewBox="0 0 18 18" version="1.1" xmlns="http://www.w3.org/2000/svg" xmlns:xlink="http://www.w3.org/1999/xlink">
    <!-- Generator: Sketch 61.2 (89653) - https://sketch.com -->
    <title>remove</title>
    <desc>Created with Sketch.</desc>
    <g id="Page-1" stroke="none" stroke-width="1" fill="none" fill-rule="evenodd">
        <g id="3.3.1-Template-&amp;-Mapping---Upload" transform="translate(-990.000000, -630.000000)" fill="#1B3E6F" fill-rule="nonzero">
            <g id="modal-new" transform="translate(380.000000, 254.000000)">
                <g id="file" transform="translate(30.000000, 354.000000)">
                    <g id="content" transform="translate(20.000000, 22.000000)">
                        <path d="M575.359928,2.63185096 C571.850966,-0.877110575 566.141159,-0.877456729 562.631851,2.63185096 C559.122543,6.14115866 559.122889,11.8506202 562.631851,15.3599279 C566.140813,18.8692356 571.85062,18.8692356 575.359928,15.3599279 C578.868889,11.8506202 578.868889,6.1408125 575.359928,2.63185096 Z M572.545005,12.5450048 C572.274659,12.815351 571.836428,12.815351 571.566082,12.5450048 L568.995889,9.9748125 L566.303505,12.6671971 C566.033159,12.9375433 565.594928,12.9375433 565.324582,12.6671971 C565.054236,12.396851 565.054236,11.9586202 565.324582,11.688274 L568.016966,8.99588942 L565.446774,6.42569712 C565.176428,6.15535096 565.176428,5.71677404 565.446774,5.44677404 C565.71712,5.17642789 566.155351,5.17642789 566.425697,5.44677404 L568.995889,8.01696635 L571.443543,5.5693125 C571.713889,5.29896635 572.15212,5.29896635 572.422466,5.5693125 C572.692813,5.83965866 572.692813,6.27788942 572.422466,6.54823558 L569.974813,8.99588942 L572.545005,11.5660817 C572.815351,11.8364279 572.815351,12.2746587 572.545005,12.5450048 Z" id="remove"></path>
                    </g>
                </g>
            </g>
        </g>
    </g>
</svg>