<?xml version="1.0" encoding="UTF-8"?>
<svg width="7px" height="7px" viewBox="0 0 7 7" version="1.1" xmlns="http://www.w3.org/2000/svg" xmlns:xlink="http://www.w3.org/1999/xlink">
    <!-- Generator: Sketch 59.1 (86144) - https://sketch.com -->
    <title>archive-black-box</title>
    <desc>Created with Sketch.</desc>
    <g id="Page-1" stroke="none" stroke-width="1" fill="none" fill-rule="evenodd">
        <g id="1.1.2-Packages-List---Actions-menu" transform="translate(-651.000000, -270.000000)" fill="#FFFFFF" fill-rule="nonzero">
            <g id="Tab-content" transform="translate(80.000000, 155.000000)">
                <g id="cards" transform="translate(0.000000, 48.000000)">
                    <g id="row-1">
                        <g id="1" transform="translate(337.000000, 0.000000)">
                            <g id="info" transform="translate(20.000000, 19.000000)">
                                <g id="actions-menu" transform="translate(204.000000, 24.000000)">
                                    <g id="archive" transform="translate(0.000000, 18.000000)">
                                        <g id="archive-black-box" transform="translate(10.000000, 6.000000)">
                                            <path d="M6.44905882,1.88495588 L0.537455882,1.88495588 C0.464632353,1.88495588 0.401647059,1.91152941 0.348485294,1.96472059 C0.295294118,2.01788235 0.268720588,2.08086765 0.268720588,2.15364706 L0.268720588,6.18429412 C0.268720588,6.25705882 0.295294118,6.32007353 0.348485294,6.37322059 C0.401647059,6.42641176 0.464632353,6.45304412 0.537455882,6.45304412 L6.44905882,6.45304412 C6.52183824,6.45304412 6.58477941,6.42641176 6.63798529,6.37322059 C6.69113235,6.32008824 6.71770588,6.25707353 6.71770588,6.18429412 L6.71770588,2.15364706 C6.71770588,2.08082353 6.69123529,2.01789706 6.63798529,1.96472059 C6.58483824,1.91152941 6.52183824,1.88495588 6.44905882,1.88495588 Z M4.21951471,3.14872059 C4.16638235,3.20189706 4.10336765,3.22848529 4.03058824,3.22848529 L2.95575,3.22848529 C2.88301471,3.22848529 2.82002941,3.20188235 2.76682353,3.14872059 C2.71366176,3.09552941 2.68705882,3.03257353 2.68705882,2.95975 C2.68705882,2.88698529 2.71366176,2.824 2.76682353,2.77082353 C2.82001471,2.71763235 2.883,2.69102941 2.95575,2.69102941 L4.03069118,2.69102941 C4.10341176,2.69102941 4.16638235,2.71763235 4.21961765,2.77082353 C4.27276471,2.82398529 4.29933824,2.88697059 4.29933824,2.95975 C4.29933824,3.03255882 4.27270588,3.09552941 4.21951471,3.14872059 Z" id="Shape"></path>
                                            <path d="M6.90673529,0.08375 C6.85352941,0.0305588235 6.79058824,0.00398529412 6.71779412,0.00398529412 L0.268705882,0.00398529412 C0.195941176,0.00398529412 0.132955882,0.0305588235 0.0797794118,0.08375 C0.0266029412,0.136911765 0,0.199897059 0,0.272676471 L0,1.34751471 C0,1.42027941 0.0266029412,1.48323529 0.0797941176,1.53644118 C0.132970588,1.58963235 0.195941176,1.61620588 0.268720588,1.61620588 L6.71770588,1.61620588 C6.79047059,1.61620588 6.85348529,1.58963235 6.90673529,1.53644118 C6.95986765,1.48325 6.98644118,1.42029412 6.98644118,1.34751471 L6.98644118,0.272676471 C6.98644118,0.199852941 6.95986765,0.136911765 6.90673529,0.08375 Z" id="Path"></path>
                                        </g>
                                    </g>
                                </g>
                            </g>
                        </g>
                    </g>
                </g>
            </g>
        </g>
    </g>
</svg>