<?xml version="1.0" encoding="UTF-8"?>
<svg width="20px" height="20px" viewBox="0 0 20 20" version="1.1" xmlns="http://www.w3.org/2000/svg" xmlns:xlink="http://www.w3.org/1999/xlink">
    <!-- Generator: Sketch 60 (88103) - https://sketch.com -->
    <title>server</title>
    <desc>Created with Sketch.</desc>
    <g id="Page-1" stroke="none" stroke-width="1" fill="none" fill-rule="evenodd">
        <g id="3.1.1-Designer" transform="translate(-55.000000, -800.000000)" fill="#1B3E6F" fill-rule="nonzero">
            <g id="controller" transform="translate(0.000000, 60.000000)">
                <g id="functions" transform="translate(0.000000, 479.000000)">
                    <g id="list" transform="translate(8.000000, 51.000000)">
                        <g id="4" transform="translate(12.000000, 200.000000)">
                            <g id="txt" transform="translate(35.000000, 10.000000)">
                                <g id="server">
                                    <path d="M3.5,2.023 C2.673,2.023 2,2.696 2,3.523 C2,4.35 2.673,5.023 3.5,5.023 C4.327,5.023 5,4.35 5,3.523 C5,2.696 4.327,2.023 3.5,2.023 Z M3.5,4.35633333 C3.04066667,4.35633333 2.66666667,3.98266667 2.66666667,3.523 C2.66666667,3.06333333 3.04066667,2.68966667 3.5,2.68966667 C3.95933333,2.68966667 4.33333333,3.06333333 4.33333333,3.523 C4.33333333,3.98266667 3.95933333,4.35633333 3.5,4.35633333 Z" id="Shape"></path>
                                    <circle id="Oval" cx="16.6666667" cy="3.023" r="1"></circle>
                                    <circle id="Oval" cx="15.3333333" cy="3.023" r="1"></circle>
                                    <circle id="Oval" cx="17.3333333" cy="4.023" r="1"></circle>
                                    <circle id="Oval" cx="16" cy="4.023" r="1"></circle>
                                    <circle id="Oval" cx="14" cy="3.023" r="1"></circle>
                                    <circle id="Oval" cx="14.6666667" cy="4.023" r="1"></circle>
                                    <circle id="Oval" cx="12.6666667" cy="3.023" r="1"></circle>
                                    <circle id="Oval" cx="13.3333333" cy="4.023" r="1"></circle>
                                    <circle id="Oval" cx="11.3333333" cy="3.023" r="1"></circle>
                                    <circle id="Oval" cx="12" cy="4.023" r="1"></circle>
                                    <path d="M20,5.48666667 L20,1.559 C20,0.712 19.311,0.023 18.464,0.023 L1.536,0.023 C0.689,0.023 0,0.712 0,1.559 L0,5.48666667 C0,5.97633333 0.234333333,6.408 0.592333333,6.68933333 C0.234333333,6.971 0,7.40266667 0,7.89233333 L0,11.82 C0,12.667 0.689,13.356 1.536,13.356 L10,13.356 L18.464,13.356 C19.311,13.356 20,12.667 20,11.82 L20,7.89233333 C20,7.40266667 19.7656667,6.971 19.4076667,6.68966667 C19.7656667,6.408 20,5.97633333 20,5.48666667 Z M19.3333333,7.89233333 L19.3333333,11.82 C19.3333333,12.2993333 18.9433333,12.6893335 18.464,12.6893335 L1.536,12.6893335 C1.05666667,12.6896667 0.666666667,12.2996667 0.666666667,11.82 L0.666666667,7.89233333 C0.666666667,7.413 1.05666667,7.023 1.536,7.023 L18.4636667,7.023 C18.9433333,7.023 19.3333333,7.413 19.3333333,7.89233333 Z M1.536,6.35633333 C1.05666667,6.35633333 0.666666667,5.96633333 0.666666667,5.48666667 L0.666666667,1.559 C0.666666667,1.07966667 1.05666667,0.689666667 1.536,0.689666667 L18.4636667,0.689666667 C18.9433333,0.689666667 19.3333333,1.07966667 19.3333333,1.559 L19.3333333,5.48666667 C19.3333333,5.966 18.9433333,6.356 18.464,6.356 L1.536,6.356 L1.536,6.35633333 Z" id="Shape"></path>
                                    <path d="M3.5,11.3563333 C4.327,11.3563333 5,10.6833333 5,9.85633333 C5,9.02933333 4.327,8.35633333 3.5,8.35633333 C2.673,8.35633333 2,9.029 2,9.85633333 C2,10.6836667 2.673,11.3563333 3.5,11.3563333 Z M3.5,9.023 C3.95933333,9.023 4.33333333,9.39666667 4.33333333,9.85633333 C4.33333333,10.316 3.95933333,10.6896667 3.5,10.6896667 C3.04066667,10.6896667 2.66666667,10.316 2.66666667,9.85633333 C2.66666667,9.39666667 3.04066667,9.023 3.5,9.023 Z" id="Shape"></path>
                                    <path d="M10.491,16.8183333 C10.5673333,16.8613333 10.6373333,16.9143333 10.6996667,16.9753333 C10.7646667,17.039 10.849,17.0706667 10.933,17.0706667 C11.0193333,17.0706667 11.1056667,17.037 11.171,16.9706667 C11.3,16.839 11.2976667,16.6283333 11.1663333,16.4993333 C11.0626667,16.3976667 10.9463333,16.3103333 10.82,16.2383333 C10.659,16.148 10.4563333,16.2033333 10.3656667,16.364 C10.275,16.524 10.331,16.7273333 10.491,16.8183333 Z" id="Path"></path>
                                    <path d="M10.5013333,18.5553333 C10.4263333,18.5993333 10.3456667,18.6326667 10.2616667,18.6553333 C10.084,18.7033333 9.97866667,18.886 10.0263333,19.064 C10.0666667,19.2126667 10.201,19.3106667 10.348,19.3106667 C10.3766667,19.3106667 10.4056667,19.307 10.435,19.2993333 C10.5756667,19.2613333 10.711,19.205 10.8366667,19.1316667 C10.9956667,19.039 11.0496667,18.8346667 10.957,18.6756667 C10.8643333,18.5163333 10.6603333,18.463 10.5013333,18.5553333 Z" id="Path"></path>
                                    <path d="M11.3333333,17.3483333 C11.1493333,17.3483333 11,17.5053333 11,17.6893333 C11,17.7773333 10.9886667,17.864 10.9663333,17.9476667 C10.9186667,18.1253333 11.0246667,18.308 11.2023333,18.3556667 C11.231,18.3633333 11.26,18.367 11.2883333,18.367 C11.4356667,18.367 11.5703333,18.2686667 11.6103333,18.1196667 C11.6476667,17.9803333 11.6666667,17.8353333 11.6666667,17.6896667 L11.6666667,17.674 C11.6666667,17.4896667 11.5173333,17.3483333 11.3333333,17.3483333 Z" id="Path"></path>
                                    <path d="M9.50333333,18.5573333 C9.42766667,18.514 9.358,18.461 9.29633333,18.3996667 C9.16566667,18.2696667 8.955,18.271 8.825,18.401 C8.695,18.5316667 8.69566667,18.7426667 8.82633333,18.8723333 C8.92966667,18.975 9.046,19.0636667 9.17233333,19.136 C9.22466667,19.166 9.28133333,19.18 9.33766667,19.18 C9.45333333,19.18 9.56566667,19.1196667 9.62733333,19.0123333 C9.71833333,18.8526667 9.663,18.649 9.50333333,18.5573333 Z" id="Path"></path>
                                    <path d="M9.55566667,16.0833333 C9.41566667,16.1216667 9.281,16.179 9.15566667,16.2526667 C8.997,16.346 8.944,16.5503333 9.03733333,16.709 C9.09966667,16.8143333 9.211,16.8733333 9.325,16.8733333 C9.38233333,16.8733333 9.44066667,16.8586667 9.49366667,16.8273333 C9.569,16.783 9.64933333,16.749 9.73333333,16.7256667 C9.91066667,16.677 10.015,16.4933333 9.966,16.316 C9.91666667,16.1386667 9.73333333,16.035 9.55566667,16.0833333 Z" id="Path"></path>
                                    <path d="M9,17.6896667 C9,17.6036667 9.011,17.5186667 9.03233333,17.4366667 C9.07866667,17.2586667 8.972,17.0766667 8.79366667,17.03 C8.61533333,16.984 8.43333333,17.0903333 8.387,17.2686667 C8.35133333,17.4053333 8.33333333,17.547 8.33333333,17.6966667 L8.66666667,17.6973333 L8.33333333,17.6973333 C8.33333333,17.8816667 8.48233333,18.0266672 8.66666667,18.0266672 C8.851,18.027 9,17.874 9,17.6896667 Z" id="Path"></path>
                                    <circle id="Oval" cx="16.6666667" cy="9.35633333" r="1"></circle>
                                    <circle id="Oval" cx="15.3333333" cy="9.35633333" r="1"></circle>
                                    <circle id="Oval" cx="17.3333333" cy="10.3563333" r="1"></circle>
                                    <circle id="Oval" cx="16" cy="10.3563333" r="1"></circle>
                                    <circle id="Oval" cx="14" cy="9.35633333" r="1"></circle>
                                    <circle id="Oval" cx="14.6666667" cy="10.3563333" r="1"></circle>
                                    <circle id="Oval" cx="12.6666667" cy="9.35633333" r="1"></circle>
                                    <circle id="Oval" cx="13.3333333" cy="10.3563333" r="1"></circle>
                                    <circle id="Oval" cx="11.3333333" cy="9.35633333" r="1"></circle>
                                    <circle id="Oval" cx="12" cy="10.3563333" r="1"></circle>
                                    <path d="M7.33333333,17.3563333 L7,17.3563333 C6.816,17.3563333 6.66666667,17.5053333 6.66666667,17.6896667 C6.66666667,17.874 6.816,18.023 7,18.023 L7.33333333,18.023 C7.51733333,18.023 7.66666667,17.874 7.66666667,17.6896667 C7.66666667,17.5053333 7.51733333,17.3563333 7.33333333,17.3563333 Z" id="Path"></path>
                                    <path d="M4.66666667,17.3563333 L4.33333333,17.3563333 C4.14933333,17.3563333 4,17.5053333 4,17.6896667 C4,17.874 4.14933333,18.023 4.33333333,18.023 L4.66666667,18.023 C4.85066667,18.023 5,17.874 5,17.6896667 C5,17.5053333 4.85066667,17.3563333 4.66666667,17.3563333 Z" id="Path"></path>
                                    <path d="M6,17.3563333 L5.66666667,17.3563333 C5.48266667,17.3563333 5.33333333,17.5053333 5.33333333,17.6896667 C5.33333333,17.874 5.48266667,18.023 5.66666667,18.023 L6,18.023 C6.184,18.023 6.33333333,17.874 6.33333333,17.6896667 C6.33333333,17.5053333 6.184,17.3563333 6,17.3563333 Z" id="Path"></path>
                                    <path d="M0.666666667,17.3563333 L0.333333333,17.3563333 C0.149333333,17.3563333 0,17.5053333 0,17.6896667 C0,17.874 0.149333333,18.023 0.333333333,18.023 L0.666666667,18.023 C0.850666667,18.023 1,17.874 1,17.6896667 C1,17.5053333 0.850666667,17.3563333 0.666666667,17.3563333 Z" id="Path"></path>
                                    <path d="M2,17.3563333 L1.66666667,17.3563333 C1.48266667,17.3563333 1.33333333,17.5053333 1.33333333,17.6896667 C1.33333333,17.874 1.48266667,18.023 1.66666667,18.023 L2,18.023 C2.184,18.023 2.33333333,17.874 2.33333333,17.6896667 C2.33333333,17.5053333 2.184,17.3563333 2,17.3563333 Z" id="Path"></path>
                                    <path d="M3.33333333,17.3563333 L3,17.3563333 C2.816,17.3563333 2.66666667,17.5053333 2.66666667,17.6896667 C2.66666667,17.874 2.816,18.023 3,18.023 L3.33333333,18.023 C3.51733333,18.023 3.66666667,17.874 3.66666667,17.6896667 C3.66666667,17.5053333 3.51733333,17.3563333 3.33333333,17.3563333 Z" id="Path"></path>
                                    <path d="M13,17.3563333 L12.6666667,17.3563333 C12.4826667,17.3563333 12.3333333,17.5053333 12.3333333,17.6896667 C12.3333333,17.874 12.4826667,18.023 12.6666667,18.023 L13,18.023 C13.184,18.023 13.3333333,17.874 13.3333333,17.6896667 C13.3333333,17.5053333 13.184,17.3563333 13,17.3563333 Z" id="Path"></path>
                                    <path d="M15.6666667,17.3563333 L15.3333333,17.3563333 C15.1493333,17.3563333 15,17.5053333 15,17.6896667 C15,17.874 15.1493333,18.023 15.3333333,18.023 L15.6666667,18.023 C15.8506667,18.023 16,17.874 16,17.6896667 C16,17.5053333 15.8506667,17.3563333 15.6666667,17.3563333 Z" id="Path"></path>
                                    <path d="M14.3333333,17.3563333 L14,17.3563333 C13.816,17.3563333 13.6666667,17.5053333 13.6666667,17.6896667 C13.6666667,17.874 13.816,18.023 14,18.023 L14.3333333,18.023 C14.5173333,18.023 14.6666667,17.874 14.6666667,17.6896667 C14.6666667,17.5053333 14.5173333,17.3563333 14.3333333,17.3563333 Z" id="Path"></path>
                                    <path d="M19.6666667,17.3563333 L19.3333333,17.3563333 C19.1493333,17.3563333 19,17.5053333 19,17.6896667 C19,17.874 19.1493333,18.023 19.3333333,18.023 L19.6666667,18.023 C19.8506667,18.023 20,17.874 20,17.6896667 C20,17.5053333 19.8506667,17.3563333 19.6666667,17.3563333 Z" id="Path"></path>
                                    <path d="M17,17.3563333 L16.6666667,17.3563333 C16.4826667,17.3563333 16.3333333,17.5053333 16.3333333,17.6896667 C16.3333333,17.874 16.4826667,18.023 16.6666667,18.023 L17,18.023 C17.184,18.023 17.3333333,17.874 17.3333333,17.6896667 C17.3333333,17.5053333 17.184,17.3563333 17,17.3563333 Z" id="Path"></path>
                                    <path d="M18.3333333,17.3563333 L18,17.3563333 C17.816,17.3563333 17.6666667,17.5053333 17.6666667,17.6896667 C17.6666667,17.874 17.816,18.023 18,18.023 L18.3333333,18.023 C18.5173333,18.023 18.6666667,17.874 18.6666667,17.6896667 C18.6666667,17.5053333 18.5173333,17.3563333 18.3333333,17.3563333 Z" id="Path"></path>
                                    <path d="M10.3333333,15.3563333 L10.3333333,15.023 C10.3333333,14.8386667 10.184,14.6896667 10,14.6896667 C9.816,14.6896667 9.66666667,14.8386667 9.66666667,15.023 L9.66666667,15.3563333 C9.66666667,15.5406667 9.816,15.6896667 10,15.6896667 C10.184,15.6896667 10.3333333,15.5406667 10.3333333,15.3563333 Z" id="Path"></path>
                                    <path d="M9.66666667,13.6896667 L9.66666667,14.023 C9.66666667,14.2073333 9.816,14.3563333 10,14.3563333 C10.184,14.3563333 10.3333333,14.2073333 10.3333333,14.023 L10.3333333,13.6896667 C10.3333333,13.5053333 10.184,13.3563333 10,13.3563333 C9.816,13.3563333 9.66666667,13.5053333 9.66666667,13.6896667 Z" id="Path"></path>
                                </g>
                            </g>
                        </g>
                    </g>
                </g>
            </g>
        </g>
    </g>
</svg>