<?xml version="1.0" encoding="UTF-8"?>
<svg width="131px" height="173px" viewBox="0 0 131 173" version="1.1" xmlns="http://www.w3.org/2000/svg" xmlns:xlink="http://www.w3.org/1999/xlink">
    <!-- Generator: Sketch 61.2 (89653) - https://sketch.com -->
    <title>icon</title>
    <desc>Created with Sketch.</desc>
    <defs>
        <rect id="path-1" x="0" y="0" width="40.5" height="47"></rect>
    </defs>
    <g id="Page-1" stroke="none" stroke-width="1" fill="none" fill-rule="evenodd">
        <g id="7.0-Designer---First-action-options" transform="translate(-1030.000000, -377.000000)">
            <g id="modal-new" transform="translate(120.000000, 222.000000)">
                <g id="options" transform="translate(100.000000, 132.000000)">
                    <g id="import" transform="translate(750.000000, 0.000000)">
                        <g id="icon+text" transform="translate(30.000000, 23.000000)">
                            <g id="icon" transform="translate(30.000000, 0.000000)">
                                <g id="Group" transform="translate(0.000000, 24.222222)" fill="#E0E8F2" fill-rule="nonzero">
                                    <polygon id="Path" points="113.218678 86.6995804 11.9100839 86.3986545 11.6173865 11.7737269 11.9100839 11.7737269 11.9100839 7.25043403 0 7.25043403 0 98.6096644 115.480324 98.6096644 115.480324 86.6995804"></polygon>
                                    <polygon id="Path" points="21.5585214 0.0141059028 26.3827402 0.0141059028 26.3827402 4.53739873 21.5585214 4.53739873"></polygon>
                                    <polygon id="Path" points="31.2069589 0.0141059028 36.0311777 0.0141059028 36.0311777 4.53739873 31.2069589 4.53739873"></polygon>
                                    <polygon id="Path" points="40.8553964 0.0141059028 45.6796152 0.0141059028 45.6796152 4.53739873 40.8553964 4.53739873"></polygon>
                                </g>
                                <path d="M125.279225,17 L14.3221933,17 C11.7443396,17 9.6484375,19.0959021 9.6484375,21.6737558 L9.6484375,113.183449 L120.455006,113.183449 L120.455006,108.660156 L14.1717303,108.660156 L14.1717303,35.9959491 L125.429687,35.9959491 L125.429687,127.806568 C125.429687,127.890028 125.362685,127.957031 125.279225,127.957031 L96.333912,127.957031 C93.7572338,127.957031 91.6601562,130.054109 91.6601562,132.630787 L91.6601562,137.605469 L12.0605469,137.605469 L12.0605469,171.074074 L117.892433,171.074074 L117.892433,137.605469 L96.1834491,137.605469 L96.1834491,132.630787 C96.1834491,132.547327 96.2516275,132.480324 96.333912,132.480324 L125.279225,132.480324 C127.855903,132.480324 129.95298,130.383247 129.95298,127.806568 L129.95298,21.6737558 C129.95298,19.0959021 127.855903,17 125.279225,17 Z M60.0018084,142.128762 L69.9511719,142.128762 L69.9511719,147.253906 L60.0018084,147.253906 L60.0018084,142.128762 Z M60.0018084,151.777199 L69.9511719,151.777199 L69.9511719,156.902344 L60.0018084,156.902344 L60.0018084,151.777199 Z M45.5291522,142.128762 L55.4785156,142.128762 L55.4785156,147.253906 L45.5291522,147.253906 L45.5291522,142.128762 Z M45.5291522,151.777199 L55.4785156,151.777199 L55.4785156,156.902344 L45.5291522,156.902344 L45.5291522,151.777199 Z M26.5332031,166.550781 L16.5838397,166.550781 L16.5838397,161.425637 L26.5332031,161.425637 L26.5332031,166.550781 Z M26.5332031,156.902344 L16.5838397,156.902344 L16.5838397,151.777199 L26.5332031,151.777199 L26.5332031,156.902344 Z M26.5332031,147.253906 L16.5838397,147.253906 L16.5838397,142.128762 L26.5332031,142.128762 L26.5332031,147.253906 Z M41.0058594,166.550781 L31.0564959,166.550781 L31.0564959,161.425637 L41.0058594,161.425637 L41.0058594,166.550781 Z M41.0058594,156.902344 L31.0564959,156.902344 L31.0564959,151.777199 L41.0058594,151.777199 L41.0058594,156.902344 Z M41.0058594,147.253906 L31.0564959,147.253906 L31.0564959,142.128762 L41.0058594,142.128762 L41.0058594,147.253906 Z M84.4238281,166.550781 L45.5291522,166.550781 L45.5291522,161.425637 L84.4238281,161.425637 L84.4238281,166.550781 Z M84.4238281,156.902344 L74.4744647,156.902344 L74.4744647,151.777199 L84.4238281,151.777199 L84.4238281,156.902344 Z M84.4238281,147.253906 L74.4744647,147.253906 L74.4744647,142.128762 L84.4238281,142.128762 L84.4238281,147.253906 Z M98.8964844,166.550781 L88.9471209,166.550781 L88.9471209,161.425637 L98.8964844,161.425637 L98.8964844,166.550781 Z M98.8964844,156.902344 L88.9471209,156.902344 L88.9471209,151.777199 L98.8964844,151.777199 L98.8964844,156.902344 Z M103.419777,142.128762 L113.369141,142.128762 L113.369141,147.253906 L103.419777,147.253906 L103.419777,142.128762 Z M103.419777,151.777199 L113.369141,151.777199 L113.369141,156.902344 L103.419777,156.902344 L103.419777,151.777199 Z M103.419777,161.425637 L113.369141,161.425637 L113.369141,166.550781 L103.419777,166.550781 L103.419777,161.425637 Z M98.8964844,147.253906 L88.9471209,147.253906 L88.9471209,142.128762 L98.8964844,142.128762 L98.8964844,147.253906 Z M14.1717303,31.4726562 L14.1717303,21.6737558 C14.1717303,21.5902958 14.2387333,21.5232928 14.3221933,21.5232928 L125.279225,21.5232928 C125.362685,21.5232928 125.429688,21.5902958 125.429688,21.6737558 L125.429688,31.4726562 L14.1717303,31.4726562 Z" id="Shape" stroke="#FFFFFF" stroke-width="2" fill="#1B3E6F" fill-rule="nonzero"></path>
                                <polygon id="Path" stroke="#FFFFFF" fill="#1B3E6F" fill-rule="nonzero" points="96.7252852 92.4505702 92.6085365 96.5673189 92.6085365 73 89.3914635 73 89.3914635 96.5673189 85.2747148 92.4505702 83 94.7252853 90.9999999 102.725285 99 94.7252853"></polygon>
                                <g id="action" transform="translate(64.000000, 0.000000)">
                                    <g id="Group" transform="translate(0.000000, 4.959849)" fill-rule="nonzero">
                                        <polygon id="Path" fill="#E0E8F2" points="43.7054389 57.9271781 5.84230707 57.9271781 5.84230707 0.0230647733 0 0.0230647733 0 63.7694851 44.8148545 63.7694851 44.8148545 57.9271781"></polygon>
                                        <polygon id="Path" fill="#5DBDBA" points="11.7584214 50.9016481 14.1248671 50.9016481 14.1248671 53.1204793 11.7584214 53.1204793"></polygon>
                                        <polygon id="Path" fill="#5DBDBA" points="16.4913129 50.9016481 18.8577586 50.9016481 18.8577586 53.1204793 16.4913129 53.1204793"></polygon>
                                        <polygon id="Path" fill="#5DBDBA" points="21.2242044 50.9016481 23.5906501 50.9016481 23.5906501 53.1204793 21.2242044 53.1204793"></polygon>
                                    </g>
                                    <path d="M49.8148545,12.4820787 L37.3327757,0 L5,0 L5,63.7464203 L49.8148545,63.7464203 L49.8148545,17.6745358 L47.5960233,17.6745358 L47.5960233,61.5275892 L7.21883119,61.5275892 L7.21883119,2.21883119 L35.7637946,2.21883119 L35.7637946,15.2342827 L49.8148545,15.2342827 L49.8148545,12.4820787 Z M37.9826258,13.0154516 L37.9826258,3.78723577 L47.2108416,13.0154516 L37.9826258,13.0154516 Z" id="Shape" fill="#1B3E6F" fill-rule="nonzero"></path>
                                    <g id="3" transform="translate(7.000000, 15.000000)">
                                        <mask id="mask-2" fill="white">
                                            <use xlink:href="#path-1"></use>
                                        </mask>
                                        <use id="Mask" fill="#FFFFFF" xlink:href="#path-1"></use>
                                        <g mask="url(#mask-2)">
                                            <g transform="translate(2.000000, 31.000000)">
                                                <g id="Group" stroke-width="1" fill="none" fill-rule="evenodd" transform="translate(2.836930, 2.684715)">
                                                    <polygon id="Path" fill="#E0E8F2" fill-rule="nonzero" points="0.349703874 0.411818739 9.98166155 0.411818739 9.98166155 5.18449572 0.349703874 5.18449572"></polygon>
                                                    <polygon id="Path" fill="#E0E8F2" fill-rule="nonzero" points="5.90316753 12.212929 9.98166155 12.212929 9.98166155 16.291423 5.90316753 16.291423"></polygon>
                                                </g>
                                                <path d="M0.40990173,21.7528702 L15.5953231,21.7528702 L15.5953231,0.319802285 L0.40990173,0.319802285 L0.40990173,21.7528702 Z M1.71166392,1.62156448 L14.2935609,1.62156448 L14.2935609,20.451108 L1.71166392,20.451108 L1.71166392,1.62156448 Z" id="Shape" fill="#1B3E6F" fill-rule="nonzero"></path>
                                                <path d="M8.74009721,13.4226747 L12.8185912,13.4226747 L12.8185912,9.34418073 L8.74009721,9.34418073 L8.74009721,13.4226747 Z M10.0418594,10.6459429 L11.516829,10.6459429 L11.516829,12.1209126 L10.0418594,12.1209126 L10.0418594,10.6459429 Z" id="Shape" fill="#1B3E6F" fill-rule="nonzero"></path>
                                                <path d="M3.18663356,18.9761384 L7.26512758,18.9761384 L7.26512758,14.8976444 L3.18663356,14.8976444 L3.18663356,18.9761384 Z M4.48839575,16.1994066 L5.96336539,16.1994066 L5.96336539,17.6743762 L4.48839575,17.6743762 L4.48839575,16.1994066 Z" id="Shape" fill="#1B3E6F" fill-rule="nonzero"></path>
                                                <path d="M3.18663356,13.4226747 L7.26512758,13.4226747 L7.26512758,9.34418073 L3.18663356,9.34418073 L3.18663356,13.4226747 Z M4.48839575,10.6459429 L5.96336539,10.6459429 L5.96336539,12.1209126 L4.48839575,12.1209126 L4.48839575,10.6459429 Z" id="Shape" fill="#1B3E6F" fill-rule="nonzero"></path>
                                            </g>
                                        </g>
                                    </g>
                                    <g id="1" transform="translate(9.000000, 15.000000)" fill-rule="nonzero">
                                        <g id="Group" transform="translate(2.836930, 2.684715)" fill="#E0E8F2">
                                            <polygon id="Path" points="0.349703874 0.411818739 9.98166155 0.411818739 9.98166155 5.18449572 0.349703874 5.18449572"></polygon>
                                            <polygon id="Path" points="5.90316753 12.212929 9.98166155 12.212929 9.98166155 16.291423 5.90316753 16.291423"></polygon>
                                        </g>
                                        <path d="M0.40990173,21.7528702 L15.5953231,21.7528702 L15.5953231,0.319802285 L0.40990173,0.319802285 L0.40990173,21.7528702 Z M1.71166392,1.62156448 L14.2935609,1.62156448 L14.2935609,20.451108 L1.71166392,20.451108 L1.71166392,1.62156448 Z" id="Shape" fill="#1B3E6F"></path>
                                        <path d="M8.74009721,13.4226747 L12.8185912,13.4226747 L12.8185912,9.34418073 L8.74009721,9.34418073 L8.74009721,13.4226747 Z M10.0418594,10.6459429 L11.516829,10.6459429 L11.516829,12.1209126 L10.0418594,12.1209126 L10.0418594,10.6459429 Z" id="Shape" fill="#1B3E6F"></path>
                                        <path d="M3.18663356,18.9761384 L7.26512758,18.9761384 L7.26512758,14.8976444 L3.18663356,14.8976444 L3.18663356,18.9761384 Z M4.48839575,16.1994066 L5.96336539,16.1994066 L5.96336539,17.6743762 L4.48839575,17.6743762 L4.48839575,16.1994066 Z" id="Shape" fill="#1B3E6F"></path>
                                        <path d="M3.18663356,13.4226747 L7.26512758,13.4226747 L7.26512758,9.34418073 L3.18663356,9.34418073 L3.18663356,13.4226747 Z M4.48839575,10.6459429 L5.96336539,10.6459429 L5.96336539,12.1209126 L4.48839575,12.1209126 L4.48839575,10.6459429 Z" id="Shape" fill="#1B3E6F"></path>
                                    </g>
                                    <g id="2" transform="translate(29.000000, 24.000000)" fill-rule="nonzero">
                                        <g id="Group" transform="translate(2.836930, 2.684715)" fill="#E0E8F2">
                                            <polygon id="Path" points="0.349703874 0.411818739 9.98166155 0.411818739 9.98166155 5.18449572 0.349703874 5.18449572"></polygon>
                                            <polygon id="Path" points="5.90316753 12.212929 9.98166155 12.212929 9.98166155 16.291423 5.90316753 16.291423"></polygon>
                                        </g>
                                        <path d="M0.40990173,21.7528702 L15.5953231,21.7528702 L15.5953231,0.319802285 L0.40990173,0.319802285 L0.40990173,21.7528702 Z M1.71166392,1.62156448 L14.2935609,1.62156448 L14.2935609,20.451108 L1.71166392,20.451108 L1.71166392,1.62156448 Z" id="Shape" fill="#1B3E6F"></path>
                                        <path d="M8.74009721,13.4226747 L12.8185912,13.4226747 L12.8185912,9.34418073 L8.74009721,9.34418073 L8.74009721,13.4226747 Z M10.0418594,10.6459429 L11.516829,10.6459429 L11.516829,12.1209126 L10.0418594,12.1209126 L10.0418594,10.6459429 Z" id="Shape" fill="#1B3E6F"></path>
                                        <path d="M3.18663356,18.9761384 L7.26512758,18.9761384 L7.26512758,14.8976444 L3.18663356,14.8976444 L3.18663356,18.9761384 Z M4.48839575,16.1994066 L5.96336539,16.1994066 L5.96336539,17.6743762 L4.48839575,17.6743762 L4.48839575,16.1994066 Z" id="Shape" fill="#1B3E6F"></path>
                                        <path d="M3.18663356,13.4226747 L7.26512758,13.4226747 L7.26512758,9.34418073 L3.18663356,9.34418073 L3.18663356,13.4226747 Z M4.48839575,10.6459429 L5.96336539,10.6459429 L5.96336539,12.1209126 L4.48839575,12.1209126 L4.48839575,10.6459429 Z" id="Shape" fill="#1B3E6F"></path>
                                    </g>
                                </g>
                            </g>
                        </g>
                    </g>
                </g>
            </g>
        </g>
    </g>
</svg>