<?xml version="1.0" encoding="UTF-8"?>
<svg width="12px" height="12px" viewBox="0 0 12 12" version="1.1" xmlns="http://www.w3.org/2000/svg" xmlns:xlink="http://www.w3.org/1999/xlink">
    <!-- Generator: Sketch 60 (88103) - https://sketch.com -->
    <title>Shape</title>
    <desc>Created with Sketch.</desc>
    <g id="Page-1" stroke="none" stroke-width="1" fill="none" fill-rule="evenodd">
        <g id="3.1.1-Designer" transform="translate(-644.000000, -74.000000)" fill="#D9E3EE" fill-rule="nonzero">
            <g id="edit-actions" transform="translate(543.000000, 61.000000)">
                <g id="elements" transform="translate(10.000000, 6.000000)">
                    <g id="zoom" transform="translate(81.000000, 0.000000)">
                        <g id="icons" transform="translate(10.000000, 7.000000)">
                            <path d="M6,0 C2.69169231,0 0,2.69146154 0,6 C0,9.30853846 2.69169231,12 6,12 C9.30830769,12 12,9.30853846 12,6 C12,2.69146154 9.30830769,0 6,0 Z M8.88461538,6.46153846 L3.11538462,6.46153846 C2.86061538,6.46153846 2.65384615,6.25476923 2.65384615,6 C2.65384615,5.74523077 2.86061538,5.53846154 3.11538462,5.53846154 L8.88461538,5.53846154 C9.13938462,5.53846154 9.34615385,5.74523077 9.34615385,6 C9.34615385,6.25476923 9.13938462,6.46153846 8.88461538,6.46153846 Z" id="Shape"></path>
                        </g>
                    </g>
                </g>
            </g>
        </g>
    </g>
</svg>