<?xml version="1.0" encoding="UTF-8"?>
<svg width="13px" height="13px" viewBox="0 0 13 13" version="1.1" xmlns="http://www.w3.org/2000/svg" xmlns:xlink="http://www.w3.org/1999/xlink">
    <!-- Generator: Sketch 59.1 (86144) - https://sketch.com -->
    <title>deploy</title>
    <desc>Created with Sketch.</desc>
    <g id="Page-1" stroke="none" stroke-width="1" fill="none" fill-rule="evenodd">
        <g id="1.1.1-Packages-List" transform="translate(-678.000000, -229.000000)" fill-rule="nonzero">
            <g id="Tab-content" transform="translate(80.000000, 155.000000)">
                <g id="cards" transform="translate(0.000000, 48.000000)">
                    <g id="row-1">
                        <g id="1" transform="translate(337.000000, 0.000000)">
                            <g id="info" transform="translate(20.000000, 20.000000)">
                                <g id="deploy" transform="translate(241.000000, 6.000000)">
                                    <path d="M11.30545,8.97628333 L10.0929833,10.7182833 L9.23736667,10.0160667 C9.14506667,9.94001667 9.00835,9.95388333 8.93251667,10.0459667 C8.85646667,10.1384833 8.8699,10.2752 8.96263333,10.3508167 L9.9996,11.2021 C10.0386,11.2341667 10.0871333,11.2515 10.1369667,11.2515 C10.1467167,11.2515 10.1566833,11.25085 10.16665,11.2493333 C10.22645,11.2411 10.2801833,11.2081667 10.31485,11.15855 L11.6612167,9.22393333 C11.7294667,9.12578333 11.7054167,8.9908 11.60705,8.92233333 C11.5086833,8.853 11.3739167,8.8777 11.30545,8.97628333 Z" id="Path" fill="#000000"></path>
                                    <path d="M10.1833333,7.36666667 C8.63026667,7.36666667 7.36666667,8.63026667 7.36666667,10.1833333 C7.36666667,11.7364 8.63026667,13 10.1833333,13 C11.7364,13 13,11.7364 13,10.1833333 C13,8.63026667 11.7364,7.36666667 10.1833333,7.36666667 Z M10.1833333,12.5666667 C8.86925,12.5666667 7.8,11.4974167 7.8,10.1833333 C7.8,8.86925 8.86925,7.8 10.1833333,7.8 C11.4974167,7.8 12.5666667,8.86925 12.5666667,10.1833333 C12.5666667,11.4974167 11.4974167,12.5666667 10.1833333,12.5666667 Z" id="Shape" fill="#000000"></path>
                                    <path d="M12.0016,0 L0.9984,0 C0.44785,0 0,0.44785 0,0.9984 L0,3.55138333 C0,3.76241667 0.0680333333,3.95633333 0.180916667,4.11666667 L12.8188667,4.11666667 C12.9319667,3.95633333 13,3.76241667 13,3.5516 L13,0.9984 C13,0.44785 12.55215,0 12.0016,0 Z M2.275,3.25 C1.73745,3.25 1.3,2.81255 1.3,2.275 C1.3,1.73745 1.73745,1.3 2.275,1.3 C2.81255,1.3 3.25,1.73745 3.25,2.275 C3.25,2.81255 2.81255,3.25 2.275,3.25 Z M7.36666667,2.16666667 C7.24706667,2.16666667 7.15,2.0696 7.15,1.95 C7.15,1.8304 7.24706667,1.73333333 7.36666667,1.73333333 C7.48626667,1.73333333 7.58333333,1.8304 7.58333333,1.95 C7.58333333,2.0696 7.48626667,2.16666667 7.36666667,2.16666667 Z M7.8,2.81666667 C7.6804,2.81666667 7.58333333,2.7196 7.58333333,2.6 C7.58333333,2.4804 7.6804,2.38333333 7.8,2.38333333 C7.9196,2.38333333 8.01666667,2.4804 8.01666667,2.6 C8.01666667,2.7196 7.9196,2.81666667 7.8,2.81666667 Z M8.23333333,2.16666667 C8.11373333,2.16666667 8.01666667,2.0696 8.01666667,1.95 C8.01666667,1.8304 8.11373333,1.73333333 8.23333333,1.73333333 C8.35293333,1.73333333 8.45,1.8304 8.45,1.95 C8.45,2.0696 8.35293333,2.16666667 8.23333333,2.16666667 Z M8.66666667,2.81666667 C8.54706667,2.81666667 8.45,2.7196 8.45,2.6 C8.45,2.4804 8.54706667,2.38333333 8.66666667,2.38333333 C8.78626667,2.38333333 8.88333333,2.4804 8.88333333,2.6 C8.88333333,2.7196 8.78626667,2.81666667 8.66666667,2.81666667 Z M9.1,2.16666667 C8.9804,2.16666667 8.88333333,2.0696 8.88333333,1.95 C8.88333333,1.8304 8.9804,1.73333333 9.1,1.73333333 C9.2196,1.73333333 9.31666667,1.8304 9.31666667,1.95 C9.31666667,2.0696 9.2196,2.16666667 9.1,2.16666667 Z M9.53333333,2.81666667 C9.41373333,2.81666667 9.31666667,2.7196 9.31666667,2.6 C9.31666667,2.4804 9.41373333,2.38333333 9.53333333,2.38333333 C9.65293333,2.38333333 9.75,2.4804 9.75,2.6 C9.75,2.7196 9.65293333,2.81666667 9.53333333,2.81666667 Z M9.96666667,2.16666667 C9.84706667,2.16666667 9.75,2.0696 9.75,1.95 C9.75,1.8304 9.84706667,1.73333333 9.96666667,1.73333333 C10.0862667,1.73333333 10.1833333,1.8304 10.1833333,1.95 C10.1833333,2.0696 10.0862667,2.16666667 9.96666667,2.16666667 Z M10.4,2.81666667 C10.2804,2.81666667 10.1833333,2.7196 10.1833333,2.6 C10.1833333,2.4804 10.2804,2.38333333 10.4,2.38333333 C10.5196,2.38333333 10.6166667,2.4804 10.6166667,2.6 C10.6166667,2.7196 10.5196,2.81666667 10.4,2.81666667 Z M10.8333333,2.16666667 C10.7137333,2.16666667 10.6166667,2.0696 10.6166667,1.95 C10.6166667,1.8304 10.7137333,1.73333333 10.8333333,1.73333333 C10.9529333,1.73333333 11.05,1.8304 11.05,1.95 C11.05,2.0696 10.9529333,2.16666667 10.8333333,2.16666667 Z M11.2666667,2.81666667 C11.1470667,2.81666667 11.05,2.7196 11.05,2.6 C11.05,2.4804 11.1470667,2.38333333 11.2666667,2.38333333 C11.3862667,2.38333333 11.4833333,2.4804 11.4833333,2.6 C11.4833333,2.7196 11.3862667,2.81666667 11.2666667,2.81666667 Z" id="Shape" fill="#66BB00"></path>
                                    <path d="M6.71666667,10.1833333 C6.71666667,9.63906667 6.84623333,9.12556667 7.07091667,8.66666667 L0.180916667,8.66666667 C0.0680333333,8.827 0,9.02091667 0,9.23173333 L0,11.7847167 C0,12.3354833 0.44785,12.7833333 0.9984,12.7833333 L7.89793333,12.7833333 C7.17556667,12.1474167 6.71666667,11.219 6.71666667,10.1833333 Z M2.275,11.4833333 C1.73745,11.4833333 1.3,11.0458833 1.3,10.5083333 C1.3,9.97078333 1.73745,9.53333333 2.275,9.53333333 C2.81255,9.53333333 3.25,9.97078333 3.25,10.5083333 C3.25,11.0458833 2.81255,11.4833333 2.275,11.4833333 Z" id="Shape" fill="#66BB00"></path>
                                    <path d="M0.180916667,4.55 C0.0680333333,4.71033333 0,4.90425 0,5.11506667 L0,7.66805 C0,7.87908333 0.0680333333,8.073 0.180916667,8.23333333 L7.31921667,8.23333333 C7.94408333,7.31856667 8.99448333,6.71666667 10.1831167,6.71666667 C11.2931,6.71666667 12.28045,7.24316667 12.9152833,8.0574 C12.9679333,7.9378 12.9997833,7.80736667 12.9997833,7.66826667 L12.9997833,5.11506667 C12.9997833,4.90403333 12.93175,4.71033333 12.8188667,4.55 L0.180916667,4.55 Z M2.275,7.36666667 C1.73745,7.36666667 1.3,6.92921667 1.3,6.39166667 C1.3,5.85411667 1.73745,5.41666667 2.275,5.41666667 C2.81255,5.41666667 3.25,5.85411667 3.25,6.39166667 C3.25,6.92921667 2.81255,7.36666667 2.275,7.36666667 Z M7.36666667,6.28333333 C7.24706667,6.28333333 7.15,6.18626667 7.15,6.06666667 C7.15,5.94706667 7.24706667,5.85 7.36666667,5.85 C7.48626667,5.85 7.58333333,5.94706667 7.58333333,6.06666667 C7.58333333,6.18626667 7.48626667,6.28333333 7.36666667,6.28333333 Z M8.23333333,6.28333333 C8.11373333,6.28333333 8.01666667,6.18626667 8.01666667,6.06666667 C8.01666667,5.94706667 8.11373333,5.85 8.23333333,5.85 C8.35293333,5.85 8.45,5.94706667 8.45,6.06666667 C8.45,6.18626667 8.35293333,6.28333333 8.23333333,6.28333333 Z M9.1,6.28333333 C8.9804,6.28333333 8.88333333,6.18626667 8.88333333,6.06666667 C8.88333333,5.94706667 8.9804,5.85 9.1,5.85 C9.2196,5.85 9.31666667,5.94706667 9.31666667,6.06666667 C9.31666667,6.18626667 9.2196,6.28333333 9.1,6.28333333 Z M9.96666667,6.28333333 C9.84706667,6.28333333 9.75,6.18626667 9.75,6.06666667 C9.75,5.94706667 9.84706667,5.85 9.96666667,5.85 C10.0862667,5.85 10.1833333,5.94706667 10.1833333,6.06666667 C10.1833333,6.18626667 10.0862667,6.28333333 9.96666667,6.28333333 Z M10.8333333,6.28333333 C10.7137333,6.28333333 10.6166667,6.18626667 10.6166667,6.06666667 C10.6166667,5.94706667 10.7137333,5.85 10.8333333,5.85 C10.9529333,5.85 11.05,5.94706667 11.05,6.06666667 C11.05,6.18626667 10.9529333,6.28333333 10.8333333,6.28333333 Z" id="Shape" fill="#66BB00"></path>
                                </g>
                            </g>
                        </g>
                    </g>
                </g>
            </g>
        </g>
    </g>
</svg>