<?xml version="1.0" encoding="UTF-8"?>
<svg width="20px" height="17px" viewBox="0 0 20 17" version="1.1" xmlns="http://www.w3.org/2000/svg" xmlns:xlink="http://www.w3.org/1999/xlink">
    <!-- Generator: Sketch 59.1 (86144) - https://sketch.com -->
    <title>package</title>
    <desc>Created with Sketch.</desc>
    <g id="Symbols" stroke="none" stroke-width="1" fill="none" fill-rule="evenodd">
        <g id="Side-Nav" transform="translate(-15.000000, -97.000000)" fill="#FFFFFF" fill-rule="nonzero">
            <g id="links">
                <g transform="translate(10.000000, 90.000000)">
                    <g id="packages">
                        <g id="package" transform="translate(5.000000, 7.000000)">
                            <path d="M19.1633333,5.33333333 L18,5.33333333 L18,3.244 C18,2.74166667 17.5913333,2.33333333 17.0893333,2.33333333 L8.83833333,2.33333333 L7.17166667,0 L0.910666667,0 C0.408666667,0 0,0.408666667 0,0.910666667 L0,15.473 L0.002,15.473 C0.000333333333,15.6606667 0.0586666667,15.8443333 0.176,15.998 C0.339333333,16.2113333 0.586666667,16.3333333 0.855,16.3333333 L15.7746667,16.3333333 C16.16,16.3333333 16.4993333,16.0736667 16.5913333,15.729 L20,6.383 L20,6.324 C20,5.75 19.648,5.33333333 19.1633333,5.33333333 Z M0.666666667,0.910666667 C0.666666667,0.776 0.776333333,0.666666667 0.910666667,0.666666667 L6.82833333,0.666666667 L8.495,3 L17.089,3 C17.2236667,3 17.333,3.10933333 17.333,3.244 L17.333,5.33333333 L4.24366667,5.33333333 C4.19566667,5.33333333 4.148,5.33733333 4.10166667,5.34533333 C3.77733333,5.39966667 3.50766667,5.63633333 3.42733333,5.93733333 L0.666666667,13.4663333 L0.666666667,0.910666667 Z M15.9563333,15.5276667 C15.9343333,15.6093333 15.8593333,15.6666667 15.7746667,15.6666667 L0.855,15.6666667 C0.774,15.6666667 0.726666667,15.6203333 0.705666667,15.5926667 C0.684666667,15.5653333 0.652333333,15.5073333 0.664666667,15.4566667 L4.06166667,6.139 C4.08366667,6.05733333 4.15866667,6 4.24333333,6 L18,6 L19.1633333,6 C19.29,6 19.3223333,6.182 19.3306667,6.273 L15.9563333,15.5276667 Z" id="Shape"></path>
                            <path d="M12.3454545,8 C11.9844727,8 11.6909091,8.29356364 11.6909091,8.65454545 C11.6909091,8.76745455 11.7196,8.87370909 11.7701091,8.96654545 L10.6978545,10.0388 C10.5500364,9.92370909 10.3650182,9.85454545 10.1636364,9.85454545 C9.96225455,9.85454545 9.77723636,9.92370909 9.62930909,10.0386909 L8.79269091,9.20207273 C8.83109091,9.13716364 8.85454545,9.06254545 8.85454545,8.98181818 C8.85454545,8.74116364 8.65883636,8.54545455 8.41818182,8.54545455 C8.17752727,8.54545455 7.98181818,8.74116364 7.98181818,8.98181818 C7.98181818,9.22247273 8.17752727,9.41818182 8.41818182,9.41818182 C8.49890909,9.41818182 8.57352727,9.39472727 8.63843636,9.35632727 L9.47505455,10.1929455 C9.36007273,10.3408727 9.29090909,10.5258909 9.29090909,10.7272727 C9.29090909,10.9286545 9.36007273,11.1136727 9.47505455,11.2614909 L8.09352727,12.6431273 C7.97723636,12.5376364 7.82352727,12.4727273 7.65454545,12.4727273 C7.29356364,12.4727273 7,12.7662909 7,13.1272727 C7,13.4882545 7.29356364,13.7818182 7.65454545,13.7818182 C8.01552727,13.7818182 8.30909091,13.4882545 8.30909091,13.1272727 C8.30909091,13.0143636 8.2804,12.9081091 8.22989091,12.8152727 L9.62941818,11.4157455 C9.75007273,11.5095636 9.8956,11.5724 10.0546545,11.5923636 L10.0546545,12.7007273 C9.7456,12.7528727 9.5092,13.0216727 9.5092,13.3454545 C9.5092,13.7064364 9.80276364,14 10.1637455,14 C10.5247273,14 10.8182909,13.7064364 10.8182909,13.3454545 C10.8182909,13.0217818 10.5818909,12.7529818 10.2728364,12.7007273 L10.2728364,11.5923636 C10.4318909,11.5724 10.5774182,11.5095636 10.6980727,11.4157455 L11.5346909,12.2523636 C11.4961818,12.3173818 11.4727273,12.392 11.4727273,12.4727273 C11.4727273,12.7133818 11.6684364,12.9090909 11.9090909,12.9090909 C12.1497455,12.9090909 12.3454545,12.7133818 12.3454545,12.4727273 C12.3454545,12.2320727 12.1497455,12.0363636 11.9090909,12.0363636 C11.8283636,12.0363636 11.7537455,12.0598182 11.6888364,12.0982182 L10.8522182,11.2616 C10.9672,11.1136727 11.0363636,10.9286545 11.0363636,10.7272727 C11.0363636,10.5258909 10.9672,10.3408727 10.8522182,10.1930545 L11.9065818,9.13869091 C12.0227636,9.24418182 12.1764727,9.30909091 12.3454545,9.30909091 C12.7064364,9.30909091 13,9.01552727 13,8.65454545 C13,8.29356364 12.7064364,8 12.3454545,8 Z" id="Path"></path>
                        </g>
                    </g>
                </g>
            </g>
        </g>
    </g>
</svg>