<?xml version="1.0" encoding="UTF-8"?>
<svg width="20px" height="20px" viewBox="0 0 20 20" version="1.1" xmlns="http://www.w3.org/2000/svg" xmlns:xlink="http://www.w3.org/1999/xlink">
    <!-- Generator: Sketch 60 (88103) - https://sketch.com -->
    <title>language</title>
    <desc>Created with Sketch.</desc>
    <g id="Page-1" stroke="none" stroke-width="1" fill="none" fill-rule="evenodd">
        <g id="3.1.1-Designer" transform="translate(-55.000000, -741.000000)" fill="#1B3E6F" fill-rule="nonzero">
            <g id="controller" transform="translate(0.000000, 60.000000)">
                <g id="functions" transform="translate(0.000000, 479.000000)">
                    <g id="list" transform="translate(8.000000, 51.000000)">
                        <g id="3" transform="translate(12.000000, 132.000000)">
                            <g id="txt" transform="translate(35.000000, 10.000000)">
                                <g id="language" transform="translate(0.000000, 9.000000)">
                                    <path d="M10,0 C4.47721354,0 0,4.47721354 0,10 C0,15.5227865 4.47721354,20 10,20 C15.5227865,20 20,15.5227865 20,10 C19.9938151,4.47981771 15.5201823,0.00618491667 10,0 Z M18.6486003,13.5032552 L15.8046875,13.9939779 C16.1302083,12.8001302 16.3059896,11.5704752 16.3279622,10.3333333 L19.3250325,10.3333333 C19.2874349,11.4215495 19.058431,12.4946289 18.6486003,13.5032552 L18.6486003,13.5032552 Z M0.674967458,10.3333333 L3.67203775,10.3333333 C3.69401042,11.5704752 3.86979167,12.8001302 4.1953125,13.9939779 L1.35139975,13.5032552 C0.941569,12.4946289 0.712565083,11.4215495 0.674967458,10.3333333 Z M1.35139975,6.49674479 L4.1953125,6.00602213 C3.86979167,7.19986979 3.69401042,8.42952475 3.67203775,9.66666667 L0.674967458,9.66666667 C0.712565083,8.5784505 0.941569,7.50537108 1.35139975,6.49674479 Z M10.3333333,5.35205079 C11.5310872,5.36735025 12.7259115,5.47639975 13.9067383,5.67838542 L15.0833333,5.88134767 C15.4448242,7.11149088 15.6393229,8.38460288 15.6616211,9.66666667 L10.3333333,9.66666667 L10.3333333,5.35205079 Z M14.020345,5.02132163 C12.8020833,4.81315104 11.5691732,4.70068358 10.3333333,4.68538413 L10.3333333,0.685384125 C12.2443034,0.868977875 13.9042969,2.61865233 14.8450521,5.16503908 L14.020345,5.02132163 Z M9.66666667,4.68538413 C8.43082683,4.70068358 7.19824217,4.81315104 5.97998046,5.02132163 L5.15494792,5.1640625 C6.09570313,2.61702475 7.75569663,0.866699208 9.66666667,0.68391925 L9.66666667,4.68538413 Z M6.09358725,5.67838542 C7.27425129,5.47639975 8.46891275,5.36735025 9.66666667,5.35205079 L9.66666667,9.66666667 L4.33837892,9.66666667 C4.36067708,8.38460288 4.55517579,7.11149088 4.91666667,5.88134767 L6.09358725,5.67838542 Z M4.33837892,10.3333333 L9.66666667,10.3333333 L9.66666667,14.6479492 C8.46891275,14.6326497 7.27408854,14.5236002 6.09326171,14.3216146 L4.91666667,14.1186523 C4.55517579,12.8885091 4.36067708,11.6153971 4.33837892,10.3333333 L4.33837892,10.3333333 Z M5.97965496,14.9786784 C7.19791667,15.1871745 8.43066408,15.3001302 9.66666667,15.3164062 L9.66666667,19.3164062 C7.75569663,19.1326497 6.09570313,17.3829752 5.15494792,14.8365885 L5.97965496,14.9786784 Z M10.3333333,15.3164062 C11.5691732,15.3001302 12.8017578,15.1871745 14.0200195,14.9786784 L14.8450521,14.8359375 C13.9042969,17.3829752 12.2443034,19.1333008 10.3333333,19.3160807 L10.3333333,15.3164062 Z M13.9064128,14.3216146 C12.7257487,14.5236002 11.5310872,14.6326497 10.3333333,14.6479492 L10.3333333,10.3333333 L15.6616211,10.3333333 C15.6393229,11.6153971 15.4448242,12.8885091 15.0833333,14.1186523 L13.9064128,14.3216146 Z M16.3279623,9.66666667 C16.3059896,8.42952475 16.1302083,7.19986979 15.8046875,6.00602213 L18.6486003,6.49674479 C19.058431,7.50537108 19.2874349,8.5784505 19.3250325,9.66666667 L16.3279623,9.66666667 Z M18.3113607,5.76204425 L15.5852865,5.29166667 C15.0952148,3.69287108 14.1783854,2.25797525 12.9332683,1.14160158 C15.261556,1.91861979 17.1923828,3.57731121 18.3113607,5.76204425 Z M7.06673175,1.14160158 C5.82161458,2.25797525 4.90478517,3.69287108 4.41471354,5.29166667 L1.68863933,5.76204425 C2.80761717,3.57731121 4.738444,1.91861979 7.06673175,1.14160158 Z M1.68863933,14.2379557 L4.41471354,14.7083333 C4.90478517,16.3071289 5.82161458,17.7420247 7.06673175,18.8583984 C4.738444,18.0813802 2.80761717,16.4226888 1.68863933,14.2379557 Z M12.9332683,18.8583984 C14.1783854,17.7420247 15.0952148,16.3071289 15.5852865,14.7083333 L18.3113607,14.2379557 C17.1923828,16.4226888 15.261556,18.0813802 12.9332683,18.8583984 Z" id="Shape"></path>
                                </g>
                            </g>
                        </g>
                    </g>
                </g>
            </g>
        </g>
    </g>
</svg>