<?xml version="1.0" encoding="UTF-8"?>
<svg width="7px" height="9px" viewBox="0 0 7 9" version="1.1" xmlns="http://www.w3.org/2000/svg" xmlns:xlink="http://www.w3.org/1999/xlink">
    <!-- Generator: Sketch 59.1 (86144) - https://sketch.com -->
    <title>icon</title>
    <desc>Created with Sketch.</desc>
    <g id="Page-1" stroke="none" stroke-width="1" fill="none" fill-rule="evenodd">
        <g id="1.1.2-Packages-List---Actions-menu" transform="translate(-651.000000, -251.000000)" fill="#FFFFFF" fill-rule="nonzero">
            <g id="Tab-content" transform="translate(80.000000, 155.000000)">
                <g id="cards" transform="translate(0.000000, 48.000000)">
                    <g id="row-1">
                        <g id="1" transform="translate(337.000000, 0.000000)">
                            <g id="info" transform="translate(20.000000, 19.000000)">
                                <g id="actions-menu" transform="translate(204.000000, 24.000000)">
                                    <g id="clone---active">
                                        <g id="icon" transform="translate(13.500000, 9.421053) scale(-1, 1) translate(-13.500000, -9.421053) translate(10.000000, 5.000000)">
                                            <path d="M5.26269943,2.34310613 C5.12355608,2.34310613 5.01077473,2.23032478 5.01077473,2.09118143 L5.01077473,0.368421053 L2.90857845,0.368421053 C2.76943509,0.368421053 2.65659053,0.4812024 2.65659053,0.620408966 L2.65659053,1.78425685 L3.34263492,1.78425685 C3.41040488,1.78425685 3.47450817,1.81169358 3.5210368,1.85815897 L5.49572187,3.83290727 C5.54003786,3.87716005 5.56962401,3.9411369 5.56962401,4.01092984 L5.56962401,7.13188812 L6.73347188,7.13188812 C6.87267845,7.13188812 6.9854598,7.01904356 6.9854598,6.87990021 L6.9854598,2.34310613 L5.26269943,2.34310613 Z" id="Path"></path>
                                            <polygon id="Path" points="5.51468735 0.724719077 5.51468735 1.8391935 6.62916179 1.8391935"></polygon>
                                            <path d="M3.09083665,4.01092984 L3.09083665,2.28816948 L0.988830019,2.28816948 C0.849623453,2.28816948 0.736842105,2.40101404 0.736842105,2.54015739 L0.736842105,8.40257485 C0.736842105,8.54178142 0.849623453,8.65456276 0.988830019,8.65456276 L4.81372345,8.65456276 C4.95286681,8.65456276 5.06571138,8.54178142 5.06571138,8.40257485 L5.06571138,4.26291777 L3.34276135,4.26291777 C3.20368121,4.26291777 3.09083665,4.15019964 3.09083665,4.01092984 Z" id="Path"></path>
                                            <polygon id="Path" points="3.59474928 3.75894193 4.7092237 3.75894193 3.59474928 2.64465716"></polygon>
                                            <path d="M0.837418359,0.570649247 L0.837418359,2.27373675e-13 L0.0765526956,0.760865663 L0.837418359,1.52173133 L0.837418359,0.951082079 C1.25696444,0.951082079 1.59828402,1.29240166 1.59828402,1.71194774 L1.59828402,2.09238057 L1.97871685,2.09238057 L1.97871685,1.71194774 C1.97871685,1.08262862 1.46672262,0.570649247 0.837418359,0.570649247 Z" id="Path" transform="translate(1.027635, 1.046190) scale(-1, 1) translate(-1.027635, -1.046190) "></path>
                                        </g>
                                    </g>
                                </g>
                            </g>
                        </g>
                    </g>
                </g>
            </g>
        </g>
    </g>
</svg>