<?xml version="1.0" encoding="UTF-8"?>
<svg width="13px" height="13px" viewBox="0 0 13 13" version="1.1" xmlns="http://www.w3.org/2000/svg" xmlns:xlink="http://www.w3.org/1999/xlink">
    <!-- Generator: Sketch 59.1 (86144) - https://sketch.com -->
    <title>icon-btn-card-topology</title>
    <desc>Created with Sketch.</desc>
    <g id="Page-1" stroke="none" stroke-width="1" fill="none" fill-rule="evenodd">
        <g id="icon-btn-card-topology" fill="#C3CDDB" fill-rule="nonzero">
            <path d="M11.984375,0 L1.015625,0 C0.455,0.00066015625 0.00066015625,0.455 0,1.015625 L0,11.984375 C0.00066015625,12.545 0.455,12.9993398 1.015625,13 L11.984375,13 C12.545,12.9993398 12.9993398,12.545 13,11.984375 L13,1.015625 C12.9993398,0.455 12.545,0.00066015625 11.984375,0 Z M12.59375,11.984375 C12.59375,12.3209277 12.3209277,12.59375 11.984375,12.59375 L1.015625,12.59375 C0.679072266,12.59375 0.40625,12.3209277 0.40625,11.984375 L0.40625,1.015625 C0.40625,0.679072266 0.679072266,0.40625 1.015625,0.40625 L11.984375,0.40625 C12.3209277,0.40625 12.59375,0.679072266 12.59375,1.015625 L12.59375,11.984375 Z" id="Shape"></path>
            <path d="M1.421875,1.015625 C1.41626367,1.01549805 1.41065234,1.01549805 1.40504102,1.015625 C1.18533594,1.02027148 1.01097852,1.20216992 1.015625,1.421875 L1.015625,2.234375 L1.421875,2.234375 L1.421875,1.421875 L2.4375,1.421875 L2.4375,1.015625 L1.421875,1.015625 Z" id="Path"></path>
            <path d="M10.765625,2.03125 L2.234375,2.03125 C2.12219922,2.03125 2.03125,2.12219922 2.03125,2.234375 L2.03125,4.671875 C2.03125,4.78405078 2.12219922,4.875 2.234375,4.875 L10.765625,4.875 C10.8778008,4.875 10.96875,4.78405078 10.96875,4.671875 L10.96875,2.234375 C10.96875,2.12219922 10.8778008,2.03125 10.765625,2.03125 Z M10.5625,4.46875 L2.4375,4.46875 L2.4375,2.4375 L10.5625,2.4375 L10.5625,4.46875 Z" id="Shape"></path>
            <path d="M5.484375,5.484375 L2.234375,5.484375 C2.12219922,5.484375 2.03125,5.57532422 2.03125,5.6875 L2.03125,8.9375 C2.03125,9.04967578 2.12219922,9.140625 2.234375,9.140625 L5.484375,9.140625 C5.59655078,9.140625 5.6875,9.04967578 5.6875,8.9375 L5.6875,5.6875 C5.6875,5.57532422 5.59655078,5.484375 5.484375,5.484375 Z M2.4375,8.734375 L2.4375,6.17784375 L4.99403125,8.734375 L2.4375,8.734375 Z M5.28125,8.44708008 L2.72479492,5.890625 L5.28125,5.890625 L5.28125,8.44708008 Z" id="Shape"></path>
            <path d="M10.765625,5.484375 L6.296875,5.484375 C6.18469922,5.484375 6.09375,5.62989375 6.09375,5.809375 L6.09375,7.759375 C6.09375,7.93885625 6.18469922,8.084375 6.296875,8.084375 L10.765625,8.084375 C10.8778008,8.084375 10.96875,7.93885625 10.96875,7.759375 L10.96875,5.809375 C10.96875,5.62989375 10.8778008,5.484375 10.765625,5.484375 Z M10.5625,7.434375 L6.5,7.434375 L6.5,6.134375 L10.5625,6.134375 L10.5625,7.434375 Z" id="Shape"></path>
            <rect id="Rectangle" x="6.09375" y="7.71875" width="4.875" height="1"></rect>
            <rect id="Rectangle" x="6.09375" y="8.734375" width="4.875" height="1"></rect>
            <rect id="Rectangle" x="3.65625" y="9.75" width="7.3125" height="1"></rect>
            <rect id="Rectangle" x="2.03125" y="10.765625" width="7.3125" height="1"></rect>
            <rect id="Rectangle" x="2.03125" y="9.75" width="1" height="1"></rect>
            <rect id="Rectangle" x="2.84375" y="9.75" width="1" height="1"></rect>
        </g>
    </g>
</svg>