<?xml version="1.0" encoding="UTF-8"?>
<svg width="512px" height="512px" viewBox="0 0 512 512" version="1.1" xmlns="http://www.w3.org/2000/svg" xmlns:xlink="http://www.w3.org/1999/xlink">
    <!-- Generator: Sketch 61.2 (89653) - https://sketch.com -->
    <title>signs</title>
    <desc>Created with Sketch.</desc>
    <g id="Page-1" stroke="none" stroke-width="1" fill="none" fill-rule="evenodd">
        <g id="signs" fill-rule="nonzero">
            <path d="M256,0 C114.835938,0 0,114.835938 0,256 C0,397.164062 114.835938,512 256,512 C397.164062,512 512,397.164062 512,256 C512,114.835938 397.164062,0 256,0 Z" id="Path" fill="#FF6469"></path>
            <path d="M277.332031,384 C277.332031,395.78125 267.78125,405.332031 256,405.332031 C244.21875,405.332031 234.667969,395.78125 234.667969,384 C234.667969,372.21875 244.21875,362.667969 256,362.667969 C267.78125,362.667969 277.332031,372.21875 277.332031,384 Z" id="Path" fill="#ECEFF1"></path>
            <path d="M277.332031,298.667969 C277.332031,310.441406 267.777344,320 256,320 C244.222656,320 234.667969,310.441406 234.667969,298.667969 L234.667969,128 C234.667969,116.222656 244.222656,106.667969 256,106.667969 C267.777344,106.667969 277.332031,116.222656 277.332031,128 L277.332031,298.667969 Z" id="Path" fill="#FAFAFA"></path>
        </g>
    </g>
</svg>