<?xml version="1.0" encoding="UTF-8"?>
<svg width="18px" height="18px" viewBox="0 0 18 18" version="1.1" xmlns="http://www.w3.org/2000/svg" xmlns:xlink="http://www.w3.org/1999/xlink">
    <!-- Generator: Sketch 61.2 (89653) - https://sketch.com -->
    <title>no</title>
    <desc>Created with Sketch.</desc>
    <g id="Symbols" stroke="none" stroke-width="1" fill="none" fill-rule="evenodd">
        <g id="Table-Mapping-2" transform="translate(-83.000000, -244.000000)" fill="#C4CEDB" fill-rule="nonzero">
            <g id="table">
                <g id="body" transform="translate(0.000000, 19.000000)">
                    <g id="columns" transform="translate(26.000000, 0.000000)">
                        <g id="Required" transform="translate(35.000000, 0.000000)">
                            <g id="no" transform="translate(22.000000, 225.000000)">
                                <path d="M8.7350625,17.4706875 C3.918375,17.4706875 0,13.55175 0,8.7350625 C0,3.918375 3.918375,0 8.7350625,0 C13.55175,0 17.470125,3.918375 17.470125,8.7350625 C17.4706875,13.55175 13.55175,17.4706875 8.7350625,17.4706875 Z M8.7350625,0.997875 C4.4685,0.997875 0.997875,4.4690625 0.997875,8.7350625 C0.997875,13.0010625 4.4685,16.4716875 8.7350625,16.4716875 C13.0010625,16.4716875 16.4716875,13.0010625 16.4716875,8.7350625 C16.4716875,4.4690625 13.0010625,0.997875 8.7350625,0.997875 Z" id="Shape"></path>
                                <path d="M12.17925,9.234 L5.290875,9.234 C5.01525,9.234 4.791375,9.01125 4.791375,8.7350625 C4.791375,8.4594375 5.0146875,8.2355625 5.290875,8.2355625 L12.17925,8.2355625 C12.454875,8.2355625 12.6781875,8.4594375 12.6781875,8.7350625 C12.6781875,9.01125 12.4554375,9.234 12.17925,9.234 Z" id="Path"></path>
                            </g>
                        </g>
                    </g>
                </g>
            </g>
        </g>
    </g>
</svg>