<?xml version="1.0" encoding="UTF-8"?>
<svg width="79px" height="33px" viewBox="0 0 79 33" version="1.1" xmlns="http://www.w3.org/2000/svg" xmlns:xlink="http://www.w3.org/1999/xlink">
    <!-- Generator: Sketch 59.1 (86144) - https://sketch.com -->
    <title>Group 8</title>
    <desc>Created with Sketch.</desc>
    <g id="Page-1" stroke="none" stroke-width="1" fill="none" fill-rule="evenodd">
        <g id="logo-full" transform="translate(-40.000000, -5.500000)" fill="#1A3E6F">
            <g id="Group-8" transform="translate(40.000000, 5.000210)">
                <path d="M40.2005118,11.035053 L12.8299413,11.035053 C12.6665193,11.035053 12.5329532,11.1686191 12.5329532,11.3320411 C12.5329532,11.4954632 12.6665193,11.6290293 12.8299413,11.6290293 L40.2005118,11.6290293 C40.3639338,11.6290293 40.4974999,11.4954632 40.4974999,11.3320411 C40.4974999,11.1686191 40.3639338,11.035053 40.2005118,11.035053" id="Fill-1"></path>
                <path d="M7.17443925,22.1430367 C5.87544366,22.1430367 4.79643925,22.0278033 3.93742604,21.7973363 C3.07841282,21.5668693 2.39224982,21.1845037 1.87893705,20.6497156 C1.36562427,20.1159751 0.998972291,19.3983848 0.778981101,18.4974685 C0.558989912,17.5965522 0.448994317,16.4756447 0.448994317,15.134746 L0.448994317,7.5293363 C0.448994317,6.18896141 0.558989912,5.06753013 0.778981101,4.16661383 C0.998972291,3.26569753 1.36562427,2.54339313 1.87893705,1.99812925 C2.39224982,1.45338916 3.07841282,1.07102352 3.93742604,0.851032335 C4.79643925,0.631041145 5.87544366,0.521045551 7.17443925,0.521045551 L19.305382,0.521045551 C20.1015406,0.521045551 20.7981793,0.631041145 21.3952983,0.851032335 C21.9924172,1.07102352 22.4999683,1.34391736 22.919523,1.66814247 C23.3385538,1.99341515 23.6737785,2.33859181 23.925197,2.70524379 C24.1766155,3.07189577 24.3651793,3.40188256 24.4908886,3.69520414 L21.7881397,6.46080767 C21.5995758,6.04177683 21.2957785,5.65941119 20.8767476,5.31371075 C20.457193,4.96801031 19.8396463,4.79516009 19.0225362,4.79516009 L7.20586656,4.79516009 C6.26304718,4.79516009 5.60307361,4.99472352 5.22594586,5.39227903 C4.84881811,5.79035833 4.66025423,6.50323454 4.66025423,7.5293363 L4.66025423,15.1661733 C4.66025423,15.627631 4.69168154,16.0251865 4.75453617,16.3604112 C4.81739079,16.6956359 4.93786216,16.9784817 5.11595026,17.2089486 C5.29403837,17.4399394 5.55069476,17.6127896 5.88591943,17.7269755 C6.2211441,17.8427328 6.66112648,17.8998257 7.20586656,17.8998257 L19.1796727,17.8998257 C20.0177344,17.8998257 20.6358049,17.7269755 21.0338842,17.3817989 C21.4319635,17.0360984 21.7252851,16.6542566 21.9138489,16.2347019 L24.6165978,18.9683544 C24.4908886,19.2621997 24.3023247,19.5927103 24.0509062,19.9588385 C23.7994877,20.3254905 23.464263,20.6711909 23.0452322,20.9959398 C22.6262014,21.3212125 22.1181265,21.5930588 21.5210075,21.81305 C20.9238886,22.0330411 20.2272498,22.1430367 19.4310912,22.1430367 L7.17443925,22.1430367 Z" id="Fill-3"></path>
                <path d="M13.8691378,11.3319888 C13.8691378,12.0700068 13.2709713,12.6681733 12.5329532,12.6681733 C11.7949352,12.6681733 11.1962448,12.0700068 11.1962448,11.3319888 C11.1962448,10.5939707 11.7949352,9.99580419 12.5329532,9.99580419 C13.2709713,9.99580419 13.8691378,10.5939707 13.8691378,11.3319888" id="Fill-5"></path>
                <path d="M48.3399239,7.56086837 C48.3399239,6.49233974 48.15136,5.76427366 47.7742323,5.37667013 C47.3965807,4.98906661 46.7366072,4.79526485 45.7943116,4.79526485 L31.872012,4.79526485 L31.872012,17.8999305 L45.7943116,17.8999305 C46.7575587,17.8999305 47.4227702,17.7118904 47.7894222,17.3342389 C48.1560741,16.9571111 48.3399239,16.2348067 48.3399239,15.1662781 L48.3399239,7.56086837 Z M27.5973737,22.1431415 L27.5973737,0.521150308 L45.7943116,0.521150308 C47.1137349,0.521150308 48.208453,0.636383789 49.077942,0.866850749 C49.947431,1.0978415 50.6388319,1.49068291 51.1521446,2.04537498 C51.6659812,2.60059084 52.0326332,3.32341903 52.2526244,4.21385956 C52.4726156,5.10482388 52.5826111,6.20949392 52.5826111,7.52944106 L52.5826111,15.1348507 C52.5826111,16.4542741 52.4726156,17.5657534 52.2526244,18.4656221 C52.0326332,19.3670622 51.6659812,20.0898904 51.1521446,20.6346305 C50.6388319,21.1793706 49.947431,21.5669741 49.077942,21.7974411 C48.208453,22.027908 47.1137349,22.1431415 45.7943116,22.1431415 L27.5973737,22.1431415 Z" id="Fill-7"></path>
                <path d="M44.4429895,5.7641689 C43.773064,5.7641689 43.2283239,6.30943278 43.2283239,6.97883454 C43.2283239,7.18834996 43.2812265,7.38581824 43.3749847,7.55814467 L41.385112,9.54801736 C41.1106468,9.33431163 40.7675653,9.20598344 40.3935803,9.20598344 C40.020119,9.20598344 39.6765137,9.33431163 39.4020485,9.54801736 L37.8495393,7.99498432 C37.9202507,7.87451295 37.964249,7.73623278 37.964249,7.58642925 C37.964249,7.13963762 37.6007397,6.77665216 37.1539481,6.77665216 C36.7076803,6.77665216 36.344171,7.13963762 36.344171,7.58642925 C36.344171,8.03322088 36.7076803,8.39620634 37.1539481,8.39620634 C37.3042754,8.39620634 37.4425556,8.35273189 37.563027,8.28149665 L39.1155362,9.83452969 C38.9023543,10.1084711 38.7740261,10.4520764 38.7740261,10.8260614 C38.7740261,11.1995226 38.9023543,11.5431279 39.1155362,11.8175931 L36.5515913,14.3815381 C36.3357904,14.1856411 36.0508494,14.0651698 35.7365763,14.0651698 C35.0671745,14.0651698 34.5224344,14.6104337 34.5224344,15.2798354 C34.5224344,15.9502848 35.0671745,16.4950248 35.7365763,16.4950248 C36.4070256,16.4950248 36.9517657,15.9502848 36.9517657,15.2798354 C36.9517657,15.0708438 36.8983393,14.8733755 36.8045811,14.7010491 L39.4020485,12.1035817 C39.62623,12.2780033 39.8959811,12.3942843 40.1913979,12.4314733 L40.1913979,14.4883909 C39.6178494,14.5852918 39.1789146,15.0839385 39.1789146,15.6852478 C39.1789146,16.3551733 39.7236547,16.8999134 40.3941041,16.8999134 C41.0640296,16.8999134 41.6087697,16.3551733 41.6087697,15.6852478 C41.6087697,15.0844623 41.1698349,14.5852918 40.5962864,14.4883909 L40.5962864,12.4314733 C40.8917032,12.3942843 41.1614543,12.2780033 41.3856358,12.1035817 L42.938145,13.6560909 C42.8669098,13.7770861 42.8234353,13.91589 42.8234353,14.0651698 C42.8234353,14.5119614 43.1864208,14.8754707 43.6332124,14.8754707 C44.0800041,14.8754707 44.4429895,14.5119614 44.4429895,14.0651698 C44.4429895,13.6189019 44.0800041,13.2553927 43.6332124,13.2553927 C43.4834089,13.2553927 43.3446049,13.2988671 43.2241336,13.3701024 L41.6716243,11.8175931 C41.8848063,11.5431279 42.0131344,11.1995226 42.0131344,10.8260614 C42.0131344,10.4520764 41.8848063,10.1084711 41.6716243,9.83452969 L43.6284983,7.87765568 C43.8437754,8.0735526 44.1292402,8.19402396 44.4429895,8.19402396 C45.1129151,8.19402396 45.6576552,7.64928388 45.6576552,6.97883454 C45.6576552,6.30943278 45.1129151,5.7641689 44.4429895,5.7641689" id="Fill-9"></path>
                <path d="M78.4068531,15.8893158 C78.4068531,17.0416506 78.2811438,18.0158973 78.0297253,18.8120559 C77.7783068,19.6087382 77.3744659,20.2524744 76.8197738,20.7448356 C76.2645579,21.2371968 75.5364919,21.593373 74.6355756,21.8133642 C73.7346593,22.0328316 72.6446553,22.1428272 71.3676588,22.1428272 L56.093461,22.1428272 C56.1348403,21.4309986 56.1819813,20.7238841 56.2348839,20.0220074 C56.2872628,19.3201307 56.33388,18.6130162 56.3763068,17.9006638 L71.084813,17.9006638 C71.6505046,17.9006638 72.1266284,17.8645224 72.5142319,17.7906682 C72.9018355,17.7173378 73.2056328,17.5858669 73.425624,17.3978268 C73.6456152,17.2092629 73.8027518,16.9630823 73.8970337,16.6592849 C73.9913156,16.3560114 74.0384566,15.9731219 74.0384566,15.5116642 C74.0384566,14.6117955 73.8388932,13.9879633 73.4418615,13.6417391 C73.0432584,13.2960387 72.2884791,13.1231885 71.1785711,13.1231885 L62.4103509,13.1231885 C61.1108315,13.1231885 60.0265892,13.0084788 59.157624,12.7780118 C58.288135,12.5475448 57.5862584,12.1913686 57.0519941,11.7094832 C56.5177297,11.2275977 56.1348403,10.620003 55.9048971,9.88669903 C55.6744302,9.15339507 55.5591967,8.29438185 55.5591967,7.30965938 L55.5591967,6.5863074 C55.5591967,5.51777877 55.6744302,4.59643471 55.9048971,3.82070388 C56.1348403,3.04602062 56.5229676,2.41747436 57.0677077,1.93506511 C57.6124478,1.45370344 58.3300381,1.09752722 59.2204786,0.866536476 C60.1103954,0.636593304 61.216113,0.521359824 62.5360601,0.521359824 L77.6840249,0.521359824 C77.6002187,1.25466379 77.5164126,1.9722541 77.4326064,2.67413075 C77.3482764,3.3760074 77.2545183,4.09359771 77.1502844,4.82637789 L62.5360601,4.82637789 C61.4879593,4.82637789 60.7813685,5.00498978 60.4147165,5.3606422 C60.0480645,5.7173422 59.8652623,6.32493692 59.8652623,7.18342634 C59.8652623,8.04296335 60.0480645,8.65579595 60.4147165,9.02244793 C60.7813685,9.38909991 61.4879593,9.57190211 62.5360601,9.57190211 L71.1785711,9.57190211 C72.5194698,9.57190211 73.6508531,9.68189771 74.5727209,9.9018889 C75.494065,10.1218801 76.2383685,10.4628664 76.8040601,10.9238004 C77.3702756,11.3847343 77.7783068,11.9661396 78.0297253,12.6680162 C78.2811438,13.3698929 78.4068531,14.1922409 78.4068531,15.1350603 L78.4068531,15.8893158 Z" id="Fill-11"></path>
                <path d="M1.72148621,32.2858353 C1.48106727,32.2858353 1.28150383,32.26436 1.1227959,32.2219331 C0.963564185,32.1795062 0.836807357,32.108271 0.74200163,32.0097987 C0.646672115,31.9108027 0.579103392,31.7777604 0.538247885,31.6111956 C0.497916167,31.4451547 0.477488414,31.2372106 0.477488414,30.9889348 L0.477488414,29.5825626 C0.477488414,29.3342868 0.497916167,29.1268666 0.538247885,28.959778 C0.579103392,28.793737 0.646672115,28.6596472 0.74200163,28.5590798 C0.836807357,28.4579886 0.963564185,28.3878009 1.1227959,28.3464216 C1.28150383,28.3060899 1.48106727,28.2856622 1.72148621,28.2856622 L3.96592013,28.2856622 C4.11310471,28.2856622 4.2419567,28.3060899 4.35247608,28.3464216 C4.46299546,28.3878009 4.55675361,28.4375608 4.63427432,28.4983203 C4.71179502,28.5580322 4.77412586,28.6219344 4.82074304,28.6900269 C4.86683643,28.7581194 4.90193026,28.8188789 4.92497696,28.8728291 L4.42528269,29.3845705 C4.39018885,29.3070498 4.33414348,29.2363384 4.25662278,29.1724362 C4.17857828,29.108534 4.06439238,29.0765829 3.91354128,29.0765829 L1.72724789,29.0765829 C1.5528263,29.0765829 1.43078357,29.1132481 1.36111969,29.1871022 C1.29145581,29.2609564 1.25636198,29.3924274 1.25636198,29.5825626 L1.25636198,30.9952203 C1.25636198,31.0800741 1.26212366,31.1539282 1.27417079,31.2162591 C1.28517035,31.2780661 1.30769326,31.330445 1.34069194,31.3728719 C1.37369062,31.4158225 1.42083159,31.4472498 1.48316242,31.4687252 C1.54496947,31.4902005 1.62668048,31.5012 1.72724789,31.5012 L3.94234965,31.5012 C4.09739106,31.5012 4.21157696,31.4687252 4.28543115,31.404823 C4.35928533,31.3409207 4.41323555,31.2707331 4.44832938,31.1926886 L4.94854744,31.6986683 C4.92497696,31.7526185 4.88988313,31.8144256 4.84378974,31.8819943 C4.79717256,31.949563 4.73484172,32.0134652 4.65732101,32.0737009 C4.5803241,32.1339366 4.48604216,32.1842203 4.37552278,32.2250758 C4.26500339,32.2654075 4.13615141,32.2858353 3.98896683,32.2858353 L1.72148621,32.2858353 Z" id="Fill-13"></path>
                <path d="M8.20975969,30.2510215 C8.20975969,30.0881233 8.17518965,29.9760326 8.10500198,29.9137017 C8.03533811,29.8513709 7.92691388,29.8209911 7.7797293,29.8209911 L6.73896145,29.8209911 C6.59177687,29.8209911 6.48335264,29.8513709 6.41316498,29.9137017 C6.3435011,29.9760326 6.30893106,30.0881233 6.30893106,30.2510215 L6.30893106,31.1807462 C6.30893106,31.3441682 6.3435011,31.4567828 6.41316498,31.5185898 C6.48335264,31.5803969 6.59177687,31.6113004 6.73896145,31.6113004 L7.7797293,31.6113004 C7.92691388,31.6113004 8.03533811,31.5803969 8.10500198,31.5185898 C8.17518965,31.4567828 8.20975969,31.3441682 8.20975969,31.1807462 L8.20975969,30.2510215 Z M6.73896145,32.28594 C6.3162641,32.28594 6.01037159,32.1995149 5.82023634,32.0271885 C5.6301011,31.8548621 5.53529537,31.57254 5.53529537,31.1807462 L5.53529537,30.2510215 C5.53529537,29.8592277 5.6301011,29.5774295 5.82023634,29.405103 C6.01037159,29.2327766 6.3162641,29.1463515 6.73896145,29.1463515 L7.7797293,29.1463515 C8.20609317,29.1463515 8.51408084,29.2327766 8.70421608,29.405103 C8.89382753,29.5774295 8.98915705,29.8592277 8.98915705,30.2510215 L8.98915705,31.1807462 C8.98915705,31.57254 8.89382753,31.8548621 8.70421608,32.0271885 C8.51408084,32.1995149 8.20609317,32.28594 7.7797293,32.28594 L6.73896145,32.28594 Z" id="Fill-15"></path>
                <path d="M12.2854631,32.2858353 L12.2854631,30.3032956 C12.2854631,30.1403974 12.2545596,30.0194022 12.1927526,29.9397864 C12.1304217,29.8601705 12.018331,29.8208864 11.8554327,29.8208864 L10.843997,29.8208864 C10.7313825,29.8208864 10.646005,29.8449807 10.5878644,29.893693 C10.5297239,29.9418815 10.4852019,30.0183547 10.4537746,30.1231124 L10.4537746,32.2858353 L9.68066269,32.2858353 L9.68066269,29.1462467 L10.4249662,29.1462467 L10.4249662,29.5998476 C10.5103437,29.4332829 10.608816,29.3159542 10.7214305,29.2478617 C10.8340451,29.180293 10.9833248,29.1462467 11.1692697,29.1462467 L11.8554327,29.1462467 C12.0838045,29.1462467 12.2755111,29.1719124 12.4310763,29.2216723 C12.5861178,29.271956 12.7102556,29.3500005 12.8029662,29.4547582 C12.8962006,29.5589921 12.9627217,29.6899393 13.0035772,29.8470758 C13.0444327,30.0042124 13.0643367,30.1891097 13.0643367,30.4017679 L13.0643367,32.2858353 L12.2854631,32.2858353 Z" id="Fill-17"></path>
                <path d="M15.3842485,32.2510557 C15.3454882,32.2741024 15.2847287,32.2955778 15.2009226,32.3149579 C15.1176402,32.3343381 15.0254534,32.3442901 14.924886,32.3442901 C14.5294256,32.3442901 14.2465798,32.2175333 14.0758248,31.962972 C13.9055935,31.7094584 13.8202159,31.3323306 13.8202159,30.8321126 L13.8202159,29.7216808 L13.4656111,29.7216808 L13.5588455,29.1460372 L13.8202159,29.1460372 L13.8202159,28.4483509 L14.5990895,28.1927421 L14.5990895,29.1460372 L15.2506825,29.1460372 L15.1574481,29.7216808 L14.5990895,29.7216808 L14.5990895,30.8321126 C14.5990895,31.1112919 14.6420402,31.3197597 14.7274177,31.4569923 C14.8127952,31.5947487 14.9542181,31.6638888 15.1516864,31.6638888 C15.3103944,31.6638888 15.4271992,31.6366518 15.5005296,31.5827015 L15.3842485,32.2510557 Z" id="Fill-19"></path>
                <path d="M15.9307695,32.2858353 L15.9307695,29.1462467 L16.6808347,29.1462467 L16.6808347,29.5762771 C16.7504986,29.4175692 16.8531611,29.3023357 16.9893462,29.2305767 C17.1244836,29.1588177 17.279525,29.1232 17.4539466,29.1232 C17.5393241,29.1232 17.6199876,29.1321044 17.6954131,29.1493895 C17.7708387,29.1666745 17.8378836,29.1891974 17.8960241,29.2164344 L17.7855048,29.9141207 C17.7315545,29.8675036 17.6692237,29.8350287 17.5995598,29.8177437 C17.5298959,29.8004586 17.4329951,29.7915542 17.3088572,29.7915542 C17.1307691,29.7915542 16.9909175,29.8287432 16.8903501,29.9020736 C16.7892589,29.9759278 16.7290233,30.0764952 16.7096431,30.2042996 L16.7096431,32.2858353 L15.9307695,32.2858353 Z" id="Fill-21"></path>
                <path d="M20.9832338,30.2510215 C20.9832338,30.0881233 20.9486638,29.9760326 20.8784761,29.9137017 C20.8088122,29.8513709 20.700388,29.8209911 20.5532034,29.8209911 L19.5124356,29.8209911 C19.365251,29.8209911 19.2568268,29.8513709 19.1866391,29.9137017 C19.1169752,29.9760326 19.0824052,30.0881233 19.0824052,30.2510215 L19.0824052,31.1807462 C19.0824052,31.3441682 19.1169752,31.4567828 19.1866391,31.5185898 C19.2568268,31.5803969 19.365251,31.6113004 19.5124356,31.6113004 L20.5532034,31.6113004 C20.700388,31.6113004 20.8088122,31.5803969 20.8784761,31.5185898 C20.9486638,31.4567828 20.9832338,31.3441682 20.9832338,31.1807462 L20.9832338,30.2510215 Z M19.5124356,32.28594 C19.0897382,32.28594 18.7838457,32.1995149 18.5937105,32.0271885 C18.4035752,31.8548621 18.3087695,31.57254 18.3087695,31.1807462 L18.3087695,30.2510215 C18.3087695,29.8592277 18.4035752,29.5774295 18.5937105,29.405103 C18.7838457,29.2327766 19.0897382,29.1463515 19.5124356,29.1463515 L20.5532034,29.1463515 C20.9795673,29.1463515 21.287555,29.2327766 21.4776902,29.405103 C21.6673017,29.5774295 21.7626312,29.8592277 21.7626312,30.2510215 L21.7626312,31.1807462 C21.7626312,31.57254 21.6673017,31.8548621 21.4776902,32.0271885 C21.287555,32.1995149 20.9795673,32.28594 20.5532034,32.28594 L19.5124356,32.28594 Z" id="Fill-23"></path>
                <polygon id="Fill-25" points="22.4540844 32.2858353 22.4540844 28.1809044 23.2271963 27.919534 23.2271963 32.2858353"></polygon>
                <polygon id="Fill-27" points="23.9308539 32.2858353 23.9308539 28.1809044 24.7039658 27.919534 24.7039658 32.2858353"></polygon>
                <path d="M28.0761164,30.291458 C28.0761164,30.1212267 28.0431178,29.9997078 27.9776442,29.9284726 C27.9116468,29.8567135 27.8011274,29.8210959 27.646086,29.8210959 L26.6053182,29.8210959 C26.4502768,29.8210959 26.3397574,29.8556659 26.27376,29.9253298 C26.2077627,29.9955175 26.1752878,30.1039417 26.1752878,30.2511263 L26.1752878,30.5009734 L28.0761164,30.5009734 L28.0761164,30.291458 Z M26.6053182,32.2860448 C26.2250477,32.2860448 25.929631,32.1996197 25.7185442,32.0267695 C25.5074574,31.854443 25.4016521,31.5726448 25.4016521,31.180851 L25.4016521,30.2511263 C25.4016521,29.8593325 25.5074574,29.5775342 25.7185442,29.4052078 C25.929631,29.2328814 26.2250477,29.1459325 26.6053182,29.1459325 L27.646086,29.1459325 C28.0258327,29.1459325 28.322297,29.2328814 28.535479,29.4052078 C28.7486609,29.5775342 28.8555138,29.8593325 28.8555138,30.2511263 L28.8555138,30.9891444 L26.1752878,30.9891444 L26.1752878,31.180851 C26.1752878,31.344273 26.2124768,31.4568875 26.2884261,31.5186946 C26.3638517,31.5805016 26.469657,31.6114052 26.6053182,31.6114052 L28.7910878,31.6114052 L28.6926156,32.2860448 L26.6053182,32.2860448 Z" id="Fill-29"></path>
                <path d="M29.5239727,32.2858353 L29.5239727,29.1462467 L30.2740379,29.1462467 L30.2740379,29.5762771 C30.3437018,29.4175692 30.4463644,29.3023357 30.5825494,29.2305767 C30.7176868,29.1588177 30.8727282,29.1232 31.0471498,29.1232 C31.1325274,29.1232 31.2131908,29.1321044 31.2886163,29.1493895 C31.3640419,29.1666745 31.4310868,29.1891974 31.4892274,29.2164344 L31.378708,29.9141207 C31.3247578,29.8675036 31.2624269,29.8350287 31.192763,29.8177437 C31.1230992,29.8004586 31.0261983,29.7915542 30.9020604,29.7915542 C30.7239723,29.7915542 30.5841207,29.8287432 30.4835533,29.9020736 C30.3824622,29.9759278 30.3222265,30.0764952 30.3028463,30.2042996 L30.3028463,32.2858353 L29.5239727,32.2858353 Z" id="Fill-31"></path>
                <path d="M37.5416564,29.5881148 C37.5416564,29.3906465 37.5065626,29.255509 37.4368987,29.1842738 C37.3672348,29.1125148 37.2451921,29.0763733 37.0707705,29.0763733 L34.4953022,29.0763733 L34.4953022,31.5009905 L37.0707705,31.5009905 C37.2488586,31.5009905 37.3719489,31.4658967 37.4400414,31.3962328 C37.5076101,31.3265689 37.5416564,31.1924791 37.5416564,30.9955346 L37.5416564,29.5881148 Z M33.7043815,32.2856258 L33.7043815,28.2859764 L37.0707705,28.2859764 C37.3148559,28.2859764 37.5175621,28.3074518 37.6783652,28.3498786 C37.8391683,28.3923055 37.9669727,28.4645883 38.0617784,28.5677747 C38.1571079,28.6704372 38.2246767,28.8040033 38.2655322,28.9684729 C38.3058639,29.1339901 38.3268154,29.3377438 38.3268154,29.5823531 L38.3268154,30.9892491 C38.3268154,31.2338584 38.3058639,31.4386597 38.2655322,31.6057482 C38.2246767,31.772313 38.1571079,31.9058791 38.0617784,32.0064465 C37.9669727,32.1080615 37.8391683,32.1792967 37.6783652,32.2217236 C37.5175621,32.2641504 37.3148559,32.2856258 37.0707705,32.2856258 L33.7043815,32.2856258 Z" id="Fill-33"></path>
                <path d="M41.6751861,30.291458 C41.6751861,30.1212267 41.6421874,29.9997078 41.5767138,29.9284726 C41.5107165,29.8567135 41.4001971,29.8210959 41.2451557,29.8210959 L40.2038641,29.8210959 C40.0493464,29.8210959 39.938827,29.8556659 39.8728297,29.9253298 C39.8068323,29.9955175 39.7743574,30.1039417 39.7743574,30.2511263 L39.7743574,30.5009734 L41.6751861,30.5009734 L41.6751861,30.291458 Z M40.2038641,32.2860448 C39.8241174,32.2860448 39.5287006,32.1996197 39.3176138,32.0267695 C39.106527,31.854443 39.0007218,31.5726448 39.0007218,31.180851 L39.0007218,30.2511263 C39.0007218,29.8593325 39.106527,29.5775342 39.3176138,29.4052078 C39.5287006,29.2328814 39.8241174,29.1459325 40.2038641,29.1459325 L41.2451557,29.1459325 C41.6243786,29.1459325 41.9213667,29.2328814 42.1345486,29.4052078 C42.3477306,29.5775342 42.4540596,29.8593325 42.4540596,30.2511263 L42.4540596,30.9891444 L39.7743574,30.9891444 L39.7743574,31.180851 C39.7743574,31.344273 39.8115464,31.4568875 39.8874958,31.5186946 C39.9629213,31.5805016 40.0687266,31.6114052 40.2038641,31.6114052 L42.3901574,31.6114052 L42.2916852,32.2860448 L40.2038641,32.2860448 Z" id="Fill-35"></path>
                <path d="M43.0122611,32.2858353 C43.0316413,32.1732207 43.0499739,32.06113 43.0672589,31.9485155 C43.0850677,31.8364247 43.1034003,31.7238102 43.1227805,31.6111956 L45.2970267,31.6111956 C45.405451,31.6111956 45.4866382,31.5902441 45.5384933,31.5472934 C45.5908721,31.5048666 45.6175853,31.4158225 45.6175853,31.2801613 C45.6175853,31.1439763 45.5908721,31.0549322 45.5384933,31.0125053 C45.4866382,30.9695547 45.405451,30.9486031 45.2970267,30.9486031 L44.1462633,30.9486031 C43.7858968,30.9486031 43.5192884,30.8946529 43.346962,30.7857049 C43.1746356,30.6772807 43.0882104,30.4892406 43.0882104,30.2221084 L43.0882104,29.8847886 C43.0882104,29.7412705 43.1102096,29.6207992 43.1547316,29.5244221 C43.1992536,29.4275212 43.2662985,29.3515719 43.3553426,29.2976216 C43.4443867,29.2431476 43.5590963,29.2043873 43.6989479,29.1808168 C43.8377519,29.1577701 44.0011739,29.1462467 44.186595,29.1462467 L46.3262712,29.1462467 L46.2157519,29.8266481 L44.2222126,29.8266481 C44.1132646,29.8266481 44.0326012,29.8481234 43.9807461,29.8905503 C43.9283673,29.9335009 43.9016541,30.0204498 43.9016541,30.1524445 C43.9016541,30.2802489 43.9283673,30.3661503 43.9807461,30.4106723 C44.0326012,30.4557181 44.1132646,30.4777172 44.2222126,30.4777172 L45.3729761,30.4777172 C45.7291523,30.4777172 45.9947131,30.532715 46.1691347,30.6432344 C46.3435563,30.7537538 46.4310289,30.9412701 46.4310289,31.2047357 L46.4310289,31.5535789 C46.4310289,31.7007635 46.408506,31.8207111 46.363984,31.9139454 C46.319462,32.006656 46.2529408,32.081034 46.1638968,32.1376031 C46.0748527,32.1936485 45.960143,32.2324089 45.8202915,32.2533604 C45.6814875,32.2748357 45.5180655,32.2858353 45.3326444,32.2858353 L43.0122611,32.2858353 Z" id="Fill-37"></path>
                <path d="M47.0243242,32.2858877 L48.0506451,32.2858877 L48.0506451,29.1462991 L47.0243242,29.1462991 L47.0243242,32.2858877 Z M47.0243242,28.8728815 L48.0582373,28.8728815 L48.0582373,28.0416291 L47.0243242,28.0416291 L47.0243242,28.8728815 Z" id="Fill-39"></path>
                <path d="M51.1402022,30.1231648 C51.1087749,30.0147405 51.0600626,29.9377436 50.9919701,29.8937454 C50.9244014,29.8492233 50.8280243,29.8267004 50.7044102,29.8267004 L49.7217829,29.8267004 C49.6285485,29.8267004 49.5520754,29.8361286 49.4923635,29.8555088 C49.431604,29.874889 49.3828917,29.9078877 49.3436075,29.9545048 C49.3048472,30.001122 49.2776102,30.0639767 49.2624203,30.1430687 C49.2467067,30.2226846 49.2388498,30.3248233 49.2388498,30.4484374 L49.2388498,30.6579529 C49.2388498,30.7936141 49.2477542,30.9020383 49.2650393,30.9837493 C49.2828481,31.0649366 49.3095613,31.1277912 49.3467503,31.1723132 C49.3834155,31.217359 49.431604,31.2461674 49.4923635,31.2597859 C49.5520754,31.2728806 49.6264533,31.2802137 49.7154974,31.2802137 L50.6515075,31.2802137 C50.7992159,31.2802137 50.9097353,31.2608335 50.9830657,31.2220731 C51.0569199,31.182789 51.1087749,31.1036969 51.1402022,30.9837493 L51.1402022,30.1231648 Z M51.1402022,31.4310648 C51.0899185,31.5316322 51.0364921,31.6122956 50.9804467,31.6725313 C50.9244014,31.7322432 50.8604992,31.7788604 50.7882163,31.8123828 C50.7164573,31.8448577 50.6342225,31.8673806 50.5409881,31.878904 C50.4488014,31.8904273 50.338282,31.896189 50.2099538,31.896189 L49.6688802,31.896189 C49.4405084,31.896189 49.2498494,31.8731423 49.0969031,31.8265251 C48.9434331,31.7799079 48.8203428,31.7081489 48.7276322,31.611248 C48.6343978,31.5143471 48.5673529,31.390733 48.5270212,31.2393581 C48.4861657,31.088507 48.4662617,30.9098952 48.4662617,30.7040463 L48.4662617,30.4018203 C48.4662617,30.1891621 48.4861657,30.003741 48.5270212,29.8471282 C48.5673529,29.6899916 48.6343978,29.5590445 48.7276322,29.4548106 C48.8203428,29.3495291 48.9434331,29.2720084 49.0969031,29.2217247 C49.2498494,29.1719648 49.4405084,29.1462991 49.6688802,29.1462991 L50.3435199,29.1462991 C50.4058507,29.1462991 50.4760384,29.1520608 50.556178,29.1635841 C50.6352701,29.1751075 50.7148859,29.1976304 50.7945018,29.2306291 C50.8735939,29.263104 50.9474481,29.3097211 51.0155406,29.3704806 C51.0831093,29.4301925 51.1344406,29.5087608 51.1695344,29.6056617 L51.1695344,29.1462991 L51.9190758,29.1462991 L51.9190758,31.7683846 C51.9190758,31.9585198 51.8996956,32.1397507 51.8614591,32.3120771 C51.8226987,32.4844035 51.7488445,32.6357784 51.6404203,32.765678 C51.5314723,32.8955775 51.3806212,32.9987639 51.1868194,33.0768084 C50.9930177,33.1538053 50.7410754,33.1925656 50.4309926,33.1925656 C50.2916648,33.1925656 50.1518133,33.1820899 50.0124855,33.1611383 C49.872634,33.139663 49.7369727,33.1071881 49.604978,33.0647612 L49.6982124,32.4482621 C49.8223503,32.4875463 49.9386313,32.5142595 50.0470556,32.5299731 C50.1554798,32.5456868 50.2743798,32.5535436 50.4021842,32.5535436 C50.5451785,32.5535436 50.6646022,32.5346872 50.759408,32.498022 C50.8542137,32.4613568 50.930163,32.4084542 50.9862084,32.3408855 C51.0422538,32.272793 51.0820617,32.1905581 51.1056322,32.0941811 C51.1286789,31.9972802 51.1402022,31.8883322 51.1402022,31.7683846 L51.1402022,31.4310648 Z" id="Fill-41"></path>
                <path d="M55.2215626,32.2858353 L55.2215626,30.3032956 C55.2215626,30.1403974 55.1906591,30.0194022 55.128852,29.9397864 C55.0665212,29.8601705 54.9544304,29.8208864 54.7915322,29.8208864 L53.7800965,29.8208864 C53.667482,29.8208864 53.5821044,29.8449807 53.5239639,29.893693 C53.4658234,29.9418815 53.4213014,30.0183547 53.3903978,30.1231124 L53.3903978,32.2858353 L52.6167622,32.2858353 L52.6167622,29.1462467 L53.3610657,29.1462467 L53.3610657,29.5998476 C53.4464432,29.4332829 53.5454393,29.3159542 53.6580538,29.2478617 C53.7701445,29.180293 53.9194243,29.1462467 54.1053692,29.1462467 L54.7915322,29.1462467 C55.019904,29.1462467 55.2116106,29.1719124 55.3671758,29.2216723 C55.5222172,29.271956 55.6463551,29.3500005 55.7390657,29.4547582 C55.8323,29.5589921 55.899345,29.6899393 55.9396767,29.8470758 C55.9805322,30.0042124 56.0004362,30.1891097 56.0004362,30.4017679 L56.0004362,32.2858353 L55.2215626,32.2858353 Z" id="Fill-42"></path>
                <path d="M62.6175093,31.1287864 C62.6175093,31.3419683 62.5939388,31.5221516 62.5473216,31.6693362 C62.5007044,31.8165207 62.4263264,31.9359445 62.3236639,32.0270837 C62.2210013,32.118223 62.0863877,32.1842203 61.9198229,32.2250758 C61.7532581,32.2654075 61.5515996,32.2858353 61.3153709,32.2858353 L58.4895317,32.2858353 C58.4968648,32.1538406 58.5057692,32.0234172 58.5157211,31.8935177 C58.5256731,31.7636181 58.53353,31.632671 58.5419106,31.5012 L61.2624683,31.5012 C61.367226,31.5012 61.4552225,31.493867 61.5275053,31.4807723 C61.5992643,31.4671538 61.6553097,31.4430595 61.6956414,31.4079657 C61.7364969,31.3728719 61.7658291,31.3273022 61.7831141,31.2712569 C61.8003991,31.2152115 61.8093035,31.1439763 61.8093035,31.0591225 C61.8093035,30.8925578 61.7726383,30.7768005 61.6987841,30.7128983 C61.62493,30.6489961 61.4856022,30.617045 61.2797533,30.617045 L59.658104,30.617045 C59.417685,30.617045 59.217074,30.5955696 59.0562709,30.5531428 C58.8954678,30.5107159 58.7655683,30.4447185 58.6665722,30.3551507 C58.5681,30.2666304 58.4968648,30.1540159 58.4549617,30.0183547 C58.412011,29.8826934 58.3905357,29.7234617 58.3905357,29.5417071 L58.3905357,29.408141 C58.3905357,29.2101489 58.412011,29.0399177 58.4549617,28.8958758 C58.4968648,28.7528815 58.5691476,28.6366005 58.669715,28.5470326 C58.7702824,28.4579886 58.9028009,28.3919912 59.0683181,28.3495644 C59.2327877,28.3071375 59.4370652,28.2856622 59.6816744,28.2856622 L62.4834194,28.2856622 C62.4682295,28.4213234 62.4530396,28.5543657 62.4368022,28.6842652 C62.4216123,28.813641 62.4043273,28.9466833 62.3849471,29.0823445 L59.6816744,29.0823445 C59.4873489,29.0823445 59.3564018,29.1153432 59.288833,29.1808168 C59.2212643,29.2468141 59.1872181,29.3594287 59.1872181,29.5186604 C59.1872181,29.6773683 59.2212643,29.7905067 59.288833,29.8585992 C59.3564018,29.9261679 59.4873489,29.9602141 59.6816744,29.9602141 L61.2797533,29.9602141 C61.5280291,29.9602141 61.7375445,29.9806419 61.9082996,30.0214974 C62.0785308,30.0618291 62.2157634,30.1252075 62.3210449,30.2100613 C62.4258026,30.2954388 62.5007044,30.4028155 62.5473216,30.532715 C62.5939388,30.6626146 62.6175093,30.8145133 62.6175093,30.9889348 L62.6175093,31.1287864 Z" id="Fill-43"></path>
                <path d="M64.8328729,32.2510557 C64.7941126,32.2741024 64.7328293,32.2955778 64.6495469,32.3149579 C64.5657407,32.3343381 64.4740778,32.3442901 64.3735104,32.3442901 C63.97805,32.3442901 63.6946804,32.2175333 63.5244491,31.962972 C63.3542178,31.7094584 63.2688403,31.3323306 63.2688403,30.8321126 L63.2688403,29.7216808 L62.9142355,29.7216808 L63.0074698,29.1460372 L63.2688403,29.1460372 L63.2688403,28.4483509 L64.0477139,28.1927421 L64.0477139,29.1460372 L64.698783,29.1460372 L64.6055487,29.7216808 L64.0477139,29.7216808 L64.0477139,30.8321126 C64.0477139,31.1112919 64.0901407,31.3197597 64.1755183,31.4569923 C64.2608958,31.5947487 64.4023187,31.6638888 64.6003108,31.6638888 C64.7590187,31.6638888 64.8752998,31.6366518 64.949154,31.5827015 L64.8328729,32.2510557 Z" id="Fill-44"></path>
                <path d="M66.5822743,32.2858353 C66.3533787,32.2858353 66.1627196,32.2606934 66.0097734,32.2098859 C65.8563033,32.160126 65.7337368,32.0820815 65.6405025,31.9778476 C65.5472681,31.8730899 65.480747,31.7421428 65.4398915,31.5850062 C65.3990359,31.4278696 65.379132,31.2434961 65.379132,31.0303141 L65.379132,29.1462467 L66.1522439,29.1462467 L66.1522439,31.1287864 C66.1522439,31.2916846 66.184195,31.4126798 66.2480972,31.4917719 C66.3119994,31.5719115 66.4235663,31.6111956 66.5822743,31.6111956 L67.5009994,31.6111956 C67.6136139,31.6111956 67.7016104,31.5802921 67.7660364,31.5184851 C67.8299386,31.456678 67.8713179,31.3807287 67.8906981,31.2916846 L67.8906981,29.1462467 L68.6695716,29.1462467 L68.6695716,32.2858353 C68.6077646,32.2858353 68.5464813,32.2758833 68.4867694,32.2565031 C68.4265337,32.237123 68.3720597,32.2077908 68.3238712,32.1664115 C68.2751589,32.125556 68.2343033,32.0747485 68.2018285,32.0129415 C68.1688298,31.9506106 68.148402,31.8751851 68.141069,31.7856172 C68.0860712,31.9563723 67.9865514,32.0820815 67.8409381,32.1637926 C67.6958487,32.2449798 67.4879047,32.2858353 67.2160584,32.2858353 L66.5822743,32.2858353 Z" id="Fill-45"></path>
                <path d="M71.9311505,30.1231648 C71.9039135,30.0147405 71.8552012,29.9372198 71.7860611,29.8906026 C71.7158734,29.8439855 71.6137347,29.8209388 71.4775496,29.8209388 L70.56511,29.8209388 C70.3864981,29.8209388 70.2691695,29.8691273 70.2131241,29.9660282 C70.1565549,30.0629291 70.1287941,30.2163991 70.1287941,30.4253907 L70.1287941,31.006796 C70.1287941,31.247215 70.1617928,31.4080181 70.2277902,31.4892053 C70.2932637,31.5709163 70.4058783,31.611248 70.56511,31.611248 L71.4775496,31.611248 C71.6137347,31.611248 71.7179686,31.5745828 71.791299,31.5012524 C71.8651532,31.4273982 71.9117704,31.336259 71.9311505,31.227311 L71.9311505,30.1231648 Z M70.56511,32.2858877 C70.3362144,32.2858877 70.1445078,32.2607458 69.9894664,32.2099383 C69.8339012,32.1601784 69.7102871,32.0821339 69.6170527,31.9779 C69.5238184,31.8731423 69.4572972,31.7421952 69.4164417,31.5850586 C69.3755862,31.427922 69.3556822,31.2435485 69.3556822,31.0298427 L69.3556822,30.4018203 C69.3556822,30.1891621 69.3755862,30.003741 69.4164417,29.8471282 C69.4572972,29.6899916 69.5238184,29.5590445 69.6170527,29.4548106 C69.7102871,29.3495291 69.8339012,29.2720084 69.9894664,29.2217247 C70.1445078,29.1719648 70.3362144,29.1462991 70.56511,29.1462991 L71.1810853,29.1462991 C71.3670303,29.1462991 71.5173576,29.1803454 71.6320673,29.2479141 C71.7457294,29.3160066 71.845773,29.4333352 71.9311505,29.5999 L71.9311505,28.1809568 L72.7100241,27.9195863 L72.7100241,32.2858877 C72.648217,32.2858877 72.5869338,32.2759357 72.5272219,32.2565555 C72.4664624,32.2371753 72.4125122,32.2073194 72.3643237,32.1664639 C72.3156113,32.1256084 72.2747558,32.0748009 72.2422809,32.01247 C72.2092822,31.950663 72.1888545,31.8752374 72.1815215,31.7856696 C72.1265237,31.9564247 72.02648,32.0821339 71.8787717,32.1638449 C71.7315871,32.2450322 71.5205003,32.2858877 71.2449875,32.2858877 L70.56511,32.2858877 Z" id="Fill-46"></path>
                <path d="M73.4311238,32.2858877 L74.4574497,32.2858877 L74.4574497,29.1462991 L73.4311238,29.1462991 L73.4311238,32.2858877 Z M73.4311238,28.8728815 L74.4650368,28.8728815 L74.4650368,28.0416291 L73.4311238,28.0416291 L73.4311238,28.8728815 Z" id="Fill-47"></path>
                <path d="M77.5996949,30.2510215 C77.5996949,30.0881233 77.5651249,29.9760326 77.495461,29.9137017 C77.4252733,29.8513709 77.3168491,29.8209911 77.1696645,29.8209911 L76.1283729,29.8209911 C75.9811883,29.8209911 75.8727641,29.8513709 75.8031002,29.9137017 C75.7334363,29.9760326 75.6983425,30.0881233 75.6983425,30.2510215 L75.6983425,31.1807462 C75.6983425,31.3441682 75.7334363,31.4567828 75.8031002,31.5185898 C75.8727641,31.5803969 75.9811883,31.6113004 76.1283729,31.6113004 L77.1696645,31.6113004 C77.3168491,31.6113004 77.4252733,31.5803969 77.495461,31.5185898 C77.5651249,31.4567828 77.5996949,31.3441682 77.5996949,31.1807462 L77.5996949,30.2510215 Z M76.1283729,32.28594 C75.7061993,32.28594 75.4003068,32.1995149 75.2101716,32.0271885 C75.0200363,31.8548621 74.9257544,31.57254 74.9257544,31.1807462 L74.9257544,30.2510215 C74.9257544,29.8592277 75.0200363,29.5774295 75.2101716,29.405103 C75.4003068,29.2327766 75.7061993,29.1463515 76.1283729,29.1463515 L77.1696645,29.1463515 C77.5960284,29.1463515 77.9040161,29.2327766 78.0936275,29.405103 C78.2837628,29.5774295 78.3785685,29.8592277 78.3785685,30.2510215 L78.3785685,31.1807462 C78.3785685,31.57254 78.2837628,31.8548621 78.0936275,32.0271885 C77.9040161,32.1995149 77.5960284,32.28594 77.1696645,32.28594 L76.1283729,32.28594 Z" id="Fill-48"></path>
            </g>
        </g>
    </g>
</svg>